<svg version="1.1" viewBox="0.0 0.0 600.0 371.0" fill="none" stroke="none" stroke-linecap="square" stroke-miterlimit="10" width="600" height="371" xmlns:xlink="http://www.w3.org/1999/xlink" xmlns="http://www.w3.org/2000/svg"><path fill="#ffffff" d="M0 0L600.0 0L600.0 371.0L0 371.0L0 0Z" fill-rule="nonzero"/><path stroke="#cccccc" stroke-width="1.0" stroke-linecap="butt" d="M125.5 25.5L125.5 300.5" fill-rule="nonzero"/><path stroke="#cccccc" stroke-width="1.0" stroke-linecap="butt" d="M251.5 25.5L251.5 300.5" fill-rule="nonzero"/><path stroke="#cccccc" stroke-width="1.0" stroke-linecap="butt" d="M373.5 25.5L373.5 300.5" fill-rule="nonzero"/><path stroke="#cccccc" stroke-width="1.0" stroke-linecap="butt" d="M498.5 25.5L498.5 300.5" fill-rule="nonzero"/><path stroke="#cccccc" stroke-width="1.0" stroke-linecap="butt" d="M80.5 300.5L581.5 300.5" fill-rule="nonzero"/><path stroke="#cccccc" stroke-width="1.0" stroke-linecap="butt" d="M80.5 245.5L581.5 245.5" fill-rule="nonzero"/><path stroke="#cccccc" stroke-width="1.0" stroke-linecap="butt" d="M80.5 190.5L581.5 190.5" fill-rule="nonzero"/><path stroke="#cccccc" stroke-width="1.0" stroke-linecap="butt" d="M80.5 135.5L581.5 135.5" fill-rule="nonzero"/><path stroke="#cccccc" stroke-width="1.0" stroke-linecap="butt" d="M80.5 80.5L581.5 80.5" fill-rule="nonzero"/><path stroke="#cccccc" stroke-width="1.0" stroke-linecap="butt" d="M80.5 25.5L581.5 25.5" fill-rule="nonzero"/><clipPath id="id_0"><path d="M80.55 25.55L581.45 25.55L581.45 300.45L80.55 300.45L80.55 25.55Z" clip-rule="nonzero"/></clipPath><path stroke="#4285f4" stroke-width="2.0" stroke-linecap="butt" clip-path="url(#id_0)" d="M80.55 59.537094L90.10395 61.76722L99.657906 64.36903L113.306404 68.82928L122.86035 74.404594L132.4143 79.23653" fill-rule="nonzero"/><path stroke="#4285f4" stroke-width="2.0" stroke-linecap="butt" stroke-opacity="0.4" clip-path="url(#id_0)" d="M0 25.272047C0 25.272047 2.6666667 26.407543 4.0 26.973413C5.3333335 27.539282 6.6666665 28.103893 8.0 28.667263C9.333333 29.23063 10.666667 29.79275 12.0 30.35363C13.333333 30.91451 14.666667 31.474144 16.0 32.032547C17.333334 32.59095 18.666666 33.14811 20.0 33.70405C21.333334 34.259983 22.666666 34.814682 24.0 35.368164C25.333334 35.921642 26.666666 36.473892 28.0 37.02493C29.333334 37.575966 30.666666 38.125774 32.0 38.674374C33.333332 39.222977 34.666668 39.77036 36.0 40.316536C37.333332 40.862713 38.666668 41.407677 40.0 41.95144C41.333332 42.495205 42.666668 43.03776 44.0 43.579124C45.333332 44.120487 46.666668 44.660645 48.0 45.199615C49.333332 45.738586 50.666668 46.27636 52.0 46.81295C53.333332 47.34954 54.666668 47.884937 56.0 48.41916C57.333332 48.953377 58.666668 49.486412 60.0 50.018272C61.333332 50.55013 62.666668 51.080807 64.0 51.610317C65.333336 52.139828 66.666664 52.668163 68.0 53.19533C69.333336 53.722504 70.666664 54.248505 72.0 54.773346C73.333336 55.298187 74.666664 55.821865 76.0 56.344387C77.333336 56.866913 78.666664 57.388275 80.0 57.90849C81.333336 58.428707 82.666664 58.947765 84.0 59.465683C85.333336 59.9836 86.666664 60.500366 88.0 61.015995C89.333336 61.531624 90.666664 62.04611 92.0 62.55946C93.333336 63.07281 94.666664 63.585022 96.0 64.09611C97.333336 64.60719 98.666664 65.11714 100.0 65.62596C101.333336 66.13479 102.666664 66.64249 104.0 67.14906C105.333336 67.65564 106.666664 68.161095 108.0 68.665436C109.333336 69.16978 110.666664 69.673 112.0 70.17511C113.333336 70.67722 114.666664 71.178215 116.0 71.678116C117.333336 72.17801 118.666664 72.67679 120.0 73.17448C121.333336 73.672165 122.666664 74.16875 124.0 74.66423C125.333336 75.15972 126.666664 75.654106 128.0 76.14741C129.33333 76.6407 130.66667 77.132904 132.0 77.62402C133.33333 78.11514 134.66667 78.60517 136.0 79.094124C137.33333 79.58308 138.66667 80.07094 140.0 80.557724C141.33333 81.04452 142.66667 81.53023 144.0 82.01486C145.33333 82.499504 146.66667 82.98307 148.0 83.46557C149.33333 83.94807 150.66667 84.42949 152.0 84.90986C153.33333 85.39023 154.66667 85.86953 156.0 86.34777C157.33333 86.82602 158.66667 87.3032 160.0 87.779335C161.33333 88.25546 162.66667 88.73054 164.0 89.20457C165.33333 89.6786 166.66667 90.15157 168.0 90.62351C169.33333 91.09544 170.66667 91.56633 172.0 92.03618C173.33333 92.506035 174.66667 92.97484 176.0 93.44261C177.33333 93.910385 178.66667 94.37712 180.0 94.842834C181.33333 95.30854 182.66667 95.77322 184.0 96.23686C185.33333 96.700516 186.66667 97.16314 188.0 97.62474C189.33333 98.08634 190.66667 98.54692 192.0 99.006485C193.33333 99.46605 194.66667 99.92459 196.0 100.382126C197.33333 100.83966 198.66667 101.29617 200.0 101.751686C201.33333 102.2072 202.66667 102.6617 204.0 103.1152C205.33333 103.5687 206.66667 104.021194 208.0 104.47269C209.33333 104.92419 210.66667 105.37468 212.0 105.82418C213.33333 106.27368 214.66667 106.72218 216.0 107.1697C217.33333 107.61722 218.66667 108.06374 220.0 108.509285C221.33333 108.95482 222.66667 109.39937 224.0 109.84294C225.33333 110.286514 226.66667 110.7291 228.0 111.170715C229.33333 111.61233 230.66667 112.052956 232.0 112.492615C233.33333 112.93228 234.66667 113.370964 236.0 113.80868C237.33333 114.2464 238.66667 114.68314 240.0 115.118935C241.33333 115.55472 242.66667 115.98953 244.0 116.42339C245.33333 116.857254 246.66667 117.29015 248.0 117.72209C249.33333 118.15404 250.66667 118.58502 252.0 119.01505C253.33333 119.44509 254.66667 119.87417 256.0 120.30231C257.33334 120.730446 258.66666 121.15763 260.0 121.58387C261.33334 122.01012 262.66666 122.43542 264.0 122.85977C265.33334 123.284134 266.66666 123.70756 268.0 124.13004C269.33334 124.55253 270.66666 124.974075 272.0 125.3947C273.33334 125.815315 274.66666 126.235 276.0 126.65376C277.33334 127.07253 278.66666 127.490364 280.0 127.90727C281.33334 128.32419 282.66666 128.74017 284.0 129.15524C285.33334 129.57031 286.66666 129.98447 288.0 130.3977C289.33334 130.81094 290.66666 131.22325 292.0 131.63467C293.33334 132.04608 294.66666 132.45657 296.0 132.86617C297.33334 133.27576 298.66666 133.68445 300.0 134.09224C301.33334 134.50002 302.66666 134.90689 304.0 135.31288C305.33334 135.71886 306.66666 136.12395 308.0 136.52814C309.33334 136.93233 310.66666 137.33562 312.0 137.73802C313.33334 138.14043 314.66666 138.54193 316.0 138.94257C317.33334 139.34319 318.66666 139.74292 320.0 140.14178C321.33334 140.54063 322.66666 140.93861 324.0 141.33571C325.33334 141.7328 326.66666 142.12901 328.0 142.52435C329.33334 142.9197 330.66666 143.31416 332.0 143.70775C333.33334 144.10135 334.66666 144.49406 336.0 144.88593C337.33334 145.27777 338.66666 145.66876 340.0 146.05888C341.33334 146.449 342.66666 146.83827 344.0 147.22667C345.33334 147.61507 346.66666 148.00261 348.0 148.3893C349.33334 148.77599 350.66666 149.1618 352.0 149.54678C353.33334 149.93176 354.66666 150.31589 356.0 150.69916C357.33334 151.08244 358.66666 151.46486 360.0 151.84645C361.33334 152.22803 362.66666 152.60876 364.0 152.98866C365.33334 153.36856 366.66666 153.74762 368.0 154.12584C369.33334 154.50406 370.66666 154.88144 372.0 155.25798C373.33334 155.63454 374.66666 156.01024 376.0 156.38513C377.33334 156.76001 378.66666 157.13406 380.0 157.5073C381.33334 157.88052 382.66666 158.25293 384.0 158.62451C385.33334 158.99608 386.66666 159.36684 388.0 159.73679C389.33334 160.10672 390.66666 160.47583 392.0 160.84415C393.33334 161.21245 394.66666 161.57993 396.0 161.94661C397.33334 162.3133 398.66666 162.67915 400.0 163.0442C401.33334 163.40927 402.66666 163.77351 404.0 164.13696C405.33334 164.5004 406.66666 164.86304 408.0 165.22488C409.33334 165.58672 410.66666 165.94775 412.0 166.308C413.33334 166.66824 414.66666 167.02768 416.0 167.38634C417.33334 167.74498 418.66666 168.10283 420.0 168.4599C421.33334 168.81697 422.66666 169.17323 424.0 169.52873C425.33334 169.88422 426.66666 170.2389 428.0 170.59283C429.33334 170.94675 430.66666 171.29988 432.0 171.65224C433.33334 172.0046 434.66666 172.35616 436.0 172.70695C437.33334 173.05775 438.66666 173.40778 440.0 173.75702C441.33334 174.10628 442.66666 174.45474 444.0 174.80244C445.33334 175.15015 446.66666 175.49709 448.0 175.84326C449.33334 176.18942 450.66666 176.53482 452.0 176.87947C453.33334 177.2241 454.66666 177.56798 456.0 177.9111C457.33334 178.25421 458.66666 178.59657 460.0 178.93817C461.33334 179.27977 462.66666 179.62062 464.0 179.96071C465.33334 180.3008 466.66666 180.64014 468.0 180.97873C469.33334 181.31732 470.66666 181.65517 472.0 181.99225C473.33334 182.32935 474.66666 182.6657 476.0 183.0013C477.33334 183.33691 478.66666 183.67177 480.0 184.00589C481.33334 184.34001 482.66666 184.6734 484.0 185.00604C485.33334 185.33868 486.66666 185.6706 488.0 186.00177C489.33334 186.33295 490.66666 186.66339 492.0 186.9931C493.33334 187.32283 494.66666 187.65181 496.0 187.98006C497.33334 188.30832 498.66666 188.63585 500.0 188.96266C501.33334 189.28946 502.66666 189.61555 504.0 189.94092C505.33334 190.26628 506.66666 190.59091 508.0 190.91484C509.33334 191.23877 510.66666 191.56198 512.0 191.88448C513.3333 192.20697 514.6667 192.52875 516.0 192.84982C517.3333 193.1709 518.6667 193.49126 520.0 193.8109C521.3333 194.13055 522.6667 194.4495 524.0 194.76775C525.3333 195.08598 526.6667 195.40352 528.0 195.72035C529.3333 196.03719 530.6667 196.35332 532.0 196.66875C533.3333 196.98419 534.6667 197.29892 536.0 197.61296C537.3333 197.927 538.6667 198.24036 540.0 198.55301C541.3333 198.86566 542.6667 199.17763 544.0 199.48889C545.3333 199.80017 546.6667 200.11075 548.0 200.42065C549.3333 200.73055 550.6667 201.03976 552.0 201.34828C553.3333 201.65681 554.6667 201.96466 556.0 202.27182C557.3333 202.579 558.6667 202.88548 560.0 203.19128C561.3333 203.4971 562.6667 203.80223 564.0 204.10669C565.3333 204.41115 566.6667 204.71492 568.0 205.01804C569.3333 205.32115 570.6667 205.6236 572.0 205.92537C573.3333 206.22714 574.6667 206.52824 576.0 206.82869C577.3333 207.12914 580.0 207.72803 580.0 207.72803" fill-rule="nonzero"/><path fill="#000000" fill-opacity="0.0" clip-path="url(#id_0)" d="M83.55 59.537094C83.55 61.19395 82.206856 62.537094 80.55 62.537094C78.89314 62.537094 77.55 61.19395 77.55 59.537094C77.55 57.88024 78.89314 56.537094 80.55 56.537094C82.206856 56.537094 83.55 57.88024 83.55 59.537094Z" fill-rule="nonzero"/><path fill="#000000" fill-opacity="0.0" clip-path="url(#id_0)" d="M93.10395 61.76722C93.10395 63.424076 91.7608 64.76722 90.10395 64.76722C88.4471 64.76722 87.10395 63.424076 87.10395 61.76722C87.10395 60.110367 88.4471 58.76722 90.10395 58.76722C91.7608 58.76722 93.10395 60.110367 93.10395 61.76722Z" fill-rule="nonzero"/><path fill="#000000" fill-opacity="0.0" clip-path="url(#id_0)" d="M102.657906 64.36903C102.657906 66.02589 101.31476 67.36903 99.657906 67.36903C98.001045 67.36903 96.657906 66.02589 96.657906 64.36903C96.657906 62.712177 98.001045 61.369034 99.657906 61.369034C101.31476 61.369034 102.657906 62.712177 102.657906 64.36903Z" fill-rule="nonzero"/><path fill="#000000" fill-opacity="0.0" clip-path="url(#id_0)" d="M116.306404 68.82928C116.306404 70.48614 114.96326 71.82928 113.306404 71.82928C111.64955 71.82928 110.306404 70.48614 110.306404 68.82928C110.306404 67.172424 111.64955 65.82928 113.306404 65.82928C114.96326 65.82928 116.306404 67.172424 116.306404 68.82928Z" fill-rule="nonzero"/><path fill="#000000" fill-opacity="0.0" clip-path="url(#id_0)" d="M125.86035 74.404594C125.86035 76.06145 124.51721 77.404594 122.86035 77.404594C121.2035 77.404594 119.86035 76.06145 119.86035 74.404594C119.86035 72.747734 121.2035 71.404594 122.86035 71.404594C124.51721 71.404594 125.86035 72.747734 125.86035 74.404594Z" fill-rule="nonzero"/><path fill="#000000" fill-opacity="0.0" clip-path="url(#id_0)" d="M135.4143 79.23653C135.4143 80.89338 134.07117 82.23653 132.4143 82.23653C130.75745 82.23653 129.4143 80.89338 129.4143 79.23653C129.4143 77.57967 130.75745 76.23653 132.4143 76.23653C134.07117 76.23653 135.4143 77.57967 135.4143 79.23653Z" fill-rule="nonzero"/><path fill="#000000" d="M318.92188 349.45L318.92188 340.85626L321.89062 340.85626Q322.89062 340.85626 323.42188 340.98126Q324.15625 341.15314 324.67188 341.59064Q325.35938 342.16876 325.6875 343.075Q326.03125 343.96564 326.03125 345.10626Q326.03125 346.09064 325.79688 346.84064Q325.57812 347.59064 325.21875 348.09064Q324.85938 348.59064 324.42188 348.8719Q324.0 349.15314 323.40625 349.3094Q322.8125 349.45 322.03125 349.45L318.92188 349.45ZM320.0625 348.4344L321.89062 348.4344Q322.75 348.4344 323.23438 348.27814Q323.71875 348.1219 324.0 347.825Q324.40625 347.4344 324.625 346.7469Q324.85938 346.0594 324.85938 345.09064Q324.85938 343.7469 324.40625 343.02814Q323.96875 342.29376 323.34375 342.04376Q322.875 341.8719 321.875 341.8719L320.0625 341.8719L320.0625 348.4344ZM331.85938 348.6844Q331.26562 349.1844 330.71875 349.3875Q330.1875 349.59064 329.5625 349.59064Q328.53125 349.59064 327.98438 349.09064Q327.4375 348.59064 327.4375 347.8094Q327.4375 347.35626 327.64062 346.98126Q327.84375 346.59064 328.1875 346.3719Q328.53125 346.1375 328.95312 346.02814Q329.25 345.9344 329.89062 345.85626Q331.15625 345.71564 331.76562 345.4969Q331.76562 345.27814 331.76562 345.23126Q331.76562 344.575 331.46875 344.3094Q331.0625 343.96564 330.26562 343.96564Q329.53125 343.96564 329.17188 344.23126Q328.8125 344.48126 328.64062 345.1375L327.60938 344.9969Q327.75 344.34064 328.07812 343.9344Q328.40625 343.52814 329.01562 343.3094Q329.625 343.09064 330.42188 343.09064Q331.21875 343.09064 331.71875 343.27814Q332.21875 343.46564 332.45312 343.7469Q332.6875 344.02814 332.78125 344.46564Q332.82812 344.73126 332.82812 345.4344L332.82812 346.84064Q332.82812 348.3094 332.89062 348.7Q332.96875 349.09064 333.17188 349.45L332.0625 349.45Q331.90625 349.1219 331.85938 348.6844ZM331.76562 346.325Q331.1875 346.5594 330.04688 346.73126Q329.39062 346.825 329.125 346.95Q328.85938 347.0594 328.70312 347.27814Q328.5625 347.4969 328.5625 347.77814Q328.5625 348.2 328.875 348.48126Q329.20312 348.7625 329.8125 348.7625Q330.42188 348.7625 330.89062 348.4969Q331.375 348.23126 331.59375 347.7625Q331.76562 347.40314 331.76562 346.71564L331.76562 346.325ZM337.09375 348.5125L337.25 349.4344Q336.79688 349.52814 336.45312 349.52814Q335.875 349.52814 335.5625 349.35626Q335.25 349.16876 335.10938 348.8719Q334.98438 348.575 334.98438 347.6219L334.98438 344.04376L334.21875 344.04376L334.21875 343.23126L334.98438 343.23126L334.98438 341.6844L336.03125 341.0594L336.03125 343.23126L337.09375 343.23126L337.09375 344.04376L336.03125 344.04376L336.03125 347.6844Q336.03125 348.1375 336.07812 348.2625Q336.14062 348.3875 336.26562 348.46564Q336.39062 348.54376 336.625 348.54376Q336.8125 348.54376 337.09375 348.5125ZM342.04688 347.45L343.14062 347.575Q342.89062 348.52814 342.1875 349.0594Q341.48438 349.59064 340.40625 349.59064Q339.04688 349.59064 338.23438 348.7469Q337.4375 347.90314 337.4375 346.3875Q337.4375 344.825 338.25 343.96564Q339.0625 343.09064 340.34375 343.09064Q341.59375 343.09064 342.375 343.9344Q343.17188 344.77814 343.17188 346.325Q343.17188 346.41876 343.17188 346.60626L338.53125 346.60626Q338.59375 347.6375 339.10938 348.1844Q339.625 348.71564 340.40625 348.71564Q340.98438 348.71564 341.39062 348.41876Q341.8125 348.10626 342.04688 347.45ZM338.59375 345.7469L342.0625 345.7469Q342.0 344.95 341.67188 344.5594Q341.15625 343.95 340.35938 343.95Q339.625 343.95 339.125 344.4344Q338.64062 344.91876 338.59375 345.7469Z" fill-rule="nonzero"/><path fill="#000000" d="M29.550013 178.625L20.956263 178.625L20.956263 175.39062Q20.956263 174.40625 21.221888 173.8125Q21.487513 173.21875 22.034388 172.89062Q22.565638 172.54688 23.159388 172.54688Q23.706263 172.54688 24.190638 172.84375Q24.675013 173.14062 24.971888 173.75Q25.206263 172.96875 25.768763 172.5625Q26.315638 172.14062 27.065638 172.14062Q27.659388 172.14062 28.190638 172.39062Q28.706263 172.64062 28.987513 173.01562Q29.268763 173.39062 29.409388 173.96875Q29.550013 174.53125 29.550013 175.34375L29.550013 178.625ZM24.565638 177.48438L24.565638 175.625Q24.565638 174.875 24.471888 174.54688Q24.346888 174.10938 24.050013 173.89062Q23.737513 173.67188 23.284388 173.67188Q22.862513 173.67188 22.534388 173.875Q22.206263 174.07812 22.096888 174.46875Q21.971888 174.84375 21.971888 175.76562L21.971888 177.48438L24.565638 177.48438ZM28.534388 177.48438L28.534388 175.34375Q28.534388 174.79688 28.487513 174.57812Q28.425013 174.17188 28.268763 173.92188Q28.096888 173.65625 27.784388 173.48438Q27.471888 173.3125 27.065638 173.3125Q26.581263 173.3125 26.221888 173.5625Q25.862513 173.79688 25.721888 174.23438Q25.581263 174.67188 25.581263 175.5L25.581263 177.48438L28.534388 177.48438ZM29.550013 170.60938L20.956263 170.60938L20.956263 168.89062L27.034388 166.85938Q27.893763 166.57812 28.315638 166.45312Q27.846888 166.3125 26.940638 166.0L20.956263 163.9375L20.956263 162.40625L29.550013 162.40625L29.550013 163.5L22.362513 163.5L29.550013 166.0L29.550013 167.03125L22.237513 169.51562L29.550013 169.51562L29.550013 170.60938ZM29.550013 161.375L20.956263 161.375L20.956263 160.25L29.550013 160.25L29.550013 161.375Z" fill-rule="nonzero"/><path fill="#000000" d="M55.01875 304.45L53.971874 304.45L53.971874 297.73126Q53.58125 298.09064 52.95625 298.46564Q52.346874 298.825 51.8625 298.9969L51.8625 297.98126Q52.7375 297.5594 53.39375 296.98126Q54.065624 296.3875 54.346874 295.825L55.01875 295.825L55.01875 304.45ZM58.05 300.21564Q58.05 298.6844 58.3625 297.7625Q58.675 296.825 59.284374 296.325Q59.909374 295.825 60.846874 295.825Q61.534374 295.825 62.05 296.10626Q62.58125 296.3875 62.925 296.91876Q63.26875 297.4344 63.45625 298.1844Q63.64375 298.9344 63.64375 300.21564Q63.64375 301.73126 63.33125 302.65314Q63.034374 303.575 62.409374 304.09064Q61.8 304.59064 60.846874 304.59064Q59.6125 304.59064 58.89375 303.7Q58.05 302.6375 58.05 300.21564ZM59.128124 300.21564Q59.128124 302.325 59.628124 303.02814Q60.128124 303.73126 60.846874 303.73126Q61.58125 303.73126 62.065624 303.02814Q62.565624 302.325 62.565624 300.21564Q62.565624 298.09064 62.065624 297.40314Q61.58125 296.7 60.83125 296.7Q60.1125 296.7 59.675 297.3094Q59.128124 298.09064 59.128124 300.21564ZM65.64375 304.45L65.64375 303.2469L66.84688 303.2469L66.84688 304.45L65.64375 304.45ZM68.05 300.21564Q68.05 298.6844 68.3625 297.7625Q68.675 296.825 69.28438 296.325Q69.90938 295.825 70.84688 295.825Q71.53438 295.825 72.05 296.10626Q72.58125 296.3875 72.925 296.91876Q73.26875 297.4344 73.45625 298.1844Q73.64375 298.9344 73.64375 300.21564Q73.64375 301.73126 73.33125 302.65314Q73.03438 303.575 72.40938 304.09064Q71.8 304.59064 70.84688 304.59064Q69.6125 304.59064 68.89375 303.7Q68.05 302.6375 68.05 300.21564ZM69.12813 300.21564Q69.12813 302.325 69.62813 303.02814Q70.12813 303.73126 70.84688 303.73126Q71.58125 303.73126 72.06563 303.02814Q72.56563 302.325 72.56563 300.21564Q72.56563 298.09064 72.06563 297.40314Q71.58125 296.7 70.83125 296.7Q70.1125 296.7 69.675 297.3094Q69.12813 298.09064 69.12813 300.21564Z" fill-rule="nonzero"/><path fill="#000000" d="M55.01875 249.47L53.971874 249.47L53.971874 242.75125Q53.58125 243.11063 52.95625 243.48563Q52.346874 243.845 51.8625 244.01688L51.8625 243.00125Q52.7375 242.57938 53.39375 242.00125Q54.065624 241.4075 54.346874 240.845L55.01875 240.845L55.01875 249.47ZM58.05 247.22L59.159374 247.12625Q59.284374 247.93875 59.721874 248.345Q60.175 248.75125 60.815624 248.75125Q61.565624 248.75125 62.096874 248.17313Q62.628124 247.595 62.628124 246.6575Q62.628124 245.75125 62.1125 245.23563Q61.6125 244.70438 60.784374 244.70438Q60.284374 244.70438 59.8625 244.93875Q59.45625 245.17313 59.221874 245.5325L58.2375 245.4075L59.065624 241.00125L63.346874 241.00125L63.346874 242.00125L59.909374 242.00125L59.45625 244.31375Q60.221874 243.76688 61.065624 243.76688Q62.190624 243.76688 62.95625 244.54813Q63.7375 245.32938 63.7375 246.56375Q63.7375 247.72 63.065624 248.57938Q62.2375 249.61063 60.815624 249.61063Q59.64375 249.61063 58.89375 248.95438Q58.159374 248.29813 58.05 247.22ZM65.64375 249.47L65.64375 248.26688L66.84688 248.26688L66.84688 249.47L65.64375 249.47ZM68.05 245.23563Q68.05 243.70438 68.3625 242.7825Q68.675 241.845 69.28438 241.345Q69.90938 240.845 70.84688 240.845Q71.53438 240.845 72.05 241.12625Q72.58125 241.4075 72.925 241.93875Q73.26875 242.45438 73.45625 243.20438Q73.64375 243.95438 73.64375 245.23563Q73.64375 246.75125 73.33125 247.67313Q73.03438 248.595 72.40938 249.11063Q71.8 249.61063 70.84688 249.61063Q69.6125 249.61063 68.89375 248.72Q68.05 247.6575 68.05 245.23563ZM69.12813 245.23563Q69.12813 247.345 69.62813 248.04813Q70.12813 248.75125 70.84688 248.75125Q71.58125 248.75125 72.06563 248.04813Q72.56563 247.345 72.56563 245.23563Q72.56563 243.11063 72.06563 242.42313Q71.58125 241.72 70.83125 241.72Q70.1125 241.72 69.675 242.32938Q69.12813 243.11063 69.12813 245.23563Z" fill-rule="nonzero"/><path fill="#000000" d="M56.596874 193.47438L56.596874 194.49L50.909374 194.49Q50.909374 194.115 51.034374 193.75563Q51.253124 193.1775 51.721874 192.615Q52.20625 192.0525 53.1125 191.31813Q54.51875 190.16188 55.003124 189.49Q55.503124 188.81813 55.503124 188.22438Q55.503124 187.59938 55.05 187.1775Q54.596874 186.74 53.878124 186.74Q53.1125 186.74 52.659374 187.19313Q52.20625 187.64626 52.190624 188.45876L51.1125 188.34938Q51.221874 187.13063 51.940624 186.50563Q52.675 185.865 53.909374 185.865Q55.14375 185.865 55.8625 186.5525Q56.58125 187.24 56.58125 188.25563Q56.58125 188.77126 56.3625 189.27126Q56.159374 189.75563 55.659374 190.31813Q55.175 190.865 54.05 191.81813Q53.096874 192.615 52.815624 192.91188Q52.55 193.19313 52.378124 193.47438L56.596874 193.47438ZM58.05 190.25563Q58.05 188.72438 58.3625 187.8025Q58.675 186.865 59.284374 186.365Q59.909374 185.865 60.846874 185.865Q61.534374 185.865 62.05 186.14626Q62.58125 186.4275 62.925 186.95876Q63.26875 187.47438 63.45625 188.22438Q63.64375 188.97438 63.64375 190.25563Q63.64375 191.77126 63.33125 192.69313Q63.034374 193.615 62.409374 194.13063Q61.8 194.63063 60.846874 194.63063Q59.6125 194.63063 58.89375 193.74Q58.05 192.6775 58.05 190.25563ZM59.128124 190.25563Q59.128124 192.365 59.628124 193.06813Q60.128124 193.77126 60.846874 193.77126Q61.58125 193.77126 62.065624 193.06813Q62.565624 192.365 62.565624 190.25563Q62.565624 188.13063 62.065624 187.44313Q61.58125 186.74 60.83125 186.74Q60.1125 186.74 59.675 187.34938Q59.128124 188.13063 59.128124 190.25563ZM65.64375 194.49L65.64375 193.28688L66.84688 193.28688L66.84688 194.49L65.64375 194.49ZM68.05 190.25563Q68.05 188.72438 68.3625 187.8025Q68.675 186.865 69.28438 186.365Q69.90938 185.865 70.84688 185.865Q71.53438 185.865 72.05 186.14626Q72.58125 186.4275 72.925 186.95876Q73.26875 187.47438 73.45625 188.22438Q73.64375 188.97438 73.64375 190.25563Q73.64375 191.77126 73.33125 192.69313Q73.03438 193.615 72.40938 194.13063Q71.8 194.63063 70.84688 194.63063Q69.6125 194.63063 68.89375 193.74Q68.05 192.6775 68.05 190.25563ZM69.12813 190.25563Q69.12813 192.365 69.62813 193.06813Q70.12813 193.77126 70.84688 193.77126Q71.58125 193.77126 72.06563 193.06813Q72.56563 192.365 72.56563 190.25563Q72.56563 188.13063 72.06563 187.44313Q71.58125 186.74 70.83125 186.74Q70.1125 186.74 69.675 187.34938Q69.12813 188.13063 69.12813 190.25563Z" fill-rule="nonzero"/><path fill="#000000" d="M56.596874 138.49437L56.596874 139.51L50.909374 139.51Q50.909374 139.135 51.034374 138.77562Q51.253124 138.1975 51.721874 137.635Q52.20625 137.0725 53.1125 136.33812Q54.51875 135.18187 55.003124 134.51Q55.503124 133.83812 55.503124 133.24437Q55.503124 132.61937 55.05 132.1975Q54.596874 131.76 53.878124 131.76Q53.1125 131.76 52.659374 132.21312Q52.20625 132.66624 52.190624 133.47874L51.1125 133.36937Q51.221874 132.15062 51.940624 131.52562Q52.675 130.885 53.909374 130.885Q55.14375 130.885 55.8625 131.5725Q56.58125 132.26 56.58125 133.27562Q56.58125 133.79124 56.3625 134.29124Q56.159374 134.77562 55.659374 135.33812Q55.175 135.885 54.05 136.83812Q53.096874 137.635 52.815624 137.93187Q52.55 138.21312 52.378124 138.49437L56.596874 138.49437ZM58.05 137.26L59.159374 137.16624Q59.284374 137.97874 59.721874 138.385Q60.175 138.79124 60.815624 138.79124Q61.565624 138.79124 62.096874 138.21312Q62.628124 137.635 62.628124 136.6975Q62.628124 135.79124 62.1125 135.27562Q61.6125 134.74437 60.784374 134.74437Q60.284374 134.74437 59.8625 134.97874Q59.45625 135.21312 59.221874 135.5725L58.2375 135.4475L59.065624 131.04124L63.346874 131.04124L63.346874 132.04124L59.909374 132.04124L59.45625 134.35374Q60.221874 133.80687 61.065624 133.80687Q62.190624 133.80687 62.95625 134.58812Q63.7375 135.36937 63.7375 136.60374Q63.7375 137.76 63.065624 138.61937Q62.2375 139.65062 60.815624 139.65062Q59.64375 139.65062 58.89375 138.99437Q58.159374 138.33812 58.05 137.26ZM65.64375 139.51L65.64375 138.30687L66.84688 138.30687L66.84688 139.51L65.64375 139.51ZM68.05 135.27562Q68.05 133.74437 68.3625 132.8225Q68.675 131.885 69.28438 131.385Q69.90938 130.885 70.84688 130.885Q71.53438 130.885 72.05 131.16624Q72.58125 131.4475 72.925 131.97874Q73.26875 132.49437 73.45625 133.24437Q73.64375 133.99437 73.64375 135.27562Q73.64375 136.79124 73.33125 137.71312Q73.03438 138.635 72.40938 139.15062Q71.8 139.65062 70.84688 139.65062Q69.6125 139.65062 68.89375 138.76Q68.05 137.6975 68.05 135.27562ZM69.12813 135.27562Q69.12813 137.385 69.62813 138.08812Q70.12813 138.79124 70.84688 138.79124Q71.58125 138.79124 72.06563 138.08812Q72.56563 137.385 72.56563 135.27562Q72.56563 133.15062 72.06563 132.46312Q71.58125 131.76 70.83125 131.76Q70.1125 131.76 69.675 132.36937Q69.12813 133.15062 69.12813 135.27562Z" fill-rule="nonzero"/><path fill="#000000" d="M51.05 82.26437L52.1125 82.12375Q52.284374 83.01437 52.721874 83.42062Q53.159374 83.81125 53.784374 83.81125Q54.534374 83.81125 55.05 83.29562Q55.565624 82.78 55.565624 82.01437Q55.565624 81.29562 55.08125 80.82687Q54.6125 80.3425 53.878124 80.3425Q53.58125 80.3425 53.128124 80.4675L53.253124 79.53Q53.3625 79.54562 53.425 79.54562Q54.096874 79.54562 54.628124 79.20187Q55.175 78.8425 55.175 78.10812Q55.175 77.53 54.784374 77.155Q54.39375 76.76437 53.76875 76.76437Q53.159374 76.76437 52.7375 77.155Q52.33125 77.54562 52.221874 78.31125L51.159374 78.12375Q51.346874 77.07687 52.034374 76.49875Q52.721874 75.905 53.7375 75.905Q54.440624 75.905 55.034374 76.2175Q55.628124 76.51437 55.940624 77.03Q56.253124 77.54562 56.253124 78.13937Q56.253124 78.68625 55.95625 79.155Q55.659374 79.60812 55.08125 79.87375Q55.83125 80.04562 56.253124 80.60812Q56.675 81.155 56.675 81.99875Q56.675 83.12375 55.846874 83.905Q55.034374 84.68625 53.784374 84.68625Q52.659374 84.68625 51.909374 84.01437Q51.159374 83.32687 51.05 82.26437ZM58.05 80.29562Q58.05 78.76437 58.3625 77.8425Q58.675 76.905 59.284374 76.405Q59.909374 75.905 60.846874 75.905Q61.534374 75.905 62.05 76.18625Q62.58125 76.4675 62.925 76.99875Q63.26875 77.51437 63.45625 78.26437Q63.64375 79.01437 63.64375 80.29562Q63.64375 81.81125 63.33125 82.73312Q63.034374 83.655 62.409374 84.17062Q61.8 84.67062 60.846874 84.67062Q59.6125 84.67062 58.89375 83.78Q58.05 82.7175 58.05 80.29562ZM59.128124 80.29562Q59.128124 82.405 59.628124 83.10812Q60.128124 83.81125 60.846874 83.81125Q61.58125 83.81125 62.065624 83.10812Q62.565624 82.405 62.565624 80.29562Q62.565624 78.17062 62.065624 77.48312Q61.58125 76.78 60.83125 76.78Q60.1125 76.78 59.675 77.38937Q59.128124 78.17062 59.128124 80.29562ZM65.64375 84.53L65.64375 83.32687L66.84688 83.32687L66.84688 84.53L65.64375 84.53ZM68.05 80.29562Q68.05 78.76437 68.3625 77.8425Q68.675 76.905 69.28438 76.405Q69.90938 75.905 70.84688 75.905Q71.53438 75.905 72.05 76.18625Q72.58125 76.4675 72.925 76.99875Q73.26875 77.51437 73.45625 78.26437Q73.64375 79.01437 73.64375 80.29562Q73.64375 81.81125 73.33125 82.73312Q73.03438 83.655 72.40938 84.17062Q71.8 84.67062 70.84688 84.67062Q69.6125 84.67062 68.89375 83.78Q68.05 82.7175 68.05 80.29562ZM69.12813 80.29562Q69.12813 82.405 69.62813 83.10812Q70.12813 83.81125 70.84688 83.81125Q71.58125 83.81125 72.06563 83.10812Q72.56563 82.405 72.56563 80.29562Q72.56563 78.17062 72.06563 77.48312Q71.58125 76.78 70.83125 76.78Q70.1125 76.78 69.675 77.38937Q69.12813 78.17062 69.12813 80.29562Z" fill-rule="nonzero"/><path fill="#000000" d="M51.05 27.284374L52.1125 27.14375Q52.284374 28.034374 52.721874 28.440624Q53.159374 28.83125 53.784374 28.83125Q54.534374 28.83125 55.05 28.315624Q55.565624 27.8 55.565624 27.034374Q55.565624 26.315624 55.08125 25.846874Q54.6125 25.3625 53.878124 25.3625Q53.58125 25.3625 53.128124 25.4875L53.253124 24.55Q53.3625 24.565624 53.425 24.565624Q54.096874 24.565624 54.628124 24.221874Q55.175 23.8625 55.175 23.128124Q55.175 22.55 54.784374 22.175Q54.39375 21.784374 53.76875 21.784374Q53.159374 21.784374 52.7375 22.175Q52.33125 22.565624 52.221874 23.33125L51.159374 23.14375Q51.346874 22.096874 52.034374 21.51875Q52.721874 20.925 53.7375 20.925Q54.440624 20.925 55.034374 21.2375Q55.628124 21.534374 55.940624 22.05Q56.253124 22.565624 56.253124 23.159374Q56.253124 23.70625 55.95625 24.175Q55.659374 24.628124 55.08125 24.89375Q55.83125 25.065624 56.253124 25.628124Q56.675 26.175 56.675 27.01875Q56.675 28.14375 55.846874 28.925Q55.034374 29.70625 53.784374 29.70625Q52.659374 29.70625 51.909374 29.034374Q51.159374 28.346874 51.05 27.284374ZM58.05 27.3L59.159374 27.20625Q59.284374 28.01875 59.721874 28.425Q60.175 28.83125 60.815624 28.83125Q61.565624 28.83125 62.096874 28.253124Q62.628124 27.675 62.628124 26.7375Q62.628124 25.83125 62.1125 25.315624Q61.6125 24.784374 60.784374 24.784374Q60.284374 24.784374 59.8625 25.01875Q59.45625 25.253124 59.221874 25.6125L58.2375 25.4875L59.065624 21.08125L63.346874 21.08125L63.346874 22.08125L59.909374 22.08125L59.45625 24.39375Q60.221874 23.846874 61.065624 23.846874Q62.190624 23.846874 62.95625 24.628124Q63.7375 25.409374 63.7375 26.64375Q63.7375 27.8 63.065624 28.659374Q62.2375 29.690624 60.815624 29.690624Q59.64375 29.690624 58.89375 29.034374Q58.159374 28.378124 58.05 27.3ZM65.64375 29.55L65.64375 28.346874L66.84688 28.346874L66.84688 29.55L65.64375 29.55ZM68.05 25.315624Q68.05 23.784374 68.3625 22.8625Q68.675 21.925 69.28438 21.425Q69.90938 20.925 70.84688 20.925Q71.53438 20.925 72.05 21.20625Q72.58125 21.4875 72.925 22.01875Q73.26875 22.534374 73.45625 23.284374Q73.64375 24.034374 73.64375 25.315624Q73.64375 26.83125 73.33125 27.753124Q73.03438 28.675 72.40938 29.190624Q71.8 29.690624 70.84688 29.690624Q69.6125 29.690624 68.89375 28.8Q68.05 27.7375 68.05 25.315624ZM69.12813 25.315624Q69.12813 27.425 69.62813 28.128124Q70.12813 28.83125 70.84688 28.83125Q71.58125 28.83125 72.06563 28.128124Q72.56563 27.425 72.56563 25.315624Q72.56563 23.190624 72.06563 22.503124Q71.58125 21.8 70.83125 21.8Q70.1125 21.8 69.675 22.409374Q69.12813 23.190624 69.12813 25.315624Z" fill-rule="nonzero"/><path fill="#000000" d="M95.09006 313.21564Q95.09006 311.6844 95.40256 310.7625Q95.71506 309.825 96.32443 309.325Q96.94943 308.825 97.88693 308.825Q98.57443 308.825 99.09006 309.10626Q99.62131 309.3875 99.96506 309.91876Q100.30881 310.4344 100.49631 311.1844Q100.68381 311.9344 100.68381 313.21564Q100.68381 314.73126 100.37131 315.65314Q100.07443 316.575 99.44943 317.09064Q98.84006 317.59064 97.88693 317.59064Q96.65256 317.59064 95.93381 316.7Q95.09006 315.6375 95.09006 313.21564ZM96.16818 313.21564Q96.16818 315.325 96.66818 316.02814Q97.16818 316.73126 97.88693 316.73126Q98.62131 316.73126 99.10568 316.02814Q99.60568 315.325 99.60568 313.21564Q99.60568 311.09064 99.10568 310.40314Q98.62131 309.7 97.87131 309.7Q97.15256 309.7 96.71506 310.3094Q96.16818 311.09064 96.16818 313.21564ZM106.05881 317.45L105.01193 317.45L105.01193 310.73126Q104.62131 311.09064 103.99631 311.46564Q103.38693 311.825 102.90256 311.9969L102.90256 310.98126Q103.77756 310.5594 104.43381 309.98126Q105.10568 309.3875 105.38693 308.825L106.05881 308.825L106.05881 317.45ZM108.59006 317.59064L111.07443 308.71564L111.91818 308.71564L109.43381 317.59064L108.59006 317.59064ZM116.05881 317.45L115.01193 317.45L115.01193 310.73126Q114.62131 311.09064 113.99631 311.46564Q113.38693 311.825 112.90256 311.9969L112.90256 310.98126Q113.77756 310.5594 114.43381 309.98126Q115.10568 309.3875 115.38693 308.825L116.05881 308.825L116.05881 317.45ZM119.09006 313.21564Q119.09006 311.6844 119.40256 310.7625Q119.71506 309.825 120.32443 309.325Q120.94943 308.825 121.88693 308.825Q122.57443 308.825 123.09006 309.10626Q123.62131 309.3875 123.96506 309.91876Q124.30881 310.4344 124.49631 311.1844Q124.68381 311.9344 124.68381 313.21564Q124.68381 314.73126 124.37131 315.65314Q124.07443 316.575 123.44943 317.09064Q122.84006 317.59064 121.88693 317.59064Q120.65256 317.59064 119.93381 316.7Q119.09006 315.6375 119.09006 313.21564ZM120.16818 313.21564Q120.16818 315.325 120.66818 316.02814Q121.16818 316.73126 121.88693 316.73126Q122.62131 316.73126 123.10568 316.02814Q123.60568 315.325 123.60568 313.21564Q123.60568 311.09064 123.10568 310.40314Q122.62131 309.7 121.87131 309.7Q121.15256 309.7 120.71506 310.3094Q120.16818 311.09064 120.16818 313.21564ZM125.59006 317.59064L128.07443 308.71564L128.91818 308.71564L126.43381 317.59064L125.59006 317.59064ZM134.63693 316.4344L134.63693 317.45L128.94943 317.45Q128.94943 317.075 129.07443 316.71564Q129.29318 316.1375 129.76193 315.575Q130.2463 315.0125 131.15256 314.27814Q132.5588 313.1219 133.04318 312.45Q133.54318 311.77814 133.54318 311.1844Q133.54318 310.5594 133.09006 310.1375Q132.63693 309.7 131.91818 309.7Q131.15256 309.7 130.69943 310.15314Q130.2463 310.60626 130.23068 311.41876L129.15256 311.3094Q129.26193 310.09064 129.98068 309.46564Q130.71506 308.825 131.94943 308.825Q133.1838 308.825 133.90256 309.5125Q134.6213 310.2 134.6213 311.21564Q134.6213 311.73126 134.40256 312.23126Q134.19943 312.71564 133.69943 313.27814Q133.21506 313.825 132.09006 314.77814Q131.13693 315.575 130.85568 315.8719Q130.59006 316.15314 130.41818 316.4344L134.63693 316.4344ZM136.09006 313.21564Q136.09006 311.6844 136.40256 310.7625Q136.71506 309.825 137.32443 309.325Q137.94943 308.825 138.88693 308.825Q139.57443 308.825 140.09006 309.10626Q140.6213 309.3875 140.96506 309.91876Q141.3088 310.4344 141.4963 311.1844Q141.6838 311.9344 141.6838 313.21564Q141.6838 314.73126 141.3713 315.65314Q141.07443 316.575 140.44943 317.09064Q139.84006 317.59064 138.88693 317.59064Q137.65256 317.59064 136.9338 316.7Q136.09006 315.6375 136.09006 313.21564ZM137.16818 313.21564Q137.16818 315.325 137.66818 316.02814Q138.16818 316.73126 138.88693 316.73126Q139.6213 316.73126 140.10568 316.02814Q140.60568 315.325 140.60568 313.21564Q140.60568 311.09064 140.10568 310.40314Q139.6213 309.7 138.8713 309.7Q138.15256 309.7 137.71506 310.3094Q137.16818 311.09064 137.16818 313.21564ZM148.63693 316.4344L148.63693 317.45L142.94943 317.45Q142.94943 317.075 143.07443 316.71564Q143.29318 316.1375 143.76193 315.575Q144.2463 315.0125 145.15256 314.27814Q146.5588 313.1219 147.04318 312.45Q147.54318 311.77814 147.54318 311.1844Q147.54318 310.5594 147.09006 310.1375Q146.63693 309.7 145.91818 309.7Q145.15256 309.7 144.69943 310.15314Q144.2463 310.60626 144.23068 311.41876L143.15256 311.3094Q143.26193 310.09064 143.98068 309.46564Q144.71506 308.825 145.94943 308.825Q147.1838 308.825 147.90256 309.5125Q148.6213 310.2 148.6213 311.21564Q148.6213 311.73126 148.40256 312.23126Q148.19943 312.71564 147.69943 313.27814Q147.21506 313.825 146.09006 314.77814Q145.13693 315.575 144.85568 315.8719Q144.59006 316.15314 144.41818 316.4344L148.63693 316.4344ZM153.46506 317.45L153.46506 315.3875L149.7463 315.3875L149.7463 314.41876L153.66818 308.85626L154.52756 308.85626L154.52756 314.41876L155.6838 314.41876L155.6838 315.3875L154.52756 315.3875L154.52756 317.45L153.46506 317.45ZM153.46506 314.41876L153.46506 310.5594L150.77756 314.41876L153.46506 314.41876Z" fill-rule="nonzero"/><path fill="#000000" d="M220.65627 313.21564Q220.65627 311.6844 220.96877 310.7625Q221.28127 309.825 221.89064 309.325Q222.51564 308.825 223.45314 308.825Q224.14064 308.825 224.65627 309.10626Q225.18752 309.3875 225.53127 309.91876Q225.87502 310.4344 226.06252 311.1844Q226.25002 311.9344 226.25002 313.21564Q226.25002 314.73126 225.93752 315.65314Q225.64064 316.575 225.01564 317.09064Q224.40627 317.59064 223.45314 317.59064Q222.21877 317.59064 221.50002 316.7Q220.65627 315.6375 220.65627 313.21564ZM221.73439 313.21564Q221.73439 315.325 222.23439 316.02814Q222.73439 316.73126 223.45314 316.73126Q224.18752 316.73126 224.67189 316.02814Q225.17189 315.325 225.17189 313.21564Q225.17189 311.09064 224.67189 310.40314Q224.18752 309.7 223.43752 309.7Q222.71877 309.7 222.28127 310.3094Q221.73439 311.09064 221.73439 313.21564ZM231.62502 317.45L230.57814 317.45L230.57814 310.73126Q230.18752 311.09064 229.56252 311.46564Q228.95314 311.825 228.46877 311.9969L228.46877 310.98126Q229.34377 310.5594 230.00002 309.98126Q230.67189 309.3875 230.95314 308.825L231.62502 308.825L231.62502 317.45ZM234.15627 317.59064L236.64064 308.71564L237.48439 308.71564L235.00002 317.59064L234.15627 317.59064ZM237.65627 313.21564Q237.65627 311.6844 237.96877 310.7625Q238.28127 309.825 238.89064 309.325Q239.51564 308.825 240.45314 308.825Q241.14064 308.825 241.65627 309.10626Q242.18752 309.3875 242.53127 309.91876Q242.87502 310.4344 243.06252 311.1844Q243.25002 311.9344 243.25002 313.21564Q243.25002 314.73126 242.93752 315.65314Q242.64064 316.575 242.01564 317.09064Q241.40627 317.59064 240.45314 317.59064Q239.21877 317.59064 238.50002 316.7Q237.65627 315.6375 237.65627 313.21564ZM238.73439 313.21564Q238.73439 315.325 239.23439 316.02814Q239.73439 316.73126 240.45314 316.73126Q241.18752 316.73126 241.67189 316.02814Q242.17189 315.325 242.17189 313.21564Q242.17189 311.09064 241.67189 310.40314Q241.18752 309.7 240.43752 309.7Q239.71877 309.7 239.28127 310.3094Q238.73439 311.09064 238.73439 313.21564ZM248.62502 317.45L247.57814 317.45L247.57814 310.73126Q247.18752 311.09064 246.56252 311.46564Q245.95314 311.825 245.46877 311.9969L245.46877 310.98126Q246.34377 310.5594 247.00002 309.98126Q247.67189 309.3875 247.95314 308.825L248.62502 308.825L248.62502 317.45ZM251.15627 317.59064L253.64064 308.71564L254.48439 308.71564L252.00002 317.59064L251.15627 317.59064ZM260.20312 316.4344L260.20312 317.45L254.51564 317.45Q254.51564 317.075 254.64064 316.71564Q254.85939 316.1375 255.32814 315.575Q255.81252 315.0125 256.71875 314.27814Q258.125 313.1219 258.60938 312.45Q259.10938 311.77814 259.10938 311.1844Q259.10938 310.5594 258.65625 310.1375Q258.20312 309.7 257.48438 309.7Q256.71875 309.7 256.26562 310.15314Q255.81252 310.60626 255.79689 311.41876L254.71877 311.3094Q254.82814 310.09064 255.54689 309.46564Q256.28125 308.825 257.51562 308.825Q258.75 308.825 259.46875 309.5125Q260.1875 310.2 260.1875 311.21564Q260.1875 311.73126 259.96875 312.23126Q259.76562 312.71564 259.26562 313.27814Q258.78125 313.825 257.65625 314.77814Q256.70312 315.575 256.42188 315.8719Q256.15625 316.15314 255.98439 316.4344L260.20312 316.4344ZM261.65625 313.21564Q261.65625 311.6844 261.96875 310.7625Q262.28125 309.825 262.89062 309.325Q263.51562 308.825 264.45312 308.825Q265.14062 308.825 265.65625 309.10626Q266.1875 309.3875 266.53125 309.91876Q266.875 310.4344 267.0625 311.1844Q267.25 311.9344 267.25 313.21564Q267.25 314.73126 266.9375 315.65314Q266.64062 316.575 266.01562 317.09064Q265.40625 317.59064 264.45312 317.59064Q263.21875 317.59064 262.5 316.7Q261.65625 315.6375 261.65625 313.21564ZM262.73438 313.21564Q262.73438 315.325 263.23438 316.02814Q263.73438 316.73126 264.45312 316.73126Q265.1875 316.73126 265.67188 316.02814Q266.17188 315.325 266.17188 313.21564Q266.17188 311.09064 265.67188 310.40314Q265.1875 309.7 264.4375 309.7Q263.71875 309.7 263.28125 310.3094Q262.73438 311.09064 262.73438 313.21564ZM274.20312 316.4344L274.20312 317.45L268.51562 317.45Q268.51562 317.075 268.64062 316.71564Q268.85938 316.1375 269.32812 315.575Q269.8125 315.0125 270.71875 314.27814Q272.125 313.1219 272.60938 312.45Q273.10938 311.77814 273.10938 311.1844Q273.10938 310.5594 272.65625 310.1375Q272.20312 309.7 271.48438 309.7Q270.71875 309.7 270.26562 310.15314Q269.8125 310.60626 269.79688 311.41876L268.71875 311.3094Q268.82812 310.09064 269.54688 309.46564Q270.28125 308.825 271.51562 308.825Q272.75 308.825 273.46875 309.5125Q274.1875 310.2 274.1875 311.21564Q274.1875 311.73126 273.96875 312.23126Q273.76562 312.71564 273.26562 313.27814Q272.78125 313.825 271.65625 314.77814Q270.70312 315.575 270.42188 315.8719Q270.15625 316.15314 269.98438 316.4344L274.20312 316.4344ZM275.65625 315.2L276.76562 315.10626Q276.89062 315.91876 277.32812 316.325Q277.78125 316.73126 278.42188 316.73126Q279.17188 316.73126 279.70312 316.15314Q280.23438 315.575 280.23438 314.6375Q280.23438 313.73126 279.71875 313.21564Q279.21875 312.6844 278.39062 312.6844Q277.89062 312.6844 277.46875 312.91876Q277.0625 313.15314 276.82812 313.5125L275.84375 313.3875L276.67188 308.98126L280.95312 308.98126L280.95312 309.98126L277.51562 309.98126L277.0625 312.29376Q277.82812 311.7469 278.67188 311.7469Q279.79688 311.7469 280.5625 312.52814Q281.34375 313.3094 281.34375 314.54376Q281.34375 315.7 280.67188 316.5594Q279.84375 317.59064 278.42188 317.59064Q277.25 317.59064 276.5 316.9344Q275.76562 316.27814 275.65625 315.2Z" fill-rule="nonzero"/><path fill="#000000" d="M343.49277 313.21564Q343.49277 311.6844 343.80527 310.7625Q344.11777 309.825 344.72714 309.325Q345.35214 308.825 346.28964 308.825Q346.97714 308.825 347.49277 309.10626Q348.02402 309.3875 348.36777 309.91876Q348.71152 310.4344 348.89902 311.1844Q349.08652 311.9344 349.08652 313.21564Q349.08652 314.73126 348.77402 315.65314Q348.47714 316.575 347.85214 317.09064Q347.24277 317.59064 346.28964 317.59064Q345.05527 317.59064 344.33652 316.7Q343.49277 315.6375 343.49277 313.21564ZM344.5709 313.21564Q344.5709 315.325 345.0709 316.02814Q345.5709 316.73126 346.28964 316.73126Q347.02402 316.73126 347.5084 316.02814Q348.0084 315.325 348.0084 313.21564Q348.0084 311.09064 347.5084 310.40314Q347.02402 309.7 346.27402 309.7Q345.55527 309.7 345.11777 310.3094Q344.5709 311.09064 344.5709 313.21564ZM354.46152 317.45L353.41464 317.45L353.41464 310.73126Q353.02402 311.09064 352.39902 311.46564Q351.78964 311.825 351.30527 311.9969L351.30527 310.98126Q352.18027 310.5594 352.83652 309.98126Q353.5084 309.3875 353.78964 308.825L354.46152 308.825L354.46152 317.45ZM356.99277 317.59064L359.47714 308.71564L360.3209 308.71564L357.83652 317.59064L356.99277 317.59064ZM360.49277 313.21564Q360.49277 311.6844 360.80527 310.7625Q361.11777 309.825 361.72714 309.325Q362.35214 308.825 363.28964 308.825Q363.97714 308.825 364.49277 309.10626Q365.02402 309.3875 365.36777 309.91876Q365.71152 310.4344 365.89902 311.1844Q366.08652 311.9344 366.08652 313.21564Q366.08652 314.73126 365.77402 315.65314Q365.47714 316.575 364.85214 317.09064Q364.24277 317.59064 363.28964 317.59064Q362.05527 317.59064 361.33652 316.7Q360.49277 315.6375 360.49277 313.21564ZM361.5709 313.21564Q361.5709 315.325 362.0709 316.02814Q362.5709 316.73126 363.28964 316.73126Q364.02402 316.73126 364.5084 316.02814Q365.0084 315.325 365.0084 313.21564Q365.0084 311.09064 364.5084 310.40314Q364.02402 309.7 363.27402 309.7Q362.55527 309.7 362.11777 310.3094Q361.5709 311.09064 361.5709 313.21564ZM370.86777 317.45L370.86777 315.3875L367.14902 315.3875L367.14902 314.41876L371.0709 308.85626L371.93027 308.85626L371.93027 314.41876L373.08652 314.41876L373.08652 315.3875L371.93027 315.3875L371.93027 317.45L370.86777 317.45ZM370.86777 314.41876L370.86777 310.5594L368.18027 314.41876L370.86777 314.41876ZM373.99277 317.59064L376.47714 308.71564L377.3209 308.71564L374.83652 317.59064L373.99277 317.59064ZM383.03964 316.4344L383.03964 317.45L377.35214 317.45Q377.35214 317.075 377.47714 316.71564Q377.6959 316.1375 378.16464 315.575Q378.64902 315.0125 379.55527 314.27814Q380.96152 313.1219 381.4459 312.45Q381.9459 311.77814 381.9459 311.1844Q381.9459 310.5594 381.49277 310.1375Q381.03964 309.7 380.3209 309.7Q379.55527 309.7 379.10214 310.15314Q378.64902 310.60626 378.6334 311.41876L377.55527 311.3094Q377.66464 310.09064 378.3834 309.46564Q379.11777 308.825 380.35214 308.825Q381.58652 308.825 382.30527 309.5125Q383.02402 310.2 383.02402 311.21564Q383.02402 311.73126 382.80527 312.23126Q382.60214 312.71564 382.10214 313.27814Q381.61777 313.825 380.49277 314.77814Q379.53964 315.575 379.2584 315.8719Q378.99277 316.15314 378.8209 316.4344L383.03964 316.4344ZM384.49277 313.21564Q384.49277 311.6844 384.80527 310.7625Q385.11777 309.825 385.72714 309.325Q386.35214 308.825 387.28964 308.825Q387.97714 308.825 388.49277 309.10626Q389.02402 309.3875 389.36777 309.91876Q389.71152 310.4344 389.89902 311.1844Q390.08652 311.9344 390.08652 313.21564Q390.08652 314.73126 389.77402 315.65314Q389.47714 316.575 388.85214 317.09064Q388.24277 317.59064 387.28964 317.59064Q386.05527 317.59064 385.33652 316.7Q384.49277 315.6375 384.49277 313.21564ZM385.5709 313.21564Q385.5709 315.325 386.0709 316.02814Q386.5709 316.73126 387.28964 316.73126Q388.02402 316.73126 388.5084 316.02814Q389.0084 315.325 389.0084 313.21564Q389.0084 311.09064 388.5084 310.40314Q388.02402 309.7 387.27402 309.7Q386.55527 309.7 386.11777 310.3094Q385.5709 311.09064 385.5709 313.21564ZM397.03964 316.4344L397.03964 317.45L391.35214 317.45Q391.35214 317.075 391.47714 316.71564Q391.6959 316.1375 392.16464 315.575Q392.64902 315.0125 393.55527 314.27814Q394.96152 313.1219 395.4459 312.45Q395.9459 311.77814 395.9459 311.1844Q395.9459 310.5594 395.49277 310.1375Q395.03964 309.7 394.3209 309.7Q393.55527 309.7 393.10214 310.15314Q392.64902 310.60626 392.6334 311.41876L391.55527 311.3094Q391.66464 310.09064 392.3834 309.46564Q393.11777 308.825 394.35214 308.825Q395.58652 308.825 396.30527 309.5125Q397.02402 310.2 397.02402 311.21564Q397.02402 311.73126 396.80527 312.23126Q396.60214 312.71564 396.10214 313.27814Q395.61777 313.825 394.49277 314.77814Q393.53964 315.575 393.2584 315.8719Q392.99277 316.15314 392.8209 316.4344L397.03964 316.4344ZM398.49277 315.2L399.60214 315.10626Q399.72714 315.91876 400.16464 316.325Q400.61777 316.73126 401.2584 316.73126Q402.0084 316.73126 402.53964 316.15314Q403.0709 315.575 403.0709 314.6375Q403.0709 313.73126 402.55527 313.21564Q402.05527 312.6844 401.22714 312.6844Q400.72714 312.6844 400.30527 312.91876Q399.89902 313.15314 399.66464 313.5125L398.68027 313.3875L399.5084 308.98126L403.78964 308.98126L403.78964 309.98126L400.35214 309.98126L399.89902 312.29376Q400.66464 311.7469 401.5084 311.7469Q402.6334 311.7469 403.39902 312.52814Q404.18027 313.3094 404.18027 314.54376Q404.18027 315.7 403.5084 316.5594Q402.68027 317.59064 401.2584 317.59064Q400.08652 317.59064 399.33652 316.9344Q398.60214 316.27814 398.49277 315.2Z" fill-rule="nonzero"/><path fill="#000000" d="M467.69415 313.21564Q467.69415 311.6844 468.00665 310.7625Q468.31915 309.825 468.92853 309.325Q469.55353 308.825 470.49103 308.825Q471.17853 308.825 471.69415 309.10626Q472.2254 309.3875 472.56915 309.91876Q472.9129 310.4344 473.1004 311.1844Q473.2879 311.9344 473.2879 313.21564Q473.2879 314.73126 472.9754 315.65314Q472.67853 316.575 472.05353 317.09064Q471.44415 317.59064 470.49103 317.59064Q469.25665 317.59064 468.5379 316.7Q467.69415 315.6375 467.69415 313.21564ZM468.77228 313.21564Q468.77228 315.325 469.27228 316.02814Q469.77228 316.73126 470.49103 316.73126Q471.2254 316.73126 471.70978 316.02814Q472.20978 315.325 472.20978 313.21564Q472.20978 311.09064 471.70978 310.40314Q471.2254 309.7 470.4754 309.7Q469.75665 309.7 469.31915 310.3094Q468.77228 311.09064 468.77228 313.21564ZM478.6629 317.45L477.61603 317.45L477.61603 310.73126Q477.2254 311.09064 476.6004 311.46564Q475.99103 311.825 475.50665 311.9969L475.50665 310.98126Q476.38165 310.5594 477.0379 309.98126Q477.70978 309.3875 477.99103 308.825L478.6629 308.825L478.6629 317.45ZM481.19415 317.59064L483.67853 308.71564L484.52228 308.71564L482.0379 317.59064L481.19415 317.59064ZM484.69415 313.21564Q484.69415 311.6844 485.00665 310.7625Q485.31915 309.825 485.92853 309.325Q486.55353 308.825 487.49103 308.825Q488.17853 308.825 488.69415 309.10626Q489.2254 309.3875 489.56915 309.91876Q489.9129 310.4344 490.1004 311.1844Q490.2879 311.9344 490.2879 313.21564Q490.2879 314.73126 489.9754 315.65314Q489.67853 316.575 489.05353 317.09064Q488.44415 317.59064 487.49103 317.59064Q486.25665 317.59064 485.5379 316.7Q484.69415 315.6375 484.69415 313.21564ZM485.77228 313.21564Q485.77228 315.325 486.27228 316.02814Q486.77228 316.73126 487.49103 316.73126Q488.2254 316.73126 488.70978 316.02814Q489.20978 315.325 489.20978 313.21564Q489.20978 311.09064 488.70978 310.40314Q488.2254 309.7 487.4754 309.7Q486.75665 309.7 486.31915 310.3094Q485.77228 311.09064 485.77228 313.21564ZM491.75665 309.98126L491.75665 308.96564L497.31915 308.96564L497.31915 309.79376Q496.50665 310.66876 495.69415 312.1219Q494.89728 313.5594 494.45978 315.09064Q494.13165 316.16876 494.05353 317.45L492.95978 317.45Q492.9754 316.4344 493.3504 314.9969Q493.74103 313.5594 494.44415 312.23126Q495.1629 310.90314 495.9754 309.98126L491.75665 309.98126ZM498.19415 317.59064L500.67853 308.71564L501.52228 308.71564L499.0379 317.59064L498.19415 317.59064ZM507.24103 316.4344L507.24103 317.45L501.55353 317.45Q501.55353 317.075 501.67853 316.71564Q501.89728 316.1375 502.36603 315.575Q502.8504 315.0125 503.75665 314.27814Q505.1629 313.1219 505.64728 312.45Q506.14728 311.77814 506.14728 311.1844Q506.14728 310.5594 505.69415 310.1375Q505.24103 309.7 504.52228 309.7Q503.75665 309.7 503.30353 310.15314Q502.8504 310.60626 502.83478 311.41876L501.75665 311.3094Q501.86603 310.09064 502.58478 309.46564Q503.31915 308.825 504.55353 308.825Q505.7879 308.825 506.50665 309.5125Q507.2254 310.2 507.2254 311.21564Q507.2254 311.73126 507.00665 312.23126Q506.80353 312.71564 506.30353 313.27814Q505.81915 313.825 504.69415 314.77814Q503.74103 315.575 503.45978 315.8719Q503.19415 316.15314 503.02228 316.4344L507.24103 316.4344ZM508.69415 313.21564Q508.69415 311.6844 509.00665 310.7625Q509.31915 309.825 509.92853 309.325Q510.55353 308.825 511.49103 308.825Q512.1785 308.825 512.69415 309.10626Q513.2254 309.3875 513.56915 309.91876Q513.9129 310.4344 514.1004 311.1844Q514.2879 311.9344 514.2879 313.21564Q514.2879 314.73126 513.9754 315.65314Q513.6785 316.575 513.0535 317.09064Q512.44415 317.59064 511.49103 317.59064Q510.25665 317.59064 509.5379 316.7Q508.69415 315.6375 508.69415 313.21564ZM509.77228 313.21564Q509.77228 315.325 510.27228 316.02814Q510.77228 316.73126 511.49103 316.73126Q512.2254 316.73126 512.7098 316.02814Q513.2098 315.325 513.2098 313.21564Q513.2098 311.09064 512.7098 310.40314Q512.2254 309.7 511.4754 309.7Q510.75665 309.7 510.31915 310.3094Q509.77228 311.09064 509.77228 313.21564ZM521.241 316.4344L521.241 317.45L515.5535 317.45Q515.5535 317.075 515.6785 316.71564Q515.8973 316.1375 516.366 315.575Q516.8504 315.0125 517.75665 314.27814Q519.1629 313.1219 519.6473 312.45Q520.1473 311.77814 520.1473 311.1844Q520.1473 310.5594 519.69415 310.1375Q519.241 309.7 518.5223 309.7Q517.75665 309.7 517.3035 310.15314Q516.8504 310.60626 516.8348 311.41876L515.75665 311.3094Q515.866 310.09064 516.5848 309.46564Q517.31915 308.825 518.5535 308.825Q519.7879 308.825 520.50665 309.5125Q521.2254 310.2 521.2254 311.21564Q521.2254 311.73126 521.00665 312.23126Q520.8035 312.71564 520.3035 313.27814Q519.81915 313.825 518.69415 314.77814Q517.741 315.575 517.4598 315.8719Q517.19415 316.15314 517.0223 316.4344L521.241 316.4344ZM522.69415 315.2L523.8035 315.10626Q523.9285 315.91876 524.366 316.325Q524.81915 316.73126 525.4598 316.73126Q526.2098 316.73126 526.741 316.15314Q527.2723 315.575 527.2723 314.6375Q527.2723 313.73126 526.75665 313.21564Q526.25665 312.6844 525.4285 312.6844Q524.9285 312.6844 524.50665 312.91876Q524.1004 313.15314 523.866 313.5125L522.88165 313.3875L523.7098 308.98126L527.991 308.98126L527.991 309.98126L524.5535 309.98126L524.1004 312.29376Q524.866 311.7469 525.7098 311.7469Q526.8348 311.7469 527.6004 312.52814Q528.38165 313.3094 528.38165 314.54376Q528.38165 315.7 527.7098 316.5594Q526.88165 317.59064 525.4598 317.59064Q524.2879 317.59064 523.5379 316.9344Q522.8035 316.27814 522.69415 315.2Z" fill-rule="nonzero"/></svg>