<svg version="1.1" viewBox="0.0 0.0 600.0 371.0" fill="none" stroke="none" stroke-linecap="square" stroke-miterlimit="10" width="600" height="371" xmlns:xlink="http://www.w3.org/1999/xlink" xmlns="http://www.w3.org/2000/svg"><path fill="#ffffff" d="M0 0L600.0 0L600.0 371.0L0 371.0L0 0Z" fill-rule="nonzero"/><path stroke="#cccccc" stroke-width="1.0" stroke-linecap="butt" d="M122.5 25.5L122.5 300.5" fill-rule="nonzero"/><path stroke="#cccccc" stroke-width="1.0" stroke-linecap="butt" d="M239.5 25.5L239.5 300.5" fill-rule="nonzero"/><path stroke="#cccccc" stroke-width="1.0" stroke-linecap="butt" d="M353.5 25.5L353.5 300.5" fill-rule="nonzero"/><path stroke="#cccccc" stroke-width="1.0" stroke-linecap="butt" d="M468.5 25.5L468.5 300.5" fill-rule="nonzero"/><path stroke="#cccccc" stroke-width="1.0" stroke-linecap="butt" d="M80.5 300.5L581.5 300.5" fill-rule="nonzero"/><path stroke="#cccccc" stroke-width="1.0" stroke-linecap="butt" d="M80.5 231.5L581.5 231.5" fill-rule="nonzero"/><path stroke="#cccccc" stroke-width="1.0" stroke-linecap="butt" d="M80.5 163.5L581.5 163.5" fill-rule="nonzero"/><path stroke="#cccccc" stroke-width="1.0" stroke-linecap="butt" d="M80.5 94.5L581.5 94.5" fill-rule="nonzero"/><path stroke="#cccccc" stroke-width="1.0" stroke-linecap="butt" d="M80.5 25.5L581.5 25.5" fill-rule="nonzero"/><clipPath id="id_0"><path d="M80.55 25.55L581.45 25.55L581.45 300.45L80.55 300.45L80.55 25.55Z" clip-rule="nonzero"/></clipPath><path stroke="#4285f4" stroke-width="2.0" stroke-linecap="butt" clip-path="url(#id_0)" d="M80.55 68.03387L89.42671 70.821526L98.30342 74.07379L110.98443 79.6491L119.86114 86.61824L128.73785 92.65816L137.61456 91.72894" fill-rule="nonzero"/><path stroke="#4285f4" stroke-width="2.0" stroke-linecap="butt" stroke-opacity="0.4" clip-path="url(#id_0)" d="M0 26.038076C0 26.038076 2.6666667 27.44899 4.0 28.15212C5.3333335 28.855253 6.6666665 29.556828 8.0 30.256866C9.333333 30.956903 10.666667 31.655394 12.0 32.352352C13.333333 33.049313 14.666667 33.744728 16.0 34.43862C17.333334 35.132515 18.666666 35.82487 20.0 36.515713C21.333334 37.20655 22.666666 37.895863 24.0 38.583664C25.333334 39.271465 26.666666 39.957745 28.0 40.64252C29.333334 41.327297 30.666666 42.01056 32.0 42.69232C33.333332 43.37409 34.666668 44.05434 36.0 44.73311C37.333332 45.411873 38.666668 46.089134 40.0 46.764915C41.333332 47.440693 42.666668 48.114975 44.0 48.787785C45.333332 49.46059 46.666668 50.13191 48.0 50.801754C49.333332 51.4716 50.666668 52.139965 52.0 52.806866C53.333332 53.473766 54.666668 54.13919 56.0 54.803158C57.333332 55.467125 58.666668 56.12962 60.0 56.790665C61.333332 57.451714 62.666668 58.111294 64.0 58.769432C65.333336 59.42757 66.666664 60.08425 68.0 60.739494C69.333336 61.39474 70.666664 62.04853 72.0 62.700893C73.333336 63.353252 74.666664 64.00417 76.0 64.65366C77.333336 65.303154 78.666664 65.9512 80.0 66.59784C81.333336 67.24448 82.666664 67.88968 84.0 68.53346C85.333336 69.17725 86.666664 69.81962 88.0 70.46058C89.333336 71.10154 90.666664 71.74107 92.0 72.37921C93.333336 73.01735 94.666664 73.654076 96.0 74.289406C97.333336 74.924736 98.666664 75.55866 100.0 76.1912C101.333336 76.82374 102.666664 77.45487 104.0 78.084625C105.333336 78.71438 106.666664 79.34274 108.0 79.96973C109.333336 80.59671 110.666664 81.222305 112.0 81.84653C113.333336 82.47076 114.666664 83.0936 116.0 83.71508C117.333336 84.336555 118.666664 84.956665 120.0 85.57541C121.333336 86.19415 122.666664 86.81153 124.0 87.42755C125.333336 88.04358 126.666664 88.65824 128.0 89.27155C129.33333 89.884865 130.66667 90.496826 132.0 91.10744C133.33333 91.718056 134.66667 92.327324 136.0 92.93525C137.33333 93.54318 138.66667 94.149765 140.0 94.75502C141.33333 95.36028 142.66667 95.964195 144.0 96.56679C145.33333 97.16939 146.66667 97.770645 148.0 98.37059C149.33333 98.97053 150.66667 99.569145 152.0 100.16645C153.33333 100.763756 154.66667 101.35973 156.0 101.954414C157.33333 102.54909 158.66667 103.14245 160.0 103.734505C161.33333 104.32657 162.66667 104.91732 164.0 105.506775C165.33333 106.09623 166.66667 106.68438 168.0 107.27125C169.33333 107.85811 170.66667 108.44367 172.0 109.027954C173.33333 109.612236 174.66667 110.19522 176.0 110.77694C177.33333 111.35865 178.66667 111.93907 180.0 112.51823C181.33333 113.097374 182.66667 113.67525 184.0 114.251854C185.33333 114.82846 186.66667 115.403786 188.0 115.97785C189.33333 116.551926 190.66667 117.12472 192.0 117.696266C193.33333 118.26781 194.66667 118.83809 196.0 119.40711C197.33333 119.97614 198.66667 120.543915 200.0 121.11044C201.33333 121.67696 202.66667 122.24224 204.0 122.806274C205.33333 123.37031 206.66667 123.93309 208.0 124.494644C209.33333 125.0562 210.66667 125.61651 212.0 126.17559C213.33333 126.73467 214.66667 127.29252 216.0 127.849144C217.33333 128.40576 218.66667 128.96115 220.0 129.51534C221.33333 130.0695 222.66667 130.62245 224.0 131.1742C225.33333 131.72592 226.66667 132.27644 228.0 132.82576C229.33333 133.37506 230.66667 133.92316 232.0 134.47005C233.33333 135.01694 234.66667 135.56262 236.0 136.10712C237.33333 136.6516 238.66667 137.19489 240.0 137.73698C241.33333 138.27907 242.66667 138.81996 244.0 139.35968C245.33333 139.89938 246.66667 140.4379 248.0 140.97523C249.33333 141.51256 250.66667 142.0487 252.0 142.58368C253.33333 143.11865 254.66667 143.65244 256.0 144.18506C257.33334 144.71767 258.66666 145.2491 260.0 145.77939C261.33334 146.30966 262.66666 146.83876 264.0 147.3667C265.33334 147.89464 266.66666 148.42142 268.0 148.94704C269.33334 149.47266 270.66666 149.9971 272.0 150.52042C273.33334 151.04372 274.66666 151.56587 276.0 152.08687C277.33334 152.60788 278.66666 153.12773 280.0 153.64644C281.33334 154.16516 282.66666 154.68272 284.0 155.19916C285.33334 155.71559 286.66666 156.23088 288.0 156.74504C289.33334 157.2592 290.66666 157.77222 292.0 158.28412C293.33334 158.79602 294.66666 159.30678 296.0 159.81642C297.33334 160.32607 298.66666 160.8346 300.0 161.342C301.33334 161.8494 302.66666 162.35568 304.0 162.86086C305.33334 163.36603 306.66666 163.87009 308.0 164.37303C309.33334 164.87598 310.66666 165.37782 312.0 165.87856C313.33334 166.37929 314.66666 166.87892 316.0 167.37746C317.33334 167.87599 318.66666 168.37343 320.0 168.86977C321.33334 169.3661 322.66666 169.86136 324.0 170.35551C325.33334 170.84967 326.66666 171.34273 328.0 171.83472C329.33334 172.3267 330.66666 172.8176 332.0 173.30742C333.33334 173.79724 334.66666 174.28598 336.0 174.77365C337.33334 175.2613 338.66666 175.7479 340.0 176.23341C341.33334 176.71895 342.66666 177.20338 344.0 177.68677C345.33334 178.17015 346.66666 178.65247 348.0 179.13373C349.33334 179.61499 350.66666 180.09518 352.0 180.57433C353.33334 181.05347 354.66666 181.53156 356.0 182.00859C357.33334 182.48563 358.66666 182.9616 360.0 183.43654C361.33334 183.91147 362.66666 184.38536 364.0 184.8582C365.33334 185.33104 366.66666 185.80284 368.0 186.27362C369.33334 186.74438 370.66666 187.21411 372.0 187.6828C373.33334 188.15149 374.66666 188.61916 376.0 189.08578C377.33334 189.55243 378.66666 190.01802 380.0 190.4826C381.33334 190.94719 382.66666 191.41074 384.0 191.87328C385.33334 192.33582 386.66666 192.79733 388.0 193.25783C389.33334 193.71834 390.66666 194.17783 392.0 194.63629C393.33334 195.09477 394.66666 195.55223 396.0 196.0087C397.33334 196.46516 398.66666 196.92061 400.0 197.37506C401.33334 197.82951 402.66666 198.28296 404.0 198.73541C405.33334 199.18787 406.66666 199.63931 408.0 200.08978C409.33334 200.54025 410.66666 200.98972 412.0 201.4382C413.33334 201.88667 414.66666 202.33417 416.0 202.78067C417.33334 203.22719 418.66666 203.6727 420.0 204.11725C421.33334 204.5618 422.66666 205.00536 424.0 205.44795C425.33334 205.89053 426.66666 206.33214 428.0 206.77278C429.33334 207.21342 430.66666 207.65309 432.0 208.0918C433.33334 208.5305 434.66666 208.96823 436.0 209.40501C437.33334 209.84178 438.66666 210.27759 440.0 210.71245C441.33334 211.1473 442.66666 211.58119 444.0 212.01413C445.33334 212.44707 446.66666 212.87906 448.0 213.31009C449.33334 213.74112 450.66666 214.1712 452.0 214.60034C453.33334 215.02948 454.66666 215.45767 456.0 215.88493C457.33334 216.31218 458.66666 216.73848 460.0 217.16386C461.33334 217.58923 462.66666 218.01366 464.0 218.43716C465.33334 218.86066 466.66666 219.28323 468.0 219.70486C469.33334 220.12651 470.66666 220.54721 472.0 220.967C473.33334 221.38678 474.66666 221.80563 476.0 222.22357C477.33334 222.64151 478.66666 223.05852 480.0 223.47461C481.33334 223.89072 482.66666 224.3059 484.0 224.72015C485.33334 225.13443 486.66666 225.54778 488.0 225.96022C489.33334 226.37267 490.66666 226.78421 492.0 227.19484C493.33334 227.60547 494.66666 228.01518 496.0 228.42401C497.33334 228.83284 498.66666 229.24075 500.0 229.64778C501.33334 230.05481 502.66666 230.46094 504.0 230.86618C505.33334 231.27141 506.66666 231.67575 508.0 232.07921C509.33334 232.48267 510.66666 232.88522 512.0 233.2869C513.3333 233.68858 514.6667 234.08937 516.0 234.48929C517.3333 234.88919 518.6667 235.28822 520.0 235.68637C521.3333 236.08453 522.6667 236.4818 524.0 236.8782C525.3333 237.2746 526.6667 237.67012 528.0 238.06479C529.3333 238.45944 530.6667 238.85323 532.0 239.24615C533.3333 239.63907 534.6667 240.03113 536.0 240.42232C537.3333 240.8135 538.6667 241.20384 540.0 241.5933C541.3333 241.98279 542.6667 242.3714 544.0 242.75916C545.3333 243.14691 546.6667 243.53381 548.0 243.91986C549.3333 244.30592 550.6667 244.69112 552.0 245.07547C553.3333 245.45982 554.6667 245.84334 556.0 246.226C557.3333 246.60866 558.6667 246.99048 560.0 247.37146C561.3333 247.75244 562.6667 248.13258 564.0 248.51189C565.3333 248.89119 566.6667 249.26965 568.0 249.6473C569.3333 250.02493 570.6667 250.40173 572.0 250.77771C573.3333 251.15369 574.6667 251.52882 576.0 251.90315C577.3333 252.27747 580.0 253.02364 580.0 253.02364" fill-rule="nonzero"/><path fill="#000000" fill-opacity="0.0" clip-path="url(#id_0)" d="M83.55 68.03387C83.55 69.69073 82.206856 71.03387 80.55 71.03387C78.89314 71.03387 77.55 69.69073 77.55 68.03387C77.55 66.377014 78.89314 65.03387 80.55 65.03387C82.206856 65.03387 83.55 66.377014 83.55 68.03387Z" fill-rule="nonzero"/><path fill="#000000" fill-opacity="0.0" clip-path="url(#id_0)" d="M92.42671 70.821526C92.42671 72.47838 91.083565 73.821526 89.42671 73.821526C87.76985 73.821526 86.42671 72.47838 86.42671 70.821526C86.42671 69.16467 87.76985 67.821526 89.42671 67.821526C91.083565 67.821526 92.42671 69.16467 92.42671 70.821526Z" fill-rule="nonzero"/><path fill="#000000" fill-opacity="0.0" clip-path="url(#id_0)" d="M101.30342 74.07379C101.30342 75.730644 99.96027 77.07379 98.30342 77.07379C96.64656 77.07379 95.30342 75.730644 95.30342 74.07379C95.30342 72.41694 96.64656 71.07379 98.30342 71.07379C99.96027 71.07379 101.30342 72.41694 101.30342 74.07379Z" fill-rule="nonzero"/><path fill="#000000" fill-opacity="0.0" clip-path="url(#id_0)" d="M113.98443 79.6491C113.98443 81.305954 112.64128 82.6491 110.98443 82.6491C109.327576 82.6491 107.98443 81.305954 107.98443 79.6491C107.98443 77.99225 109.327576 76.6491 110.98443 76.6491C112.64128 76.6491 113.98443 77.99225 113.98443 79.6491Z" fill-rule="nonzero"/><path fill="#000000" fill-opacity="0.0" clip-path="url(#id_0)" d="M122.86114 86.61824C122.86114 88.27509 121.51799 89.61824 119.86114 89.61824C118.204285 89.61824 116.86114 88.27509 116.86114 86.61824C116.86114 84.96139 118.204285 83.61824 119.86114 83.61824C121.51799 83.61824 122.86114 84.96139 122.86114 86.61824Z" fill-rule="nonzero"/><path fill="#000000" fill-opacity="0.0" clip-path="url(#id_0)" d="M131.73785 92.65816C131.73785 94.31502 130.3947 95.65816 128.73785 95.65816C127.08099 95.65816 125.73785 94.31502 125.73785 92.65816C125.73785 91.001305 127.08099 89.65816 128.73785 89.65816C130.3947 89.65816 131.73785 91.001305 131.73785 92.65816Z" fill-rule="nonzero"/><path fill="#000000" fill-opacity="0.0" clip-path="url(#id_0)" d="M140.61456 91.72894C140.61456 93.385796 139.27141 94.72894 137.61456 94.72894C135.9577 94.72894 134.61456 93.385796 134.61456 91.72894C134.61456 90.07209 135.9577 88.72894 137.61456 88.72894C139.27141 88.72894 140.61456 90.07209 140.61456 91.72894Z" fill-rule="nonzero"/><path fill="#000000" d="M318.92188 349.45L318.92188 340.85626L321.89062 340.85626Q322.89062 340.85626 323.42188 340.98126Q324.15625 341.15314 324.67188 341.59064Q325.35938 342.16876 325.6875 343.075Q326.03125 343.96564 326.03125 345.10626Q326.03125 346.09064 325.79688 346.84064Q325.57812 347.59064 325.21875 348.09064Q324.85938 348.59064 324.42188 348.8719Q324.0 349.15314 323.40625 349.3094Q322.8125 349.45 322.03125 349.45L318.92188 349.45ZM320.0625 348.4344L321.89062 348.4344Q322.75 348.4344 323.23438 348.27814Q323.71875 348.1219 324.0 347.825Q324.40625 347.4344 324.625 346.7469Q324.85938 346.0594 324.85938 345.09064Q324.85938 343.7469 324.40625 343.02814Q323.96875 342.29376 323.34375 342.04376Q322.875 341.8719 321.875 341.8719L320.0625 341.8719L320.0625 348.4344ZM331.85938 348.6844Q331.26562 349.1844 330.71875 349.3875Q330.1875 349.59064 329.5625 349.59064Q328.53125 349.59064 327.98438 349.09064Q327.4375 348.59064 327.4375 347.8094Q327.4375 347.35626 327.64062 346.98126Q327.84375 346.59064 328.1875 346.3719Q328.53125 346.1375 328.95312 346.02814Q329.25 345.9344 329.89062 345.85626Q331.15625 345.71564 331.76562 345.4969Q331.76562 345.27814 331.76562 345.23126Q331.76562 344.575 331.46875 344.3094Q331.0625 343.96564 330.26562 343.96564Q329.53125 343.96564 329.17188 344.23126Q328.8125 344.48126 328.64062 345.1375L327.60938 344.9969Q327.75 344.34064 328.07812 343.9344Q328.40625 343.52814 329.01562 343.3094Q329.625 343.09064 330.42188 343.09064Q331.21875 343.09064 331.71875 343.27814Q332.21875 343.46564 332.45312 343.7469Q332.6875 344.02814 332.78125 344.46564Q332.82812 344.73126 332.82812 345.4344L332.82812 346.84064Q332.82812 348.3094 332.89062 348.7Q332.96875 349.09064 333.17188 349.45L332.0625 349.45Q331.90625 349.1219 331.85938 348.6844ZM331.76562 346.325Q331.1875 346.5594 330.04688 346.73126Q329.39062 346.825 329.125 346.95Q328.85938 347.0594 328.70312 347.27814Q328.5625 347.4969 328.5625 347.77814Q328.5625 348.2 328.875 348.48126Q329.20312 348.7625 329.8125 348.7625Q330.42188 348.7625 330.89062 348.4969Q331.375 348.23126 331.59375 347.7625Q331.76562 347.40314 331.76562 346.71564L331.76562 346.325ZM337.09375 348.5125L337.25 349.4344Q336.79688 349.52814 336.45312 349.52814Q335.875 349.52814 335.5625 349.35626Q335.25 349.16876 335.10938 348.8719Q334.98438 348.575 334.98438 347.6219L334.98438 344.04376L334.21875 344.04376L334.21875 343.23126L334.98438 343.23126L334.98438 341.6844L336.03125 341.0594L336.03125 343.23126L337.09375 343.23126L337.09375 344.04376L336.03125 344.04376L336.03125 347.6844Q336.03125 348.1375 336.07812 348.2625Q336.14062 348.3875 336.26562 348.46564Q336.39062 348.54376 336.625 348.54376Q336.8125 348.54376 337.09375 348.5125ZM342.04688 347.45L343.14062 347.575Q342.89062 348.52814 342.1875 349.0594Q341.48438 349.59064 340.40625 349.59064Q339.04688 349.59064 338.23438 348.7469Q337.4375 347.90314 337.4375 346.3875Q337.4375 344.825 338.25 343.96564Q339.0625 343.09064 340.34375 343.09064Q341.59375 343.09064 342.375 343.9344Q343.17188 344.77814 343.17188 346.325Q343.17188 346.41876 343.17188 346.60626L338.53125 346.60626Q338.59375 347.6375 339.10938 348.1844Q339.625 348.71564 340.40625 348.71564Q340.98438 348.71564 341.39062 348.41876Q341.8125 348.10626 342.04688 347.45ZM338.59375 345.7469L342.0625 345.7469Q342.0 344.95 341.67188 344.5594Q341.15625 343.95 340.35938 343.95Q339.625 343.95 339.125 344.4344Q338.64062 344.91876 338.59375 345.7469Z" fill-rule="nonzero"/><path fill="#000000" d="M29.550013 178.625L20.956263 178.625L20.956263 175.39062Q20.956263 174.40625 21.221888 173.8125Q21.487513 173.21875 22.034388 172.89062Q22.565638 172.54688 23.159388 172.54688Q23.706263 172.54688 24.190638 172.84375Q24.675013 173.14062 24.971888 173.75Q25.206263 172.96875 25.768763 172.5625Q26.315638 172.14062 27.065638 172.14062Q27.659388 172.14062 28.190638 172.39062Q28.706263 172.64062 28.987513 173.01562Q29.268763 173.39062 29.409388 173.96875Q29.550013 174.53125 29.550013 175.34375L29.550013 178.625ZM24.565638 177.48438L24.565638 175.625Q24.565638 174.875 24.471888 174.54688Q24.346888 174.10938 24.050013 173.89062Q23.737513 173.67188 23.284388 173.67188Q22.862513 173.67188 22.534388 173.875Q22.206263 174.07812 22.096888 174.46875Q21.971888 174.84375 21.971888 175.76562L21.971888 177.48438L24.565638 177.48438ZM28.534388 177.48438L28.534388 175.34375Q28.534388 174.79688 28.487513 174.57812Q28.425013 174.17188 28.268763 173.92188Q28.096888 173.65625 27.784388 173.48438Q27.471888 173.3125 27.065638 173.3125Q26.581263 173.3125 26.221888 173.5625Q25.862513 173.79688 25.721888 174.23438Q25.581263 174.67188 25.581263 175.5L25.581263 177.48438L28.534388 177.48438ZM29.550013 170.60938L20.956263 170.60938L20.956263 168.89062L27.034388 166.85938Q27.893763 166.57812 28.315638 166.45312Q27.846888 166.3125 26.940638 166.0L20.956263 163.9375L20.956263 162.40625L29.550013 162.40625L29.550013 163.5L22.362513 163.5L29.550013 166.0L29.550013 167.03125L22.237513 169.51562L29.550013 169.51562L29.550013 170.60938ZM29.550013 161.375L20.956263 161.375L20.956263 160.25L29.550013 160.25L29.550013 161.375Z" fill-rule="nonzero"/><path fill="#000000" d="M55.01875 304.45L53.971874 304.45L53.971874 297.73126Q53.58125 298.09064 52.95625 298.46564Q52.346874 298.825 51.8625 298.9969L51.8625 297.98126Q52.7375 297.5594 53.39375 296.98126Q54.065624 296.3875 54.346874 295.825L55.01875 295.825L55.01875 304.45ZM58.05 302.2L59.159374 302.10626Q59.284374 302.91876 59.721874 303.325Q60.175 303.73126 60.815624 303.73126Q61.565624 303.73126 62.096874 303.15314Q62.628124 302.575 62.628124 301.6375Q62.628124 300.73126 62.1125 300.21564Q61.6125 299.6844 60.784374 299.6844Q60.284374 299.6844 59.8625 299.91876Q59.45625 300.15314 59.221874 300.5125L58.2375 300.3875L59.065624 295.98126L63.346874 295.98126L63.346874 296.98126L59.909374 296.98126L59.45625 299.29376Q60.221874 298.7469 61.065624 298.7469Q62.190624 298.7469 62.95625 299.52814Q63.7375 300.3094 63.7375 301.54376Q63.7375 302.7 63.065624 303.5594Q62.2375 304.59064 60.815624 304.59064Q59.64375 304.59064 58.89375 303.9344Q58.159374 303.27814 58.05 302.2ZM65.64375 304.45L65.64375 303.2469L66.84688 303.2469L66.84688 304.45L65.64375 304.45ZM68.05 300.21564Q68.05 298.6844 68.3625 297.7625Q68.675 296.825 69.28438 296.325Q69.90938 295.825 70.84688 295.825Q71.53438 295.825 72.05 296.10626Q72.58125 296.3875 72.925 296.91876Q73.26875 297.4344 73.45625 298.1844Q73.64375 298.9344 73.64375 300.21564Q73.64375 301.73126 73.33125 302.65314Q73.03438 303.575 72.40938 304.09064Q71.8 304.59064 70.84688 304.59064Q69.6125 304.59064 68.89375 303.7Q68.05 302.6375 68.05 300.21564ZM69.12813 300.21564Q69.12813 302.325 69.62813 303.02814Q70.12813 303.73126 70.84688 303.73126Q71.58125 303.73126 72.06563 303.02814Q72.56563 302.325 72.56563 300.21564Q72.56563 298.09064 72.06563 297.40314Q71.58125 296.7 70.83125 296.7Q70.1125 296.7 69.675 297.3094Q69.12813 298.09064 69.12813 300.21564Z" fill-rule="nonzero"/><path fill="#000000" d="M56.596874 234.70938L56.596874 235.725L50.909374 235.725Q50.909374 235.35 51.034374 234.99063Q51.253124 234.4125 51.721874 233.85Q52.20625 233.2875 53.1125 232.55313Q54.51875 231.39688 55.003124 230.725Q55.503124 230.05313 55.503124 229.45938Q55.503124 228.83438 55.05 228.4125Q54.596874 227.975 53.878124 227.975Q53.1125 227.975 52.659374 228.42813Q52.20625 228.88126 52.190624 229.69376L51.1125 229.58438Q51.221874 228.36563 51.940624 227.74063Q52.675 227.1 53.909374 227.1Q55.14375 227.1 55.8625 227.7875Q56.58125 228.475 56.58125 229.49063Q56.58125 230.00626 56.3625 230.50626Q56.159374 230.99063 55.659374 231.55313Q55.175 232.1 54.05 233.05313Q53.096874 233.85 52.815624 234.14688Q52.55 234.42813 52.378124 234.70938L56.596874 234.70938ZM58.05 231.49063Q58.05 229.95938 58.3625 229.0375Q58.675 228.1 59.284374 227.6Q59.909374 227.1 60.846874 227.1Q61.534374 227.1 62.05 227.38126Q62.58125 227.6625 62.925 228.19376Q63.26875 228.70938 63.45625 229.45938Q63.64375 230.20938 63.64375 231.49063Q63.64375 233.00626 63.33125 233.92813Q63.034374 234.85 62.409374 235.36563Q61.8 235.86563 60.846874 235.86563Q59.6125 235.86563 58.89375 234.975Q58.05 233.9125 58.05 231.49063ZM59.128124 231.49063Q59.128124 233.6 59.628124 234.30313Q60.128124 235.00626 60.846874 235.00626Q61.58125 235.00626 62.065624 234.30313Q62.565624 233.6 62.565624 231.49063Q62.565624 229.36563 62.065624 228.67813Q61.58125 227.975 60.83125 227.975Q60.1125 227.975 59.675 228.58438Q59.128124 229.36563 59.128124 231.49063ZM65.64375 235.725L65.64375 234.52188L66.84688 234.52188L66.84688 235.725L65.64375 235.725ZM68.05 231.49063Q68.05 229.95938 68.3625 229.0375Q68.675 228.1 69.28438 227.6Q69.90938 227.1 70.84688 227.1Q71.53438 227.1 72.05 227.38126Q72.58125 227.6625 72.925 228.19376Q73.26875 228.70938 73.45625 229.45938Q73.64375 230.20938 73.64375 231.49063Q73.64375 233.00626 73.33125 233.92813Q73.03438 234.85 72.40938 235.36563Q71.8 235.86563 70.84688 235.86563Q69.6125 235.86563 68.89375 234.975Q68.05 233.9125 68.05 231.49063ZM69.12813 231.49063Q69.12813 233.6 69.62813 234.30313Q70.12813 235.00626 70.84688 235.00626Q71.58125 235.00626 72.06563 234.30313Q72.56563 233.6 72.56563 231.49063Q72.56563 229.36563 72.06563 228.67813Q71.58125 227.975 70.83125 227.975Q70.1125 227.975 69.675 228.58438Q69.12813 229.36563 69.12813 231.49063Z" fill-rule="nonzero"/><path fill="#000000" d="M56.596874 165.98438L56.596874 167.0L50.909374 167.0Q50.909374 166.625 51.034374 166.26562Q51.253124 165.6875 51.721874 165.125Q52.20625 164.5625 53.1125 163.82812Q54.51875 162.67188 55.003124 162.0Q55.503124 161.32812 55.503124 160.73438Q55.503124 160.10938 55.05 159.6875Q54.596874 159.25 53.878124 159.25Q53.1125 159.25 52.659374 159.70312Q52.20625 160.15625 52.190624 160.96875L51.1125 160.85938Q51.221874 159.64062 51.940624 159.01562Q52.675 158.375 53.909374 158.375Q55.14375 158.375 55.8625 159.0625Q56.58125 159.75 56.58125 160.76562Q56.58125 161.28125 56.3625 161.78125Q56.159374 162.26562 55.659374 162.82812Q55.175 163.375 54.05 164.32812Q53.096874 165.125 52.815624 165.42188Q52.55 165.70312 52.378124 165.98438L56.596874 165.98438ZM58.05 164.75L59.159374 164.65625Q59.284374 165.46875 59.721874 165.875Q60.175 166.28125 60.815624 166.28125Q61.565624 166.28125 62.096874 165.70312Q62.628124 165.125 62.628124 164.1875Q62.628124 163.28125 62.1125 162.76562Q61.6125 162.23438 60.784374 162.23438Q60.284374 162.23438 59.8625 162.46875Q59.45625 162.70312 59.221874 163.0625L58.2375 162.9375L59.065624 158.53125L63.346874 158.53125L63.346874 159.53125L59.909374 159.53125L59.45625 161.84375Q60.221874 161.29688 61.065624 161.29688Q62.190624 161.29688 62.95625 162.07812Q63.7375 162.85938 63.7375 164.09375Q63.7375 165.25 63.065624 166.10938Q62.2375 167.14062 60.815624 167.14062Q59.64375 167.14062 58.89375 166.48438Q58.159374 165.82812 58.05 164.75ZM65.64375 167.0L65.64375 165.79688L66.84688 165.79688L66.84688 167.0L65.64375 167.0ZM68.05 162.76562Q68.05 161.23438 68.3625 160.3125Q68.675 159.375 69.28438 158.875Q69.90938 158.375 70.84688 158.375Q71.53438 158.375 72.05 158.65625Q72.58125 158.9375 72.925 159.46875Q73.26875 159.98438 73.45625 160.73438Q73.64375 161.48438 73.64375 162.76562Q73.64375 164.28125 73.33125 165.20312Q73.03438 166.125 72.40938 166.64062Q71.8 167.14062 70.84688 167.14062Q69.6125 167.14062 68.89375 166.25Q68.05 165.1875 68.05 162.76562ZM69.12813 162.76562Q69.12813 164.875 69.62813 165.57812Q70.12813 166.28125 70.84688 166.28125Q71.58125 166.28125 72.06563 165.57812Q72.56563 164.875 72.56563 162.76562Q72.56563 160.64062 72.06563 159.95312Q71.58125 159.25 70.83125 159.25Q70.1125 159.25 69.675 159.85938Q69.12813 160.64062 69.12813 162.76562Z" fill-rule="nonzero"/><path fill="#000000" d="M51.05 96.00938L52.1125 95.86875Q52.284374 96.75938 52.721874 97.16563Q53.159374 97.55625 53.784374 97.55625Q54.534374 97.55625 55.05 97.04063Q55.565624 96.525 55.565624 95.75938Q55.565624 95.04063 55.08125 94.57188Q54.6125 94.0875 53.878124 94.0875Q53.58125 94.0875 53.128124 94.2125L53.253124 93.275Q53.3625 93.29063 53.425 93.29063Q54.096874 93.29063 54.628124 92.94688Q55.175 92.5875 55.175 91.85313Q55.175 91.275 54.784374 90.9Q54.39375 90.50938 53.76875 90.50938Q53.159374 90.50938 52.7375 90.9Q52.33125 91.29063 52.221874 92.05625L51.159374 91.86875Q51.346874 90.82188 52.034374 90.24375Q52.721874 89.65 53.7375 89.65Q54.440624 89.65 55.034374 89.9625Q55.628124 90.25938 55.940624 90.775Q56.253124 91.29063 56.253124 91.88438Q56.253124 92.43125 55.95625 92.9Q55.659374 93.35313 55.08125 93.61875Q55.83125 93.79063 56.253124 94.35313Q56.675 94.9 56.675 95.74375Q56.675 96.86875 55.846874 97.65Q55.034374 98.43125 53.784374 98.43125Q52.659374 98.43125 51.909374 97.75938Q51.159374 97.07188 51.05 96.00938ZM58.05 94.04063Q58.05 92.50938 58.3625 91.5875Q58.675 90.65 59.284374 90.15Q59.909374 89.65 60.846874 89.65Q61.534374 89.65 62.05 89.93125Q62.58125 90.2125 62.925 90.74375Q63.26875 91.25938 63.45625 92.00938Q63.64375 92.75938 63.64375 94.04063Q63.64375 95.55625 63.33125 96.47813Q63.034374 97.4 62.409374 97.91563Q61.8 98.41563 60.846874 98.41563Q59.6125 98.41563 58.89375 97.525Q58.05 96.4625 58.05 94.04063ZM59.128124 94.04063Q59.128124 96.15 59.628124 96.85313Q60.128124 97.55625 60.846874 97.55625Q61.58125 97.55625 62.065624 96.85313Q62.565624 96.15 62.565624 94.04063Q62.565624 91.91563 62.065624 91.22813Q61.58125 90.525 60.83125 90.525Q60.1125 90.525 59.675 91.13438Q59.128124 91.91563 59.128124 94.04063ZM65.64375 98.275L65.64375 97.07188L66.84688 97.07188L66.84688 98.275L65.64375 98.275ZM68.05 94.04063Q68.05 92.50938 68.3625 91.5875Q68.675 90.65 69.28438 90.15Q69.90938 89.65 70.84688 89.65Q71.53438 89.65 72.05 89.93125Q72.58125 90.2125 72.925 90.74375Q73.26875 91.25938 73.45625 92.00938Q73.64375 92.75938 73.64375 94.04063Q73.64375 95.55625 73.33125 96.47813Q73.03438 97.4 72.40938 97.91563Q71.8 98.41563 70.84688 98.41563Q69.6125 98.41563 68.89375 97.525Q68.05 96.4625 68.05 94.04063ZM69.12813 94.04063Q69.12813 96.15 69.62813 96.85313Q70.12813 97.55625 70.84688 97.55625Q71.58125 97.55625 72.06563 96.85313Q72.56563 96.15 72.56563 94.04063Q72.56563 91.91563 72.06563 91.22813Q71.58125 90.525 70.83125 90.525Q70.1125 90.525 69.675 91.13438Q69.12813 91.91563 69.12813 94.04063Z" fill-rule="nonzero"/><path fill="#000000" d="M51.05 27.284374L52.1125 27.14375Q52.284374 28.034374 52.721874 28.440624Q53.159374 28.83125 53.784374 28.83125Q54.534374 28.83125 55.05 28.315624Q55.565624 27.8 55.565624 27.034374Q55.565624 26.315624 55.08125 25.846874Q54.6125 25.3625 53.878124 25.3625Q53.58125 25.3625 53.128124 25.4875L53.253124 24.55Q53.3625 24.565624 53.425 24.565624Q54.096874 24.565624 54.628124 24.221874Q55.175 23.8625 55.175 23.128124Q55.175 22.55 54.784374 22.175Q54.39375 21.784374 53.76875 21.784374Q53.159374 21.784374 52.7375 22.175Q52.33125 22.565624 52.221874 23.33125L51.159374 23.14375Q51.346874 22.096874 52.034374 21.51875Q52.721874 20.925 53.7375 20.925Q54.440624 20.925 55.034374 21.2375Q55.628124 21.534374 55.940624 22.05Q56.253124 22.565624 56.253124 23.159374Q56.253124 23.70625 55.95625 24.175Q55.659374 24.628124 55.08125 24.89375Q55.83125 25.065624 56.253124 25.628124Q56.675 26.175 56.675 27.01875Q56.675 28.14375 55.846874 28.925Q55.034374 29.70625 53.784374 29.70625Q52.659374 29.70625 51.909374 29.034374Q51.159374 28.346874 51.05 27.284374ZM58.05 27.3L59.159374 27.20625Q59.284374 28.01875 59.721874 28.425Q60.175 28.83125 60.815624 28.83125Q61.565624 28.83125 62.096874 28.253124Q62.628124 27.675 62.628124 26.7375Q62.628124 25.83125 62.1125 25.315624Q61.6125 24.784374 60.784374 24.784374Q60.284374 24.784374 59.8625 25.01875Q59.45625 25.253124 59.221874 25.6125L58.2375 25.4875L59.065624 21.08125L63.346874 21.08125L63.346874 22.08125L59.909374 22.08125L59.45625 24.39375Q60.221874 23.846874 61.065624 23.846874Q62.190624 23.846874 62.95625 24.628124Q63.7375 25.409374 63.7375 26.64375Q63.7375 27.8 63.065624 28.659374Q62.2375 29.690624 60.815624 29.690624Q59.64375 29.690624 58.89375 29.034374Q58.159374 28.378124 58.05 27.3ZM65.64375 29.55L65.64375 28.346874L66.84688 28.346874L66.84688 29.55L65.64375 29.55ZM68.05 25.315624Q68.05 23.784374 68.3625 22.8625Q68.675 21.925 69.28438 21.425Q69.90938 20.925 70.84688 20.925Q71.53438 20.925 72.05 21.20625Q72.58125 21.4875 72.925 22.01875Q73.26875 22.534374 73.45625 23.284374Q73.64375 24.034374 73.64375 25.315624Q73.64375 26.83125 73.33125 27.753124Q73.03438 28.675 72.40938 29.190624Q71.8 29.690624 70.84688 29.690624Q69.6125 29.690624 68.89375 28.8Q68.05 27.7375 68.05 25.315624ZM69.12813 25.315624Q69.12813 27.425 69.62813 28.128124Q70.12813 28.83125 70.84688 28.83125Q71.58125 28.83125 72.06563 28.128124Q72.56563 27.425 72.56563 25.315624Q72.56563 23.190624 72.06563 22.503124Q71.58125 21.8 70.83125 21.8Q70.1125 21.8 69.675 22.409374Q69.12813 23.190624 69.12813 25.315624Z" fill-rule="nonzero"/><path fill="#000000" d="M91.89734 313.21564Q91.89734 311.6844 92.20984 310.7625Q92.52234 309.825 93.131714 309.325Q93.756714 308.825 94.694214 308.825Q95.381714 308.825 95.89734 309.10626Q96.42859 309.3875 96.77234 309.91876Q97.11609 310.4344 97.30359 311.1844Q97.49109 311.9344 97.49109 313.21564Q97.49109 314.73126 97.17859 315.65314Q96.881714 316.575 96.256714 317.09064Q95.64734 317.59064 94.694214 317.59064Q93.45984 317.59064 92.74109 316.7Q91.89734 315.6375 91.89734 313.21564ZM92.975464 313.21564Q92.975464 315.325 93.475464 316.02814Q93.975464 316.73126 94.694214 316.73126Q95.42859 316.73126 95.912964 316.02814Q96.412964 315.325 96.412964 313.21564Q96.412964 311.09064 95.912964 310.40314Q95.42859 309.7 94.67859 309.7Q93.95984 309.7 93.52234 310.3094Q92.975464 311.09064 92.975464 313.21564ZM102.86609 317.45L101.819214 317.45L101.819214 310.73126Q101.42859 311.09064 100.80359 311.46564Q100.194214 311.825 99.70984 311.9969L99.70984 310.98126Q100.58484 310.5594 101.24109 309.98126Q101.912964 309.3875 102.194214 308.825L102.86609 308.825L102.86609 317.45ZM105.39734 317.59064L107.881714 308.71564L108.725464 308.71564L106.24109 317.59064L105.39734 317.59064ZM112.86609 317.45L111.819214 317.45L111.819214 310.73126Q111.42859 311.09064 110.80359 311.46564Q110.194214 311.825 109.70984 311.9969L109.70984 310.98126Q110.58484 310.5594 111.24109 309.98126Q111.912964 309.3875 112.194214 308.825L112.86609 308.825L112.86609 317.45ZM115.89734 313.21564Q115.89734 311.6844 116.20984 310.7625Q116.52234 309.825 117.131714 309.325Q117.756714 308.825 118.694214 308.825Q119.381714 308.825 119.89734 309.10626Q120.42859 309.3875 120.77234 309.91876Q121.11609 310.4344 121.30359 311.1844Q121.49109 311.9344 121.49109 313.21564Q121.49109 314.73126 121.17859 315.65314Q120.881714 316.575 120.256714 317.09064Q119.64734 317.59064 118.694214 317.59064Q117.45984 317.59064 116.74109 316.7Q115.89734 315.6375 115.89734 313.21564ZM116.975464 313.21564Q116.975464 315.325 117.475464 316.02814Q117.975464 316.73126 118.694214 316.73126Q119.42859 316.73126 119.912964 316.02814Q120.412964 315.325 120.412964 313.21564Q120.412964 311.09064 119.912964 310.40314Q119.42859 309.7 118.67859 309.7Q117.95984 309.7 117.52234 310.3094Q116.975464 311.09064 116.975464 313.21564ZM122.39734 317.59064L124.881714 308.71564L125.725464 308.71564L123.24109 317.59064L122.39734 317.59064ZM131.44421 316.4344L131.44421 317.45L125.756714 317.45Q125.756714 317.075 125.881714 316.71564Q126.100464 316.1375 126.569214 315.575Q127.05359 315.0125 127.95984 314.27814Q129.36609 313.1219 129.85046 312.45Q130.35046 311.77814 130.35046 311.1844Q130.35046 310.5594 129.89734 310.1375Q129.44421 309.7 128.72546 309.7Q127.95984 309.7 127.506714 310.15314Q127.05359 310.60626 127.037964 311.41876L125.95984 311.3094Q126.069214 310.09064 126.787964 309.46564Q127.52234 308.825 128.75671 308.825Q129.99109 308.825 130.70984 309.5125Q131.42859 310.2 131.42859 311.21564Q131.42859 311.73126 131.20984 312.23126Q131.00671 312.71564 130.50671 313.27814Q130.02234 313.825 128.89734 314.77814Q127.944214 315.575 127.662964 315.8719Q127.39734 316.15314 127.225464 316.4344L131.44421 316.4344ZM132.89734 313.21564Q132.89734 311.6844 133.20984 310.7625Q133.52234 309.825 134.13171 309.325Q134.75671 308.825 135.69421 308.825Q136.38171 308.825 136.89734 309.10626Q137.42859 309.3875 137.77234 309.91876Q138.11609 310.4344 138.30359 311.1844Q138.49109 311.9344 138.49109 313.21564Q138.49109 314.73126 138.17859 315.65314Q137.88171 316.575 137.25671 317.09064Q136.64734 317.59064 135.69421 317.59064Q134.45984 317.59064 133.74109 316.7Q132.89734 315.6375 132.89734 313.21564ZM133.97546 313.21564Q133.97546 315.325 134.47546 316.02814Q134.97546 316.73126 135.69421 316.73126Q136.42859 316.73126 136.91296 316.02814Q137.41296 315.325 137.41296 313.21564Q137.41296 311.09064 136.91296 310.40314Q136.42859 309.7 135.67859 309.7Q134.95984 309.7 134.52234 310.3094Q133.97546 311.09064 133.97546 313.21564ZM145.44421 316.4344L145.44421 317.45L139.75671 317.45Q139.75671 317.075 139.88171 316.71564Q140.10046 316.1375 140.56921 315.575Q141.05359 315.0125 141.95984 314.27814Q143.36609 313.1219 143.85046 312.45Q144.35046 311.77814 144.35046 311.1844Q144.35046 310.5594 143.89734 310.1375Q143.44421 309.7 142.72546 309.7Q141.95984 309.7 141.50671 310.15314Q141.05359 310.60626 141.03796 311.41876L139.95984 311.3094Q140.06921 310.09064 140.78796 309.46564Q141.52234 308.825 142.75671 308.825Q143.99109 308.825 144.70984 309.5125Q145.42859 310.2 145.42859 311.21564Q145.42859 311.73126 145.20984 312.23126Q145.00671 312.71564 144.50671 313.27814Q144.02234 313.825 142.89734 314.77814Q141.94421 315.575 141.66296 315.8719Q141.39734 316.15314 141.22546 316.4344L145.44421 316.4344ZM150.27234 317.45L150.27234 315.3875L146.55359 315.3875L146.55359 314.41876L150.47546 308.85626L151.33484 308.85626L151.33484 314.41876L152.49109 314.41876L152.49109 315.3875L151.33484 315.3875L151.33484 317.45L150.27234 317.45ZM150.27234 314.41876L150.27234 310.5594L147.58484 314.41876L150.27234 314.41876Z" fill-rule="nonzero"/><path fill="#000000" d="M208.56265 313.21564Q208.56265 311.6844 208.87515 310.7625Q209.18765 309.825 209.79703 309.325Q210.42203 308.825 211.35953 308.825Q212.04703 308.825 212.56265 309.10626Q213.0939 309.3875 213.43765 309.91876Q213.7814 310.4344 213.9689 311.1844Q214.1564 311.9344 214.1564 313.21564Q214.1564 314.73126 213.8439 315.65314Q213.54703 316.575 212.92203 317.09064Q212.31265 317.59064 211.35953 317.59064Q210.12515 317.59064 209.4064 316.7Q208.56265 315.6375 208.56265 313.21564ZM209.64078 313.21564Q209.64078 315.325 210.14078 316.02814Q210.64078 316.73126 211.35953 316.73126Q212.0939 316.73126 212.57828 316.02814Q213.07828 315.325 213.07828 313.21564Q213.07828 311.09064 212.57828 310.40314Q212.0939 309.7 211.3439 309.7Q210.62515 309.7 210.18765 310.3094Q209.64078 311.09064 209.64078 313.21564ZM219.5314 317.45L218.48453 317.45L218.48453 310.73126Q218.0939 311.09064 217.4689 311.46564Q216.85953 311.825 216.37515 311.9969L216.37515 310.98126Q217.25015 310.5594 217.9064 309.98126Q218.57828 309.3875 218.85953 308.825L219.5314 308.825L219.5314 317.45ZM222.06265 317.59064L224.54703 308.71564L225.39078 308.71564L222.9064 317.59064L222.06265 317.59064ZM225.56265 313.21564Q225.56265 311.6844 225.87515 310.7625Q226.18765 309.825 226.79703 309.325Q227.42203 308.825 228.35953 308.825Q229.04703 308.825 229.56265 309.10626Q230.0939 309.3875 230.43765 309.91876Q230.7814 310.4344 230.9689 311.1844Q231.1564 311.9344 231.1564 313.21564Q231.1564 314.73126 230.8439 315.65314Q230.54703 316.575 229.92203 317.09064Q229.31265 317.59064 228.35953 317.59064Q227.12515 317.59064 226.4064 316.7Q225.56265 315.6375 225.56265 313.21564ZM226.64078 313.21564Q226.64078 315.325 227.14078 316.02814Q227.64078 316.73126 228.35953 316.73126Q229.0939 316.73126 229.57828 316.02814Q230.07828 315.325 230.07828 313.21564Q230.07828 311.09064 229.57828 310.40314Q229.0939 309.7 228.3439 309.7Q227.62515 309.7 227.18765 310.3094Q226.64078 311.09064 226.64078 313.21564ZM236.5314 317.45L235.48453 317.45L235.48453 310.73126Q235.0939 311.09064 234.4689 311.46564Q233.85953 311.825 233.37515 311.9969L233.37515 310.98126Q234.25015 310.5594 234.9064 309.98126Q235.57828 309.3875 235.85953 308.825L236.5314 308.825L236.5314 317.45ZM239.06265 317.59064L241.54703 308.71564L242.39078 308.71564L239.9064 317.59064L239.06265 317.59064ZM248.10953 316.4344L248.10953 317.45L242.42203 317.45Q242.42203 317.075 242.54703 316.71564Q242.76578 316.1375 243.23453 315.575Q243.7189 315.0125 244.62515 314.27814Q246.0314 313.1219 246.51578 312.45Q247.01578 311.77814 247.01578 311.1844Q247.01578 310.5594 246.56265 310.1375Q246.10953 309.7 245.39078 309.7Q244.62515 309.7 244.17203 310.15314Q243.7189 310.60626 243.70328 311.41876L242.62515 311.3094Q242.73453 310.09064 243.45328 309.46564Q244.18765 308.825 245.42203 308.825Q246.6564 308.825 247.37515 309.5125Q248.0939 310.2 248.0939 311.21564Q248.0939 311.73126 247.87515 312.23126Q247.67203 312.71564 247.17203 313.27814Q246.68765 313.825 245.56265 314.77814Q244.60953 315.575 244.32828 315.8719Q244.06265 316.15314 243.89078 316.4344L248.10953 316.4344ZM249.56265 313.21564Q249.56265 311.6844 249.87515 310.7625Q250.18765 309.825 250.79703 309.325Q251.42203 308.825 252.35953 308.825Q253.04703 308.825 253.56265 309.10626Q254.0939 309.3875 254.43765 309.91876Q254.7814 310.4344 254.9689 311.1844Q255.1564 311.9344 255.1564 313.21564Q255.1564 314.73126 254.8439 315.65314Q254.54703 316.575 253.92203 317.09064Q253.31265 317.59064 252.35953 317.59064Q251.12515 317.59064 250.4064 316.7Q249.56265 315.6375 249.56265 313.21564ZM250.64078 313.21564Q250.64078 315.325 251.14078 316.02814Q251.64078 316.73126 252.35953 316.73126Q253.0939 316.73126 253.57828 316.02814Q254.07828 315.325 254.07828 313.21564Q254.07828 311.09064 253.57828 310.40314Q253.0939 309.7 252.3439 309.7Q251.62515 309.7 251.18765 310.3094Q250.64078 311.09064 250.64078 313.21564ZM262.10953 316.4344L262.10953 317.45L256.42203 317.45Q256.42203 317.075 256.54703 316.71564Q256.76578 316.1375 257.23453 315.575Q257.7189 315.0125 258.62515 314.27814Q260.0314 313.1219 260.51578 312.45Q261.01578 311.77814 261.01578 311.1844Q261.01578 310.5594 260.56265 310.1375Q260.10953 309.7 259.39078 309.7Q258.62515 309.7 258.17203 310.15314Q257.7189 310.60626 257.70328 311.41876L256.62515 311.3094Q256.73453 310.09064 257.45328 309.46564Q258.18765 308.825 259.42203 308.825Q260.6564 308.825 261.37515 309.5125Q262.0939 310.2 262.0939 311.21564Q262.0939 311.73126 261.87515 312.23126Q261.67203 312.71564 261.17203 313.27814Q260.68765 313.825 259.56265 314.77814Q258.60953 315.575 258.32828 315.8719Q258.06265 316.15314 257.89078 316.4344L262.10953 316.4344ZM263.56265 315.2L264.67203 315.10626Q264.79703 315.91876 265.23453 316.325Q265.68765 316.73126 266.32828 316.73126Q267.07828 316.73126 267.60953 316.15314Q268.14078 315.575 268.14078 314.6375Q268.14078 313.73126 267.62515 313.21564Q267.12515 312.6844 266.29703 312.6844Q265.79703 312.6844 265.37515 312.91876Q264.9689 313.15314 264.73453 313.5125L263.75015 313.3875L264.57828 308.98126L268.85953 308.98126L268.85953 309.98126L265.42203 309.98126L264.9689 312.29376Q265.73453 311.7469 266.57828 311.7469Q267.70328 311.7469 268.4689 312.52814Q269.25015 313.3094 269.25015 314.54376Q269.25015 315.7 268.57828 316.5594Q267.75015 317.59064 266.32828 317.59064Q265.1564 317.59064 264.4064 316.9344Q263.67203 316.27814 263.56265 315.2Z" fill-rule="nonzero"/><path fill="#000000" d="M322.69177 313.21564Q322.69177 311.6844 323.00427 310.7625Q323.31677 309.825 323.92615 309.325Q324.55115 308.825 325.48865 308.825Q326.17615 308.825 326.69177 309.10626Q327.22302 309.3875 327.56677 309.91876Q327.91052 310.4344 328.09802 311.1844Q328.28552 311.9344 328.28552 313.21564Q328.28552 314.73126 327.97302 315.65314Q327.67615 316.575 327.05115 317.09064Q326.44177 317.59064 325.48865 317.59064Q324.25427 317.59064 323.53552 316.7Q322.69177 315.6375 322.69177 313.21564ZM323.7699 313.21564Q323.7699 315.325 324.2699 316.02814Q324.7699 316.73126 325.48865 316.73126Q326.22302 316.73126 326.7074 316.02814Q327.2074 315.325 327.2074 313.21564Q327.2074 311.09064 326.7074 310.40314Q326.22302 309.7 325.47302 309.7Q324.75427 309.7 324.31677 310.3094Q323.7699 311.09064 323.7699 313.21564ZM333.66052 317.45L332.61365 317.45L332.61365 310.73126Q332.22302 311.09064 331.59802 311.46564Q330.98865 311.825 330.50427 311.9969L330.50427 310.98126Q331.37927 310.5594 332.03552 309.98126Q332.7074 309.3875 332.98865 308.825L333.66052 308.825L333.66052 317.45ZM336.19177 317.59064L338.67615 308.71564L339.5199 308.71564L337.03552 317.59064L336.19177 317.59064ZM339.69177 313.21564Q339.69177 311.6844 340.00427 310.7625Q340.31677 309.825 340.92615 309.325Q341.55115 308.825 342.48865 308.825Q343.17615 308.825 343.69177 309.10626Q344.22302 309.3875 344.56677 309.91876Q344.91052 310.4344 345.09802 311.1844Q345.28552 311.9344 345.28552 313.21564Q345.28552 314.73126 344.97302 315.65314Q344.67615 316.575 344.05115 317.09064Q343.44177 317.59064 342.48865 317.59064Q341.25427 317.59064 340.53552 316.7Q339.69177 315.6375 339.69177 313.21564ZM340.7699 313.21564Q340.7699 315.325 341.2699 316.02814Q341.7699 316.73126 342.48865 316.73126Q343.22302 316.73126 343.7074 316.02814Q344.2074 315.325 344.2074 313.21564Q344.2074 311.09064 343.7074 310.40314Q343.22302 309.7 342.47302 309.7Q341.75427 309.7 341.31677 310.3094Q340.7699 311.09064 340.7699 313.21564ZM350.06677 317.45L350.06677 315.3875L346.34802 315.3875L346.34802 314.41876L350.2699 308.85626L351.12927 308.85626L351.12927 314.41876L352.28552 314.41876L352.28552 315.3875L351.12927 315.3875L351.12927 317.45L350.06677 317.45ZM350.06677 314.41876L350.06677 310.5594L347.37927 314.41876L350.06677 314.41876ZM353.19177 317.59064L355.67615 308.71564L356.5199 308.71564L354.03552 317.59064L353.19177 317.59064ZM362.23865 316.4344L362.23865 317.45L356.55115 317.45Q356.55115 317.075 356.67615 316.71564Q356.8949 316.1375 357.36365 315.575Q357.84802 315.0125 358.75427 314.27814Q360.16052 313.1219 360.6449 312.45Q361.1449 311.77814 361.1449 311.1844Q361.1449 310.5594 360.69177 310.1375Q360.23865 309.7 359.5199 309.7Q358.75427 309.7 358.30115 310.15314Q357.84802 310.60626 357.8324 311.41876L356.75427 311.3094Q356.86365 310.09064 357.5824 309.46564Q358.31677 308.825 359.55115 308.825Q360.78552 308.825 361.50427 309.5125Q362.22302 310.2 362.22302 311.21564Q362.22302 311.73126 362.00427 312.23126Q361.80115 312.71564 361.30115 313.27814Q360.81677 313.825 359.69177 314.77814Q358.73865 315.575 358.4574 315.8719Q358.19177 316.15314 358.0199 316.4344L362.23865 316.4344ZM363.69177 313.21564Q363.69177 311.6844 364.00427 310.7625Q364.31677 309.825 364.92615 309.325Q365.55115 308.825 366.48865 308.825Q367.17615 308.825 367.69177 309.10626Q368.22302 309.3875 368.56677 309.91876Q368.91052 310.4344 369.09802 311.1844Q369.28552 311.9344 369.28552 313.21564Q369.28552 314.73126 368.97302 315.65314Q368.67615 316.575 368.05115 317.09064Q367.44177 317.59064 366.48865 317.59064Q365.25427 317.59064 364.53552 316.7Q363.69177 315.6375 363.69177 313.21564ZM364.7699 313.21564Q364.7699 315.325 365.2699 316.02814Q365.7699 316.73126 366.48865 316.73126Q367.22302 316.73126 367.7074 316.02814Q368.2074 315.325 368.2074 313.21564Q368.2074 311.09064 367.7074 310.40314Q367.22302 309.7 366.47302 309.7Q365.75427 309.7 365.31677 310.3094Q364.7699 311.09064 364.7699 313.21564ZM376.23865 316.4344L376.23865 317.45L370.55115 317.45Q370.55115 317.075 370.67615 316.71564Q370.8949 316.1375 371.36365 315.575Q371.84802 315.0125 372.75427 314.27814Q374.16052 313.1219 374.6449 312.45Q375.1449 311.77814 375.1449 311.1844Q375.1449 310.5594 374.69177 310.1375Q374.23865 309.7 373.5199 309.7Q372.75427 309.7 372.30115 310.15314Q371.84802 310.60626 371.8324 311.41876L370.75427 311.3094Q370.86365 310.09064 371.5824 309.46564Q372.31677 308.825 373.55115 308.825Q374.78552 308.825 375.50427 309.5125Q376.22302 310.2 376.22302 311.21564Q376.22302 311.73126 376.00427 312.23126Q375.80115 312.71564 375.30115 313.27814Q374.81677 313.825 373.69177 314.77814Q372.73865 315.575 372.4574 315.8719Q372.19177 316.15314 372.0199 316.4344L376.23865 316.4344ZM377.69177 315.2L378.80115 315.10626Q378.92615 315.91876 379.36365 316.325Q379.81677 316.73126 380.4574 316.73126Q381.2074 316.73126 381.73865 316.15314Q382.2699 315.575 382.2699 314.6375Q382.2699 313.73126 381.75427 313.21564Q381.25427 312.6844 380.42615 312.6844Q379.92615 312.6844 379.50427 312.91876Q379.09802 313.15314 378.86365 313.5125L377.87927 313.3875L378.7074 308.98126L382.98865 308.98126L382.98865 309.98126L379.55115 309.98126L379.09802 312.29376Q379.86365 311.7469 380.7074 311.7469Q381.8324 311.7469 382.59802 312.52814Q383.37927 313.3094 383.37927 314.54376Q383.37927 315.7 382.7074 316.5594Q381.87927 317.59064 380.4574 317.59064Q379.28552 317.59064 378.53552 316.9344Q377.80115 316.27814 377.69177 315.2Z" fill-rule="nonzero"/><path fill="#000000" d="M438.089 313.21564Q438.089 311.6844 438.4015 310.7625Q438.714 309.825 439.32336 309.325Q439.94836 308.825 440.88586 308.825Q441.57336 308.825 442.089 309.10626Q442.62024 309.3875 442.964 309.91876Q443.30774 310.4344 443.49524 311.1844Q443.68274 311.9344 443.68274 313.21564Q443.68274 314.73126 443.37024 315.65314Q443.07336 316.575 442.44836 317.09064Q441.839 317.59064 440.88586 317.59064Q439.6515 317.59064 438.93274 316.7Q438.089 315.6375 438.089 313.21564ZM439.1671 313.21564Q439.1671 315.325 439.6671 316.02814Q440.1671 316.73126 440.88586 316.73126Q441.62024 316.73126 442.1046 316.02814Q442.6046 315.325 442.6046 313.21564Q442.6046 311.09064 442.1046 310.40314Q441.62024 309.7 440.87024 309.7Q440.1515 309.7 439.714 310.3094Q439.1671 311.09064 439.1671 313.21564ZM449.05774 317.45L448.01086 317.45L448.01086 310.73126Q447.62024 311.09064 446.99524 311.46564Q446.38586 311.825 445.9015 311.9969L445.9015 310.98126Q446.7765 310.5594 447.43274 309.98126Q448.1046 309.3875 448.38586 308.825L449.05774 308.825L449.05774 317.45ZM451.589 317.59064L454.07336 308.71564L454.9171 308.71564L452.43274 317.59064L451.589 317.59064ZM455.089 313.21564Q455.089 311.6844 455.4015 310.7625Q455.714 309.825 456.32336 309.325Q456.94836 308.825 457.88586 308.825Q458.57336 308.825 459.089 309.10626Q459.62024 309.3875 459.964 309.91876Q460.30774 310.4344 460.49524 311.1844Q460.68274 311.9344 460.68274 313.21564Q460.68274 314.73126 460.37024 315.65314Q460.07336 316.575 459.44836 317.09064Q458.839 317.59064 457.88586 317.59064Q456.6515 317.59064 455.93274 316.7Q455.089 315.6375 455.089 313.21564ZM456.1671 313.21564Q456.1671 315.325 456.6671 316.02814Q457.1671 316.73126 457.88586 316.73126Q458.62024 316.73126 459.1046 316.02814Q459.6046 315.325 459.6046 313.21564Q459.6046 311.09064 459.1046 310.40314Q458.62024 309.7 457.87024 309.7Q457.1515 309.7 456.714 310.3094Q456.1671 311.09064 456.1671 313.21564ZM462.1515 309.98126L462.1515 308.96564L467.714 308.96564L467.714 309.79376Q466.9015 310.66876 466.089 312.1219Q465.2921 313.5594 464.8546 315.09064Q464.5265 316.16876 464.44836 317.45L463.3546 317.45Q463.37024 316.4344 463.74524 314.9969Q464.13586 313.5594 464.839 312.23126Q465.55774 310.90314 466.37024 309.98126L462.1515 309.98126ZM468.589 317.59064L471.07336 308.71564L471.9171 308.71564L469.43274 317.59064L468.589 317.59064ZM477.63586 316.4344L477.63586 317.45L471.94836 317.45Q471.94836 317.075 472.07336 316.71564Q472.2921 316.1375 472.76086 315.575Q473.24524 315.0125 474.1515 314.27814Q475.55774 313.1219 476.0421 312.45Q476.5421 311.77814 476.5421 311.1844Q476.5421 310.5594 476.089 310.1375Q475.63586 309.7 474.9171 309.7Q474.1515 309.7 473.69836 310.15314Q473.24524 310.60626 473.2296 311.41876L472.1515 311.3094Q472.26086 310.09064 472.9796 309.46564Q473.714 308.825 474.94836 308.825Q476.18274 308.825 476.9015 309.5125Q477.62024 310.2 477.62024 311.21564Q477.62024 311.73126 477.4015 312.23126Q477.19836 312.71564 476.69836 313.27814Q476.214 313.825 475.089 314.77814Q474.13586 315.575 473.8546 315.8719Q473.589 316.15314 473.4171 316.4344L477.63586 316.4344ZM479.089 313.21564Q479.089 311.6844 479.4015 310.7625Q479.714 309.825 480.32336 309.325Q480.94836 308.825 481.88586 308.825Q482.57336 308.825 483.089 309.10626Q483.62024 309.3875 483.964 309.91876Q484.30774 310.4344 484.49524 311.1844Q484.68274 311.9344 484.68274 313.21564Q484.68274 314.73126 484.37024 315.65314Q484.07336 316.575 483.44836 317.09064Q482.839 317.59064 481.88586 317.59064Q480.6515 317.59064 479.93274 316.7Q479.089 315.6375 479.089 313.21564ZM480.1671 313.21564Q480.1671 315.325 480.6671 316.02814Q481.1671 316.73126 481.88586 316.73126Q482.62024 316.73126 483.1046 316.02814Q483.6046 315.325 483.6046 313.21564Q483.6046 311.09064 483.1046 310.40314Q482.62024 309.7 481.87024 309.7Q481.1515 309.7 480.714 310.3094Q480.1671 311.09064 480.1671 313.21564ZM491.63586 316.4344L491.63586 317.45L485.94836 317.45Q485.94836 317.075 486.07336 316.71564Q486.2921 316.1375 486.76086 315.575Q487.24524 315.0125 488.1515 314.27814Q489.55774 313.1219 490.0421 312.45Q490.5421 311.77814 490.5421 311.1844Q490.5421 310.5594 490.089 310.1375Q489.63586 309.7 488.9171 309.7Q488.1515 309.7 487.69836 310.15314Q487.24524 310.60626 487.2296 311.41876L486.1515 311.3094Q486.26086 310.09064 486.9796 309.46564Q487.714 308.825 488.94836 308.825Q490.18274 308.825 490.9015 309.5125Q491.62024 310.2 491.62024 311.21564Q491.62024 311.73126 491.4015 312.23126Q491.19836 312.71564 490.69836 313.27814Q490.214 313.825 489.089 314.77814Q488.13586 315.575 487.8546 315.8719Q487.589 316.15314 487.4171 316.4344L491.63586 316.4344ZM493.089 315.2L494.19836 315.10626Q494.32336 315.91876 494.76086 316.325Q495.214 316.73126 495.8546 316.73126Q496.6046 316.73126 497.13586 316.15314Q497.6671 315.575 497.6671 314.6375Q497.6671 313.73126 497.1515 313.21564Q496.6515 312.6844 495.82336 312.6844Q495.32336 312.6844 494.9015 312.91876Q494.49524 313.15314 494.26086 313.5125L493.2765 313.3875L494.1046 308.98126L498.38586 308.98126L498.38586 309.98126L494.94836 309.98126L494.49524 312.29376Q495.26086 311.7469 496.1046 311.7469Q497.2296 311.7469 497.99524 312.52814Q498.7765 313.3094 498.7765 314.54376Q498.7765 315.7 498.1046 316.5594Q497.2765 317.59064 495.8546 317.59064Q494.68274 317.59064 493.93274 316.9344Q493.19836 316.27814 493.089 315.2Z" fill-rule="nonzero"/></svg>