<svg version="1.1" viewBox="0.0 0.0 600.0 371.0" fill="none" stroke="none" stroke-linecap="square" stroke-miterlimit="10" width="600" height="371" xmlns:xlink="http://www.w3.org/1999/xlink" xmlns="http://www.w3.org/2000/svg"><path fill="#ffffff" d="M0 0L600.0 0L600.0 371.0L0 371.0L0 0Z" fill-rule="nonzero"/><path stroke="#cccccc" stroke-width="1.0" stroke-linecap="butt" d="M114.5 25.5L114.5 300.5" fill-rule="nonzero"/><path stroke="#cccccc" stroke-width="1.0" stroke-linecap="butt" d="M209.5 25.5L209.5 300.5" fill-rule="nonzero"/><path stroke="#cccccc" stroke-width="1.0" stroke-linecap="butt" d="M302.5 25.5L302.5 300.5" fill-rule="nonzero"/><path stroke="#cccccc" stroke-width="1.0" stroke-linecap="butt" d="M395.5 25.5L395.5 300.5" fill-rule="nonzero"/><path stroke="#cccccc" stroke-width="1.0" stroke-linecap="butt" d="M490.5 25.5L490.5 300.5" fill-rule="nonzero"/><path stroke="#cccccc" stroke-width="1.0" stroke-linecap="butt" d="M80.5 300.5L581.5 300.5" fill-rule="nonzero"/><path stroke="#cccccc" stroke-width="1.0" stroke-linecap="butt" d="M80.5 231.5L581.5 231.5" fill-rule="nonzero"/><path stroke="#cccccc" stroke-width="1.0" stroke-linecap="butt" d="M80.5 163.5L581.5 163.5" fill-rule="nonzero"/><path stroke="#cccccc" stroke-width="1.0" stroke-linecap="butt" d="M80.5 94.5L581.5 94.5" fill-rule="nonzero"/><path stroke="#cccccc" stroke-width="1.0" stroke-linecap="butt" d="M80.5 25.5L581.5 25.5" fill-rule="nonzero"/><clipPath id="id_0"><path d="M80.55 25.55L581.45 25.55L581.45 300.45L80.55 300.45L80.55 25.55Z" clip-rule="nonzero"/></clipPath><path stroke="#4285f4" stroke-width="2.0" stroke-linecap="butt" clip-path="url(#id_0)" d="M80.55 68.03387L87.76461 70.821526L94.97922 74.07379L105.285805 79.6491L112.50041 86.61824L119.71502 92.65816" fill-rule="nonzero"/><path stroke="#4285f4" stroke-width="2.0" stroke-linecap="butt" stroke-opacity="0.4" clip-path="url(#id_0)" d="M0 11.082138C0 11.082138 2.6666667 13.016173 4.0 13.978956C5.3333335 14.94174 6.6666665 15.901685 8.0 16.85884C9.333333 17.815996 10.666667 18.770329 12.0 19.72189C13.333333 20.67345 14.666667 21.622204 16.0 22.568203C17.333334 23.5142 18.666666 24.457409 20.0 25.397875C21.333334 26.338343 22.666666 27.276037 24.0 28.211008C25.333334 29.145977 26.666666 30.07819 28.0 31.007694C29.333334 31.937199 30.666666 32.863964 32.0 33.788033C33.333332 34.712105 34.666668 35.63345 36.0 36.552116C37.333332 37.470787 38.666668 38.386745 40.0 39.300045C41.333332 40.213345 42.666668 41.12395 44.0 42.03191C45.333332 42.93987 46.666668 43.84515 48.0 44.747803C49.333332 45.650455 50.666668 46.550446 52.0 47.44782C53.333332 48.345196 54.666668 49.239925 56.0 50.132053C57.333332 51.02418 58.666668 51.91368 60.0 52.800594C61.333332 53.687508 62.666668 54.571808 64.0 55.453537C65.333336 56.335266 66.666664 57.214397 68.0 58.090973C69.333336 58.96755 70.666664 59.841537 72.0 60.71299C73.333336 61.58444 74.666664 62.45332 76.0 63.319675C77.333336 64.186035 78.666664 65.049835 80.0 65.911125C81.333336 66.77242 82.666664 67.63117 84.0 68.48743C85.333336 69.34369 86.666664 70.19742 88.0 71.04867C89.333336 71.899925 90.666664 72.748665 92.0 73.59494C93.333336 74.441216 94.666664 75.284996 96.0 76.12633C97.333336 76.96765 98.666664 77.8065 100.0 78.642914C101.333336 79.479324 102.666664 80.31326 104.0 81.14478C105.333336 81.9763 106.666664 82.805374 108.0 83.632034C109.333336 84.458694 110.666664 85.28292 112.0 86.104744C113.333336 86.926575 114.666664 87.74598 116.0 88.563C117.333336 89.38002 118.666664 90.19464 120.0 91.00688C121.333336 91.81913 122.666664 92.62898 124.0 93.436485C125.333336 94.24398 126.666664 95.0491 128.0 95.851875C129.33333 96.654655 130.66667 97.45507 132.0 98.25315C133.33333 99.05124 134.66667 99.84697 136.0 100.640396C137.33333 101.433815 138.66667 102.22489 140.0 103.01368C141.33333 103.80246 142.66667 104.58891 144.0 105.373085C145.33333 106.15726 146.66667 106.93912 148.0 107.718704C149.33333 108.49829 150.66667 109.27558 152.0 110.050606C153.33333 110.82564 154.66667 111.59838 156.0 112.36888C157.33333 113.13938 158.66667 113.90761 160.0 114.6736C161.33333 115.4396 162.66667 116.20333 164.0 116.96485C165.33333 117.72637 166.66667 118.48564 168.0 119.24271C169.33333 119.99977 170.66667 120.75461 172.0 121.50725C173.33333 122.25989 174.66667 123.01031 176.0 123.758545C177.33333 124.50678 178.66667 125.25282 180.0 125.99669C181.33333 126.740555 182.66667 127.48222 184.0 128.22174C185.33333 128.96126 186.66667 129.6986 188.0 130.43379C189.33333 131.16899 190.66667 131.90201 192.0 132.6329C193.33333 133.36382 194.66667 134.09254 196.0 134.81917C197.33333 135.54579 198.66667 136.27028 200.0 136.99266C201.33333 137.71503 202.66667 138.43529 204.0 139.15343C205.33333 139.87158 206.66667 140.58763 208.0 141.30157C209.33333 142.01553 210.66667 142.72739 212.0 143.43716C213.33333 144.14696 214.66667 144.85464 216.0 145.56027C217.33333 146.2659 218.66667 146.96945 220.0 147.67096C221.33333 148.37247 222.66667 149.07191 224.0 149.76932C225.33333 150.46672 226.66667 151.16208 228.0 151.85541C229.33333 152.54874 230.66667 153.24002 232.0 153.9293C233.33333 154.61858 234.66667 155.30582 236.0 155.99107C237.33333 156.67632 238.66667 157.35954 240.0 158.04079C241.33333 158.72203 242.66667 159.40126 244.0 160.07852C245.33333 160.75578 246.66667 161.43105 248.0 162.10434C249.33333 162.77765 250.66667 163.44896 252.0 164.11833C253.33333 164.78769 254.66667 165.45508 256.0 166.12053C257.33334 166.78598 258.66666 167.44948 260.0 168.11104C261.33334 168.7726 262.66666 169.4322 264.0 170.0899C265.33334 170.7476 266.66666 171.40335 268.0 172.0572C269.33334 172.71106 270.66666 173.36298 272.0 174.013C273.33334 174.66302 274.66666 175.31114 276.0 175.95737C277.33334 176.60359 278.66666 177.24791 280.0 177.89037C281.33334 178.53282 282.66666 179.17337 284.0 179.81207C285.33334 180.45076 286.66666 181.08757 288.0 181.72253C289.33334 182.3575 290.66666 182.99059 292.0 183.62183C293.33334 184.25308 294.66666 184.88246 296.0 185.51003C297.33334 186.13759 298.66666 186.76329 300.0 187.38718C301.33334 188.01108 302.66666 188.63312 304.0 189.25336C305.33334 189.87361 306.66666 190.49202 308.0 191.10864C309.33334 191.72525 310.66666 192.34006 312.0 192.95306C313.33334 193.56609 314.66666 194.17729 316.0 194.78671C317.33334 195.39615 318.66666 196.00377 320.0 196.60963C321.33334 197.21552 322.66666 197.8196 324.0 198.4219C325.33334 199.02423 326.66666 199.62479 328.0 200.22359C329.33334 200.82239 330.66666 201.41943 332.0 202.01474C333.33334 202.61003 334.66666 203.20358 336.0 203.79541C337.33334 204.38724 338.66666 204.97731 340.0 205.56567C341.33334 206.15404 342.66666 206.74066 344.0 207.32559C345.33334 207.91052 346.66666 208.49371 348.0 209.07523C349.33334 209.65672 350.66666 210.23651 352.0 210.81462C353.33334 211.39273 354.66666 211.96913 356.0 212.54385C357.33334 213.11858 358.66666 213.6916 360.0 214.26297C361.33334 214.83435 362.66666 215.40402 364.0 215.97205C365.33334 216.54008 366.66666 217.10643 368.0 217.67114C369.33334 218.23584 370.66666 218.79889 372.0 219.36029C373.33334 219.92169 374.66666 220.48145 376.0 221.03957C377.33334 221.59769 378.66666 222.15416 380.0 222.70903C381.33334 223.26389 382.66666 223.81711 384.0 224.36873C385.33334 224.92033 386.66666 225.47034 388.0 226.01872C389.33334 226.56711 390.66666 227.11389 392.0 227.65907C393.33334 228.20427 394.66666 228.74785 396.0 229.28984C397.33334 229.83183 398.66666 230.37224 400.0 230.91107C401.33334 231.4499 402.66666 231.98715 404.0 232.52283C405.33334 233.0585 406.66666 233.5926 408.0 234.12515C409.33334 234.6577 410.66666 235.18869 412.0 235.71812C413.33334 236.24756 414.66666 236.77544 416.0 237.30177C417.33334 237.82811 418.66666 238.3529 420.0 238.87617C421.33334 239.39943 422.66666 239.92116 424.0 240.44136C425.33334 240.96156 426.66666 241.48024 428.0 241.9974C429.33334 242.51457 430.66666 243.03021 432.0 243.54436C433.33334 244.05849 434.66666 244.57112 436.0 245.08226C437.33334 245.59338 438.66666 246.10301 440.0 246.61116C441.33334 247.11931 442.66666 247.62596 444.0 248.13115C445.33334 248.63632 446.66666 249.14001 448.0 249.64223C449.33334 250.14445 450.66666 250.6452 452.0 251.14449C453.33334 251.64378 454.66666 252.14159 456.0 252.63795C457.33334 253.13434 458.66666 253.62924 460.0 254.12271C461.33334 254.61618 462.66666 255.10818 464.0 255.59877C465.33334 256.08936 466.66666 256.5785 468.0 257.0662C469.33334 257.55392 470.66666 258.0402 472.0 258.52505C473.33334 259.00992 474.66666 259.49338 476.0 259.9754C477.33334 260.45743 478.66666 260.93802 480.0 261.41724C481.33334 261.89645 482.66666 262.37427 484.0 262.85068C485.33334 263.3271 486.66666 263.8021 488.0 264.2757C489.33334 264.74933 490.66666 265.22156 492.0 265.6924C493.33334 266.16327 494.66666 266.63275 496.0 267.10086C497.33334 267.56897 498.66666 268.03568 500.0 268.50104C501.33334 268.96643 502.66666 269.43042 504.0 269.89307C505.33334 270.3557 506.66666 270.817 508.0 271.27695C509.33334 271.73688 510.66666 272.19547 512.0 272.6527C513.3333 273.11 514.6667 273.5659 516.0 274.02048C517.3333 274.47504 518.6667 274.92828 520.0 275.38022C521.3333 275.83212 522.6667 276.2827 524.0 276.73203C525.3333 277.1813 526.6667 277.62924 528.0 278.0759C529.3333 278.52255 530.6667 278.9679 532.0 279.41196C533.3333 279.856 534.6667 280.29874 536.0 280.74017C537.3333 281.18164 538.6667 281.62177 540.0 282.06064C541.3333 282.4995 542.6667 282.93707 544.0 283.37338C545.3333 283.8097 546.6667 284.24472 548.0 284.67847C549.3333 285.1122 550.6667 285.54468 552.0 285.9759C553.3333 286.40714 554.6667 286.83707 556.0 287.26578C557.3333 287.69446 558.6667 288.1219 560.0 288.5481C561.3333 288.97427 562.6667 289.3992 564.0 289.8229C565.3333 290.2466 566.6667 290.66907 568.0 291.09027C569.3333 291.5115 570.6667 291.9315 572.0 292.35025C573.3333 292.76898 574.6667 293.18652 576.0 293.60284C577.3333 294.01913 580.0 294.8481 580.0 294.8481" fill-rule="nonzero"/><path fill="#000000" fill-opacity="0.0" clip-path="url(#id_0)" d="M83.55 68.03387C83.55 69.69073 82.206856 71.03387 80.55 71.03387C78.89314 71.03387 77.55 69.69073 77.55 68.03387C77.55 66.377014 78.89314 65.03387 80.55 65.03387C82.206856 65.03387 83.55 66.377014 83.55 68.03387Z" fill-rule="nonzero"/><path fill="#000000" fill-opacity="0.0" clip-path="url(#id_0)" d="M90.76461 70.821526C90.76461 72.47838 89.42146 73.821526 87.76461 73.821526C86.10776 73.821526 84.76461 72.47838 84.76461 70.821526C84.76461 69.16467 86.10776 67.821526 87.76461 67.821526C89.42146 67.821526 90.76461 69.16467 90.76461 70.821526Z" fill-rule="nonzero"/><path fill="#000000" fill-opacity="0.0" clip-path="url(#id_0)" d="M97.97922 74.07379C97.97922 75.730644 96.63607 77.07379 94.97922 77.07379C93.322365 77.07379 91.97922 75.730644 91.97922 74.07379C91.97922 72.41694 93.322365 71.07379 94.97922 71.07379C96.63607 71.07379 97.97922 72.41694 97.97922 74.07379Z" fill-rule="nonzero"/><path fill="#000000" fill-opacity="0.0" clip-path="url(#id_0)" d="M108.285805 79.6491C108.285805 81.305954 106.94266 82.6491 105.285805 82.6491C103.62895 82.6491 102.285805 81.305954 102.285805 79.6491C102.285805 77.99225 103.62895 76.6491 105.285805 76.6491C106.94266 76.6491 108.285805 77.99225 108.285805 79.6491Z" fill-rule="nonzero"/><path fill="#000000" fill-opacity="0.0" clip-path="url(#id_0)" d="M115.50041 86.61824C115.50041 88.27509 114.157265 89.61824 112.50041 89.61824C110.84356 89.61824 109.50041 88.27509 109.50041 86.61824C109.50041 84.96139 110.84356 83.61824 112.50041 83.61824C114.157265 83.61824 115.50041 84.96139 115.50041 86.61824Z" fill-rule="nonzero"/><path fill="#000000" fill-opacity="0.0" clip-path="url(#id_0)" d="M122.71502 92.65816C122.71502 94.31502 121.37187 95.65816 119.71502 95.65816C118.05817 95.65816 116.71502 94.31502 116.71502 92.65816C116.71502 91.001305 118.05817 89.65816 119.71502 89.65816C121.37187 89.65816 122.71502 91.001305 122.71502 92.65816Z" fill-rule="nonzero"/><path fill="#000000" d="M318.92188 349.45L318.92188 340.85626L321.89062 340.85626Q322.89062 340.85626 323.42188 340.98126Q324.15625 341.15314 324.67188 341.59064Q325.35938 342.16876 325.6875 343.075Q326.03125 343.96564 326.03125 345.10626Q326.03125 346.09064 325.79688 346.84064Q325.57812 347.59064 325.21875 348.09064Q324.85938 348.59064 324.42188 348.8719Q324.0 349.15314 323.40625 349.3094Q322.8125 349.45 322.03125 349.45L318.92188 349.45ZM320.0625 348.4344L321.89062 348.4344Q322.75 348.4344 323.23438 348.27814Q323.71875 348.1219 324.0 347.825Q324.40625 347.4344 324.625 346.7469Q324.85938 346.0594 324.85938 345.09064Q324.85938 343.7469 324.40625 343.02814Q323.96875 342.29376 323.34375 342.04376Q322.875 341.8719 321.875 341.8719L320.0625 341.8719L320.0625 348.4344ZM331.85938 348.6844Q331.26562 349.1844 330.71875 349.3875Q330.1875 349.59064 329.5625 349.59064Q328.53125 349.59064 327.98438 349.09064Q327.4375 348.59064 327.4375 347.8094Q327.4375 347.35626 327.64062 346.98126Q327.84375 346.59064 328.1875 346.3719Q328.53125 346.1375 328.95312 346.02814Q329.25 345.9344 329.89062 345.85626Q331.15625 345.71564 331.76562 345.4969Q331.76562 345.27814 331.76562 345.23126Q331.76562 344.575 331.46875 344.3094Q331.0625 343.96564 330.26562 343.96564Q329.53125 343.96564 329.17188 344.23126Q328.8125 344.48126 328.64062 345.1375L327.60938 344.9969Q327.75 344.34064 328.07812 343.9344Q328.40625 343.52814 329.01562 343.3094Q329.625 343.09064 330.42188 343.09064Q331.21875 343.09064 331.71875 343.27814Q332.21875 343.46564 332.45312 343.7469Q332.6875 344.02814 332.78125 344.46564Q332.82812 344.73126 332.82812 345.4344L332.82812 346.84064Q332.82812 348.3094 332.89062 348.7Q332.96875 349.09064 333.17188 349.45L332.0625 349.45Q331.90625 349.1219 331.85938 348.6844ZM331.76562 346.325Q331.1875 346.5594 330.04688 346.73126Q329.39062 346.825 329.125 346.95Q328.85938 347.0594 328.70312 347.27814Q328.5625 347.4969 328.5625 347.77814Q328.5625 348.2 328.875 348.48126Q329.20312 348.7625 329.8125 348.7625Q330.42188 348.7625 330.89062 348.4969Q331.375 348.23126 331.59375 347.7625Q331.76562 347.40314 331.76562 346.71564L331.76562 346.325ZM337.09375 348.5125L337.25 349.4344Q336.79688 349.52814 336.45312 349.52814Q335.875 349.52814 335.5625 349.35626Q335.25 349.16876 335.10938 348.8719Q334.98438 348.575 334.98438 347.6219L334.98438 344.04376L334.21875 344.04376L334.21875 343.23126L334.98438 343.23126L334.98438 341.6844L336.03125 341.0594L336.03125 343.23126L337.09375 343.23126L337.09375 344.04376L336.03125 344.04376L336.03125 347.6844Q336.03125 348.1375 336.07812 348.2625Q336.14062 348.3875 336.26562 348.46564Q336.39062 348.54376 336.625 348.54376Q336.8125 348.54376 337.09375 348.5125ZM342.04688 347.45L343.14062 347.575Q342.89062 348.52814 342.1875 349.0594Q341.48438 349.59064 340.40625 349.59064Q339.04688 349.59064 338.23438 348.7469Q337.4375 347.90314 337.4375 346.3875Q337.4375 344.825 338.25 343.96564Q339.0625 343.09064 340.34375 343.09064Q341.59375 343.09064 342.375 343.9344Q343.17188 344.77814 343.17188 346.325Q343.17188 346.41876 343.17188 346.60626L338.53125 346.60626Q338.59375 347.6375 339.10938 348.1844Q339.625 348.71564 340.40625 348.71564Q340.98438 348.71564 341.39062 348.41876Q341.8125 348.10626 342.04688 347.45ZM338.59375 345.7469L342.0625 345.7469Q342.0 344.95 341.67188 344.5594Q341.15625 343.95 340.35938 343.95Q339.625 343.95 339.125 344.4344Q338.64062 344.91876 338.59375 345.7469Z" fill-rule="nonzero"/><path fill="#000000" d="M29.550013 178.625L20.956263 178.625L20.956263 175.39062Q20.956263 174.40625 21.221888 173.8125Q21.487513 173.21875 22.034388 172.89062Q22.565638 172.54688 23.159388 172.54688Q23.706263 172.54688 24.190638 172.84375Q24.675013 173.14062 24.971888 173.75Q25.206263 172.96875 25.768763 172.5625Q26.315638 172.14062 27.065638 172.14062Q27.659388 172.14062 28.190638 172.39062Q28.706263 172.64062 28.987513 173.01562Q29.268763 173.39062 29.409388 173.96875Q29.550013 174.53125 29.550013 175.34375L29.550013 178.625ZM24.565638 177.48438L24.565638 175.625Q24.565638 174.875 24.471888 174.54688Q24.346888 174.10938 24.050013 173.89062Q23.737513 173.67188 23.284388 173.67188Q22.862513 173.67188 22.534388 173.875Q22.206263 174.07812 22.096888 174.46875Q21.971888 174.84375 21.971888 175.76562L21.971888 177.48438L24.565638 177.48438ZM28.534388 177.48438L28.534388 175.34375Q28.534388 174.79688 28.487513 174.57812Q28.425013 174.17188 28.268763 173.92188Q28.096888 173.65625 27.784388 173.48438Q27.471888 173.3125 27.065638 173.3125Q26.581263 173.3125 26.221888 173.5625Q25.862513 173.79688 25.721888 174.23438Q25.581263 174.67188 25.581263 175.5L25.581263 177.48438L28.534388 177.48438ZM29.550013 170.60938L20.956263 170.60938L20.956263 168.89062L27.034388 166.85938Q27.893763 166.57812 28.315638 166.45312Q27.846888 166.3125 26.940638 166.0L20.956263 163.9375L20.956263 162.40625L29.550013 162.40625L29.550013 163.5L22.362513 163.5L29.550013 166.0L29.550013 167.03125L22.237513 169.51562L29.550013 169.51562L29.550013 170.60938ZM29.550013 161.375L20.956263 161.375L20.956263 160.25L29.550013 160.25L29.550013 161.375Z" fill-rule="nonzero"/><path fill="#000000" d="M55.01875 304.45L53.971874 304.45L53.971874 297.73126Q53.58125 298.09064 52.95625 298.46564Q52.346874 298.825 51.8625 298.9969L51.8625 297.98126Q52.7375 297.5594 53.39375 296.98126Q54.065624 296.3875 54.346874 295.825L55.01875 295.825L55.01875 304.45ZM58.05 302.2L59.159374 302.10626Q59.284374 302.91876 59.721874 303.325Q60.175 303.73126 60.815624 303.73126Q61.565624 303.73126 62.096874 303.15314Q62.628124 302.575 62.628124 301.6375Q62.628124 300.73126 62.1125 300.21564Q61.6125 299.6844 60.784374 299.6844Q60.284374 299.6844 59.8625 299.91876Q59.45625 300.15314 59.221874 300.5125L58.2375 300.3875L59.065624 295.98126L63.346874 295.98126L63.346874 296.98126L59.909374 296.98126L59.45625 299.29376Q60.221874 298.7469 61.065624 298.7469Q62.190624 298.7469 62.95625 299.52814Q63.7375 300.3094 63.7375 301.54376Q63.7375 302.7 63.065624 303.5594Q62.2375 304.59064 60.815624 304.59064Q59.64375 304.59064 58.89375 303.9344Q58.159374 303.27814 58.05 302.2ZM65.64375 304.45L65.64375 303.2469L66.84688 303.2469L66.84688 304.45L65.64375 304.45ZM68.05 300.21564Q68.05 298.6844 68.3625 297.7625Q68.675 296.825 69.28438 296.325Q69.90938 295.825 70.84688 295.825Q71.53438 295.825 72.05 296.10626Q72.58125 296.3875 72.925 296.91876Q73.26875 297.4344 73.45625 298.1844Q73.64375 298.9344 73.64375 300.21564Q73.64375 301.73126 73.33125 302.65314Q73.03438 303.575 72.40938 304.09064Q71.8 304.59064 70.84688 304.59064Q69.6125 304.59064 68.89375 303.7Q68.05 302.6375 68.05 300.21564ZM69.12813 300.21564Q69.12813 302.325 69.62813 303.02814Q70.12813 303.73126 70.84688 303.73126Q71.58125 303.73126 72.06563 303.02814Q72.56563 302.325 72.56563 300.21564Q72.56563 298.09064 72.06563 297.40314Q71.58125 296.7 70.83125 296.7Q70.1125 296.7 69.675 297.3094Q69.12813 298.09064 69.12813 300.21564Z" fill-rule="nonzero"/><path fill="#000000" d="M56.596874 234.70938L56.596874 235.725L50.909374 235.725Q50.909374 235.35 51.034374 234.99063Q51.253124 234.4125 51.721874 233.85Q52.20625 233.2875 53.1125 232.55313Q54.51875 231.39688 55.003124 230.725Q55.503124 230.05313 55.503124 229.45938Q55.503124 228.83438 55.05 228.4125Q54.596874 227.975 53.878124 227.975Q53.1125 227.975 52.659374 228.42813Q52.20625 228.88126 52.190624 229.69376L51.1125 229.58438Q51.221874 228.36563 51.940624 227.74063Q52.675 227.1 53.909374 227.1Q55.14375 227.1 55.8625 227.7875Q56.58125 228.475 56.58125 229.49063Q56.58125 230.00626 56.3625 230.50626Q56.159374 230.99063 55.659374 231.55313Q55.175 232.1 54.05 233.05313Q53.096874 233.85 52.815624 234.14688Q52.55 234.42813 52.378124 234.70938L56.596874 234.70938ZM58.05 231.49063Q58.05 229.95938 58.3625 229.0375Q58.675 228.1 59.284374 227.6Q59.909374 227.1 60.846874 227.1Q61.534374 227.1 62.05 227.38126Q62.58125 227.6625 62.925 228.19376Q63.26875 228.70938 63.45625 229.45938Q63.64375 230.20938 63.64375 231.49063Q63.64375 233.00626 63.33125 233.92813Q63.034374 234.85 62.409374 235.36563Q61.8 235.86563 60.846874 235.86563Q59.6125 235.86563 58.89375 234.975Q58.05 233.9125 58.05 231.49063ZM59.128124 231.49063Q59.128124 233.6 59.628124 234.30313Q60.128124 235.00626 60.846874 235.00626Q61.58125 235.00626 62.065624 234.30313Q62.565624 233.6 62.565624 231.49063Q62.565624 229.36563 62.065624 228.67813Q61.58125 227.975 60.83125 227.975Q60.1125 227.975 59.675 228.58438Q59.128124 229.36563 59.128124 231.49063ZM65.64375 235.725L65.64375 234.52188L66.84688 234.52188L66.84688 235.725L65.64375 235.725ZM68.05 231.49063Q68.05 229.95938 68.3625 229.0375Q68.675 228.1 69.28438 227.6Q69.90938 227.1 70.84688 227.1Q71.53438 227.1 72.05 227.38126Q72.58125 227.6625 72.925 228.19376Q73.26875 228.70938 73.45625 229.45938Q73.64375 230.20938 73.64375 231.49063Q73.64375 233.00626 73.33125 233.92813Q73.03438 234.85 72.40938 235.36563Q71.8 235.86563 70.84688 235.86563Q69.6125 235.86563 68.89375 234.975Q68.05 233.9125 68.05 231.49063ZM69.12813 231.49063Q69.12813 233.6 69.62813 234.30313Q70.12813 235.00626 70.84688 235.00626Q71.58125 235.00626 72.06563 234.30313Q72.56563 233.6 72.56563 231.49063Q72.56563 229.36563 72.06563 228.67813Q71.58125 227.975 70.83125 227.975Q70.1125 227.975 69.675 228.58438Q69.12813 229.36563 69.12813 231.49063Z" fill-rule="nonzero"/><path fill="#000000" d="M56.596874 165.98438L56.596874 167.0L50.909374 167.0Q50.909374 166.625 51.034374 166.26562Q51.253124 165.6875 51.721874 165.125Q52.20625 164.5625 53.1125 163.82812Q54.51875 162.67188 55.003124 162.0Q55.503124 161.32812 55.503124 160.73438Q55.503124 160.10938 55.05 159.6875Q54.596874 159.25 53.878124 159.25Q53.1125 159.25 52.659374 159.70312Q52.20625 160.15625 52.190624 160.96875L51.1125 160.85938Q51.221874 159.64062 51.940624 159.01562Q52.675 158.375 53.909374 158.375Q55.14375 158.375 55.8625 159.0625Q56.58125 159.75 56.58125 160.76562Q56.58125 161.28125 56.3625 161.78125Q56.159374 162.26562 55.659374 162.82812Q55.175 163.375 54.05 164.32812Q53.096874 165.125 52.815624 165.42188Q52.55 165.70312 52.378124 165.98438L56.596874 165.98438ZM58.05 164.75L59.159374 164.65625Q59.284374 165.46875 59.721874 165.875Q60.175 166.28125 60.815624 166.28125Q61.565624 166.28125 62.096874 165.70312Q62.628124 165.125 62.628124 164.1875Q62.628124 163.28125 62.1125 162.76562Q61.6125 162.23438 60.784374 162.23438Q60.284374 162.23438 59.8625 162.46875Q59.45625 162.70312 59.221874 163.0625L58.2375 162.9375L59.065624 158.53125L63.346874 158.53125L63.346874 159.53125L59.909374 159.53125L59.45625 161.84375Q60.221874 161.29688 61.065624 161.29688Q62.190624 161.29688 62.95625 162.07812Q63.7375 162.85938 63.7375 164.09375Q63.7375 165.25 63.065624 166.10938Q62.2375 167.14062 60.815624 167.14062Q59.64375 167.14062 58.89375 166.48438Q58.159374 165.82812 58.05 164.75ZM65.64375 167.0L65.64375 165.79688L66.84688 165.79688L66.84688 167.0L65.64375 167.0ZM68.05 162.76562Q68.05 161.23438 68.3625 160.3125Q68.675 159.375 69.28438 158.875Q69.90938 158.375 70.84688 158.375Q71.53438 158.375 72.05 158.65625Q72.58125 158.9375 72.925 159.46875Q73.26875 159.98438 73.45625 160.73438Q73.64375 161.48438 73.64375 162.76562Q73.64375 164.28125 73.33125 165.20312Q73.03438 166.125 72.40938 166.64062Q71.8 167.14062 70.84688 167.14062Q69.6125 167.14062 68.89375 166.25Q68.05 165.1875 68.05 162.76562ZM69.12813 162.76562Q69.12813 164.875 69.62813 165.57812Q70.12813 166.28125 70.84688 166.28125Q71.58125 166.28125 72.06563 165.57812Q72.56563 164.875 72.56563 162.76562Q72.56563 160.64062 72.06563 159.95312Q71.58125 159.25 70.83125 159.25Q70.1125 159.25 69.675 159.85938Q69.12813 160.64062 69.12813 162.76562Z" fill-rule="nonzero"/><path fill="#000000" d="M51.05 96.00938L52.1125 95.86875Q52.284374 96.75938 52.721874 97.16563Q53.159374 97.55625 53.784374 97.55625Q54.534374 97.55625 55.05 97.04063Q55.565624 96.525 55.565624 95.75938Q55.565624 95.04063 55.08125 94.57188Q54.6125 94.0875 53.878124 94.0875Q53.58125 94.0875 53.128124 94.2125L53.253124 93.275Q53.3625 93.29063 53.425 93.29063Q54.096874 93.29063 54.628124 92.94688Q55.175 92.5875 55.175 91.85313Q55.175 91.275 54.784374 90.9Q54.39375 90.50938 53.76875 90.50938Q53.159374 90.50938 52.7375 90.9Q52.33125 91.29063 52.221874 92.05625L51.159374 91.86875Q51.346874 90.82188 52.034374 90.24375Q52.721874 89.65 53.7375 89.65Q54.440624 89.65 55.034374 89.9625Q55.628124 90.25938 55.940624 90.775Q56.253124 91.29063 56.253124 91.88438Q56.253124 92.43125 55.95625 92.9Q55.659374 93.35313 55.08125 93.61875Q55.83125 93.79063 56.253124 94.35313Q56.675 94.9 56.675 95.74375Q56.675 96.86875 55.846874 97.65Q55.034374 98.43125 53.784374 98.43125Q52.659374 98.43125 51.909374 97.75938Q51.159374 97.07188 51.05 96.00938ZM58.05 94.04063Q58.05 92.50938 58.3625 91.5875Q58.675 90.65 59.284374 90.15Q59.909374 89.65 60.846874 89.65Q61.534374 89.65 62.05 89.93125Q62.58125 90.2125 62.925 90.74375Q63.26875 91.25938 63.45625 92.00938Q63.64375 92.75938 63.64375 94.04063Q63.64375 95.55625 63.33125 96.47813Q63.034374 97.4 62.409374 97.91563Q61.8 98.41563 60.846874 98.41563Q59.6125 98.41563 58.89375 97.525Q58.05 96.4625 58.05 94.04063ZM59.128124 94.04063Q59.128124 96.15 59.628124 96.85313Q60.128124 97.55625 60.846874 97.55625Q61.58125 97.55625 62.065624 96.85313Q62.565624 96.15 62.565624 94.04063Q62.565624 91.91563 62.065624 91.22813Q61.58125 90.525 60.83125 90.525Q60.1125 90.525 59.675 91.13438Q59.128124 91.91563 59.128124 94.04063ZM65.64375 98.275L65.64375 97.07188L66.84688 97.07188L66.84688 98.275L65.64375 98.275ZM68.05 94.04063Q68.05 92.50938 68.3625 91.5875Q68.675 90.65 69.28438 90.15Q69.90938 89.65 70.84688 89.65Q71.53438 89.65 72.05 89.93125Q72.58125 90.2125 72.925 90.74375Q73.26875 91.25938 73.45625 92.00938Q73.64375 92.75938 73.64375 94.04063Q73.64375 95.55625 73.33125 96.47813Q73.03438 97.4 72.40938 97.91563Q71.8 98.41563 70.84688 98.41563Q69.6125 98.41563 68.89375 97.525Q68.05 96.4625 68.05 94.04063ZM69.12813 94.04063Q69.12813 96.15 69.62813 96.85313Q70.12813 97.55625 70.84688 97.55625Q71.58125 97.55625 72.06563 96.85313Q72.56563 96.15 72.56563 94.04063Q72.56563 91.91563 72.06563 91.22813Q71.58125 90.525 70.83125 90.525Q70.1125 90.525 69.675 91.13438Q69.12813 91.91563 69.12813 94.04063Z" fill-rule="nonzero"/><path fill="#000000" d="M51.05 27.284374L52.1125 27.14375Q52.284374 28.034374 52.721874 28.440624Q53.159374 28.83125 53.784374 28.83125Q54.534374 28.83125 55.05 28.315624Q55.565624 27.8 55.565624 27.034374Q55.565624 26.315624 55.08125 25.846874Q54.6125 25.3625 53.878124 25.3625Q53.58125 25.3625 53.128124 25.4875L53.253124 24.55Q53.3625 24.565624 53.425 24.565624Q54.096874 24.565624 54.628124 24.221874Q55.175 23.8625 55.175 23.128124Q55.175 22.55 54.784374 22.175Q54.39375 21.784374 53.76875 21.784374Q53.159374 21.784374 52.7375 22.175Q52.33125 22.565624 52.221874 23.33125L51.159374 23.14375Q51.346874 22.096874 52.034374 21.51875Q52.721874 20.925 53.7375 20.925Q54.440624 20.925 55.034374 21.2375Q55.628124 21.534374 55.940624 22.05Q56.253124 22.565624 56.253124 23.159374Q56.253124 23.70625 55.95625 24.175Q55.659374 24.628124 55.08125 24.89375Q55.83125 25.065624 56.253124 25.628124Q56.675 26.175 56.675 27.01875Q56.675 28.14375 55.846874 28.925Q55.034374 29.70625 53.784374 29.70625Q52.659374 29.70625 51.909374 29.034374Q51.159374 28.346874 51.05 27.284374ZM58.05 27.3L59.159374 27.20625Q59.284374 28.01875 59.721874 28.425Q60.175 28.83125 60.815624 28.83125Q61.565624 28.83125 62.096874 28.253124Q62.628124 27.675 62.628124 26.7375Q62.628124 25.83125 62.1125 25.315624Q61.6125 24.784374 60.784374 24.784374Q60.284374 24.784374 59.8625 25.01875Q59.45625 25.253124 59.221874 25.6125L58.2375 25.4875L59.065624 21.08125L63.346874 21.08125L63.346874 22.08125L59.909374 22.08125L59.45625 24.39375Q60.221874 23.846874 61.065624 23.846874Q62.190624 23.846874 62.95625 24.628124Q63.7375 25.409374 63.7375 26.64375Q63.7375 27.8 63.065624 28.659374Q62.2375 29.690624 60.815624 29.690624Q59.64375 29.690624 58.89375 29.034374Q58.159374 28.378124 58.05 27.3ZM65.64375 29.55L65.64375 28.346874L66.84688 28.346874L66.84688 29.55L65.64375 29.55ZM68.05 25.315624Q68.05 23.784374 68.3625 22.8625Q68.675 21.925 69.28438 21.425Q69.90938 20.925 70.84688 20.925Q71.53438 20.925 72.05 21.20625Q72.58125 21.4875 72.925 22.01875Q73.26875 22.534374 73.45625 23.284374Q73.64375 24.034374 73.64375 25.315624Q73.64375 26.83125 73.33125 27.753124Q73.03438 28.675 72.40938 29.190624Q71.8 29.690624 70.84688 29.690624Q69.6125 29.690624 68.89375 28.8Q68.05 27.7375 68.05 25.315624ZM69.12813 25.315624Q69.12813 27.425 69.62813 28.128124Q70.12813 28.83125 70.84688 28.83125Q71.58125 28.83125 72.06563 28.128124Q72.56563 27.425 72.56563 25.315624Q72.56563 23.190624 72.06563 22.503124Q71.58125 21.8 70.83125 21.8Q70.1125 21.8 69.675 22.409374Q69.12813 23.190624 69.12813 25.315624Z" fill-rule="nonzero"/><path fill="#000000" d="M84.06173 313.21564Q84.06173 311.6844 84.37423 310.7625Q84.68673 309.825 85.296104 309.325Q85.921104 308.825 86.858604 308.825Q87.546104 308.825 88.06173 309.10626Q88.59298 309.3875 88.93673 309.91876Q89.28048 310.4344 89.46798 311.1844Q89.65548 311.9344 89.65548 313.21564Q89.65548 314.73126 89.34298 315.65314Q89.046104 316.575 88.421104 317.09064Q87.81173 317.59064 86.858604 317.59064Q85.62423 317.59064 84.90548 316.7Q84.06173 315.6375 84.06173 313.21564ZM85.139854 313.21564Q85.139854 315.325 85.639854 316.02814Q86.139854 316.73126 86.858604 316.73126Q87.59298 316.73126 88.077354 316.02814Q88.577354 315.325 88.577354 313.21564Q88.577354 311.09064 88.077354 310.40314Q87.59298 309.7 86.84298 309.7Q86.12423 309.7 85.68673 310.3094Q85.139854 311.09064 85.139854 313.21564ZM95.03048 317.45L93.983604 317.45L93.983604 310.73126Q93.59298 311.09064 92.96798 311.46564Q92.358604 311.825 91.87423 311.9969L91.87423 310.98126Q92.74923 310.5594 93.40548 309.98126Q94.077354 309.3875 94.358604 308.825L95.03048 308.825L95.03048 317.45ZM97.56173 317.59064L100.046104 308.71564L100.889854 308.71564L98.40548 317.59064L97.56173 317.59064ZM105.03048 317.45L103.983604 317.45L103.983604 310.73126Q103.59298 311.09064 102.96798 311.46564Q102.358604 311.825 101.87423 311.9969L101.87423 310.98126Q102.74923 310.5594 103.40548 309.98126Q104.077354 309.3875 104.358604 308.825L105.03048 308.825L105.03048 317.45ZM108.06173 313.21564Q108.06173 311.6844 108.37423 310.7625Q108.68673 309.825 109.296104 309.325Q109.921104 308.825 110.858604 308.825Q111.546104 308.825 112.06173 309.10626Q112.59298 309.3875 112.93673 309.91876Q113.28048 310.4344 113.46798 311.1844Q113.65548 311.9344 113.65548 313.21564Q113.65548 314.73126 113.34298 315.65314Q113.046104 316.575 112.421104 317.09064Q111.81173 317.59064 110.858604 317.59064Q109.62423 317.59064 108.90548 316.7Q108.06173 315.6375 108.06173 313.21564ZM109.139854 313.21564Q109.139854 315.325 109.639854 316.02814Q110.139854 316.73126 110.858604 316.73126Q111.59298 316.73126 112.077354 316.02814Q112.577354 315.325 112.577354 313.21564Q112.577354 311.09064 112.077354 310.40314Q111.59298 309.7 110.84298 309.7Q110.12423 309.7 109.68673 310.3094Q109.139854 311.09064 109.139854 313.21564ZM114.56173 317.59064L117.046104 308.71564L117.889854 308.71564L115.40548 317.59064L114.56173 317.59064ZM123.608604 316.4344L123.608604 317.45L117.921104 317.45Q117.921104 317.075 118.046104 316.71564Q118.264854 316.1375 118.733604 315.575Q119.21798 315.0125 120.12423 314.27814Q121.53048 313.1219 122.014854 312.45Q122.514854 311.77814 122.514854 311.1844Q122.514854 310.5594 122.06173 310.1375Q121.608604 309.7 120.889854 309.7Q120.12423 309.7 119.671104 310.15314Q119.21798 310.60626 119.202354 311.41876L118.12423 311.3094Q118.233604 310.09064 118.952354 309.46564Q119.68673 308.825 120.921104 308.825Q122.15548 308.825 122.87423 309.5125Q123.59298 310.2 123.59298 311.21564Q123.59298 311.73126 123.37423 312.23126Q123.171104 312.71564 122.671104 313.27814Q122.18673 313.825 121.06173 314.77814Q120.108604 315.575 119.827354 315.8719Q119.56173 316.15314 119.389854 316.4344L123.608604 316.4344ZM125.06173 313.21564Q125.06173 311.6844 125.37423 310.7625Q125.68673 309.825 126.296104 309.325Q126.921104 308.825 127.858604 308.825Q128.54611 308.825 129.06174 309.10626Q129.59299 309.3875 129.93674 309.91876Q130.28049 310.4344 130.46799 311.1844Q130.65549 311.9344 130.65549 313.21564Q130.65549 314.73126 130.34299 315.65314Q130.04611 316.575 129.42111 317.09064Q128.81174 317.59064 127.858604 317.59064Q126.62423 317.59064 125.90548 316.7Q125.06173 315.6375 125.06173 313.21564ZM126.139854 313.21564Q126.139854 315.325 126.639854 316.02814Q127.139854 316.73126 127.858604 316.73126Q128.59299 316.73126 129.07736 316.02814Q129.57736 315.325 129.57736 313.21564Q129.57736 311.09064 129.07736 310.40314Q128.59299 309.7 127.84298 309.7Q127.12423 309.7 126.68673 310.3094Q126.139854 311.09064 126.139854 313.21564ZM137.60861 316.4344L137.60861 317.45L131.92111 317.45Q131.92111 317.075 132.04611 316.71564Q132.26486 316.1375 132.73361 315.575Q133.21799 315.0125 134.12424 314.27814Q135.53049 313.1219 136.01486 312.45Q136.51486 311.77814 136.51486 311.1844Q136.51486 310.5594 136.06174 310.1375Q135.60861 309.7 134.88986 309.7Q134.12424 309.7 133.67111 310.15314Q133.21799 310.60626 133.20236 311.41876L132.12424 311.3094Q132.23361 310.09064 132.95236 309.46564Q133.68674 308.825 134.92111 308.825Q136.15549 308.825 136.87424 309.5125Q137.59299 310.2 137.59299 311.21564Q137.59299 311.73126 137.37424 312.23126Q137.17111 312.71564 136.67111 313.27814Q136.18674 313.825 135.06174 314.77814Q134.10861 315.575 133.82736 315.8719Q133.56174 316.15314 133.38986 316.4344L137.60861 316.4344ZM142.43674 317.45L142.43674 315.3875L138.71799 315.3875L138.71799 314.41876L142.63986 308.85626L143.49924 308.85626L143.49924 314.41876L144.65549 314.41876L144.65549 315.3875L143.49924 315.3875L143.49924 317.45L142.43674 317.45ZM142.43674 314.41876L142.43674 310.5594L139.74924 314.41876L142.43674 314.41876Z" fill-rule="nonzero"/><path fill="#000000" d="M178.88231 313.21564Q178.88231 311.6844 179.19481 310.7625Q179.50731 309.825 180.11668 309.325Q180.74168 308.825 181.67918 308.825Q182.36668 308.825 182.88231 309.10626Q183.41356 309.3875 183.75731 309.91876Q184.10106 310.4344 184.28856 311.1844Q184.47606 311.9344 184.47606 313.21564Q184.47606 314.73126 184.16356 315.65314Q183.86668 316.575 183.24168 317.09064Q182.63231 317.59064 181.67918 317.59064Q180.44481 317.59064 179.72606 316.7Q178.88231 315.6375 178.88231 313.21564ZM179.96043 313.21564Q179.96043 315.325 180.46043 316.02814Q180.96043 316.73126 181.67918 316.73126Q182.41356 316.73126 182.89793 316.02814Q183.39793 315.325 183.39793 313.21564Q183.39793 311.09064 182.89793 310.40314Q182.41356 309.7 181.66356 309.7Q180.94481 309.7 180.50731 310.3094Q179.96043 311.09064 179.96043 313.21564ZM189.85106 317.45L188.80418 317.45L188.80418 310.73126Q188.41356 311.09064 187.78856 311.46564Q187.17918 311.825 186.69481 311.9969L186.69481 310.98126Q187.56981 310.5594 188.22606 309.98126Q188.89793 309.3875 189.17918 308.825L189.85106 308.825L189.85106 317.45ZM192.38231 317.59064L194.86668 308.71564L195.71043 308.71564L193.22606 317.59064L192.38231 317.59064ZM195.88231 313.21564Q195.88231 311.6844 196.19481 310.7625Q196.50731 309.825 197.11668 309.325Q197.74168 308.825 198.67918 308.825Q199.36668 308.825 199.88231 309.10626Q200.41356 309.3875 200.75731 309.91876Q201.10106 310.4344 201.28856 311.1844Q201.47606 311.9344 201.47606 313.21564Q201.47606 314.73126 201.16356 315.65314Q200.86668 316.575 200.24168 317.09064Q199.63231 317.59064 198.67918 317.59064Q197.44481 317.59064 196.72606 316.7Q195.88231 315.6375 195.88231 313.21564ZM196.96043 313.21564Q196.96043 315.325 197.46043 316.02814Q197.96043 316.73126 198.67918 316.73126Q199.41356 316.73126 199.89793 316.02814Q200.39793 315.325 200.39793 313.21564Q200.39793 311.09064 199.89793 310.40314Q199.41356 309.7 198.66356 309.7Q197.94481 309.7 197.50731 310.3094Q196.96043 311.09064 196.96043 313.21564ZM206.85106 317.45L205.80418 317.45L205.80418 310.73126Q205.41356 311.09064 204.78856 311.46564Q204.17918 311.825 203.69481 311.9969L203.69481 310.98126Q204.56981 310.5594 205.22606 309.98126Q205.89793 309.3875 206.17918 308.825L206.85106 308.825L206.85106 317.45ZM209.38231 317.59064L211.86668 308.71564L212.71043 308.71564L210.22606 317.59064L209.38231 317.59064ZM218.42918 316.4344L218.42918 317.45L212.74168 317.45Q212.74168 317.075 212.86668 316.71564Q213.08543 316.1375 213.55418 315.575Q214.03856 315.0125 214.94481 314.27814Q216.35106 313.1219 216.83543 312.45Q217.33543 311.77814 217.33543 311.1844Q217.33543 310.5594 216.88231 310.1375Q216.42918 309.7 215.71043 309.7Q214.94481 309.7 214.49168 310.15314Q214.03856 310.60626 214.02293 311.41876L212.94481 311.3094Q213.05418 310.09064 213.77293 309.46564Q214.50731 308.825 215.74168 308.825Q216.97606 308.825 217.69481 309.5125Q218.41356 310.2 218.41356 311.21564Q218.41356 311.73126 218.19481 312.23126Q217.99168 312.71564 217.49168 313.27814Q217.00731 313.825 215.88231 314.77814Q214.92918 315.575 214.64793 315.8719Q214.38231 316.15314 214.21043 316.4344L218.42918 316.4344ZM219.88231 313.21564Q219.88231 311.6844 220.19481 310.7625Q220.50731 309.825 221.11668 309.325Q221.74168 308.825 222.67918 308.825Q223.36668 308.825 223.88231 309.10626Q224.41356 309.3875 224.75731 309.91876Q225.10106 310.4344 225.28856 311.1844Q225.47606 311.9344 225.47606 313.21564Q225.47606 314.73126 225.16356 315.65314Q224.86668 316.575 224.24168 317.09064Q223.63231 317.59064 222.67918 317.59064Q221.44481 317.59064 220.72606 316.7Q219.88231 315.6375 219.88231 313.21564ZM220.96043 313.21564Q220.96043 315.325 221.46043 316.02814Q221.96043 316.73126 222.67918 316.73126Q223.41356 316.73126 223.89793 316.02814Q224.39793 315.325 224.39793 313.21564Q224.39793 311.09064 223.89793 310.40314Q223.41356 309.7 222.66356 309.7Q221.94481 309.7 221.50731 310.3094Q220.96043 311.09064 220.96043 313.21564ZM232.42918 316.4344L232.42918 317.45L226.74168 317.45Q226.74168 317.075 226.86668 316.71564Q227.08543 316.1375 227.55418 315.575Q228.03856 315.0125 228.94481 314.27814Q230.35106 313.1219 230.83543 312.45Q231.33543 311.77814 231.33543 311.1844Q231.33543 310.5594 230.88231 310.1375Q230.42918 309.7 229.71043 309.7Q228.94481 309.7 228.49168 310.15314Q228.03856 310.60626 228.02293 311.41876L226.94481 311.3094Q227.05418 310.09064 227.77293 309.46564Q228.50731 308.825 229.74168 308.825Q230.97606 308.825 231.69481 309.5125Q232.41356 310.2 232.41356 311.21564Q232.41356 311.73126 232.19481 312.23126Q231.99168 312.71564 231.49168 313.27814Q231.00731 313.825 229.88231 314.77814Q228.92918 315.575 228.64793 315.8719Q228.38231 316.15314 228.21043 316.4344L232.42918 316.4344ZM233.88231 315.2L234.99168 315.10626Q235.11668 315.91876 235.55418 316.325Q236.00731 316.73126 236.64793 316.73126Q237.39793 316.73126 237.92918 316.15314Q238.46043 315.575 238.46043 314.6375Q238.46043 313.73126 237.94481 313.21564Q237.44481 312.6844 236.61668 312.6844Q236.11668 312.6844 235.69481 312.91876Q235.28856 313.15314 235.05418 313.5125L234.06981 313.3875L234.89793 308.98126L239.17918 308.98126L239.17918 309.98126L235.74168 309.98126L235.28856 312.29376Q236.05418 311.7469 236.89793 311.7469Q238.02293 311.7469 238.78856 312.52814Q239.56981 313.3094 239.56981 314.54376Q239.56981 315.7 238.89793 316.5594Q238.06981 317.59064 236.64793 317.59064Q235.47606 317.59064 234.72606 316.9344Q233.99168 316.27814 233.88231 315.2Z" fill-rule="nonzero"/><path fill="#000000" d="M271.64157 313.21564Q271.64157 311.6844 271.95407 310.7625Q272.26657 309.825 272.87595 309.325Q273.50095 308.825 274.43845 308.825Q275.12595 308.825 275.64157 309.10626Q276.17282 309.3875 276.51657 309.91876Q276.86032 310.4344 277.04782 311.1844Q277.23532 311.9344 277.23532 313.21564Q277.23532 314.73126 276.92282 315.65314Q276.62595 316.575 276.00095 317.09064Q275.39157 317.59064 274.43845 317.59064Q273.20407 317.59064 272.48532 316.7Q271.64157 315.6375 271.64157 313.21564ZM272.7197 313.21564Q272.7197 315.325 273.2197 316.02814Q273.7197 316.73126 274.43845 316.73126Q275.17282 316.73126 275.6572 316.02814Q276.1572 315.325 276.1572 313.21564Q276.1572 311.09064 275.6572 310.40314Q275.17282 309.7 274.42282 309.7Q273.70407 309.7 273.26657 310.3094Q272.7197 311.09064 272.7197 313.21564ZM282.61032 317.45L281.56345 317.45L281.56345 310.73126Q281.17282 311.09064 280.54782 311.46564Q279.93845 311.825 279.45407 311.9969L279.45407 310.98126Q280.32907 310.5594 280.98532 309.98126Q281.6572 309.3875 281.93845 308.825L282.61032 308.825L282.61032 317.45ZM285.14157 317.59064L287.62595 308.71564L288.4697 308.71564L285.98532 317.59064L285.14157 317.59064ZM288.64157 313.21564Q288.64157 311.6844 288.95407 310.7625Q289.26657 309.825 289.87595 309.325Q290.50095 308.825 291.43845 308.825Q292.12595 308.825 292.64157 309.10626Q293.17282 309.3875 293.51657 309.91876Q293.86032 310.4344 294.04782 311.1844Q294.23532 311.9344 294.23532 313.21564Q294.23532 314.73126 293.92282 315.65314Q293.62595 316.575 293.00095 317.09064Q292.39157 317.59064 291.43845 317.59064Q290.20407 317.59064 289.48532 316.7Q288.64157 315.6375 288.64157 313.21564ZM289.7197 313.21564Q289.7197 315.325 290.2197 316.02814Q290.7197 316.73126 291.43845 316.73126Q292.17282 316.73126 292.6572 316.02814Q293.1572 315.325 293.1572 313.21564Q293.1572 311.09064 292.6572 310.40314Q292.17282 309.7 291.42282 309.7Q290.70407 309.7 290.26657 310.3094Q289.7197 311.09064 289.7197 313.21564ZM299.01657 317.45L299.01657 315.3875L295.29782 315.3875L295.29782 314.41876L299.2197 308.85626L300.07907 308.85626L300.07907 314.41876L301.23532 314.41876L301.23532 315.3875L300.07907 315.3875L300.07907 317.45L299.01657 317.45ZM299.01657 314.41876L299.01657 310.5594L296.32907 314.41876L299.01657 314.41876ZM302.14157 317.59064L304.62595 308.71564L305.4697 308.71564L302.98532 317.59064L302.14157 317.59064ZM311.18845 316.4344L311.18845 317.45L305.50095 317.45Q305.50095 317.075 305.62595 316.71564Q305.8447 316.1375 306.31345 315.575Q306.79782 315.0125 307.70407 314.27814Q309.11032 313.1219 309.5947 312.45Q310.0947 311.77814 310.0947 311.1844Q310.0947 310.5594 309.64157 310.1375Q309.18845 309.7 308.4697 309.7Q307.70407 309.7 307.25095 310.15314Q306.79782 310.60626 306.7822 311.41876L305.70407 311.3094Q305.81345 310.09064 306.5322 309.46564Q307.26657 308.825 308.50095 308.825Q309.73532 308.825 310.45407 309.5125Q311.17282 310.2 311.17282 311.21564Q311.17282 311.73126 310.95407 312.23126Q310.75095 312.71564 310.25095 313.27814Q309.76657 313.825 308.64157 314.77814Q307.68845 315.575 307.4072 315.8719Q307.14157 316.15314 306.9697 316.4344L311.18845 316.4344ZM312.64157 313.21564Q312.64157 311.6844 312.95407 310.7625Q313.26657 309.825 313.87595 309.325Q314.50095 308.825 315.43845 308.825Q316.12595 308.825 316.64157 309.10626Q317.17282 309.3875 317.51657 309.91876Q317.86032 310.4344 318.04782 311.1844Q318.23532 311.9344 318.23532 313.21564Q318.23532 314.73126 317.92282 315.65314Q317.62595 316.575 317.00095 317.09064Q316.39157 317.59064 315.43845 317.59064Q314.20407 317.59064 313.48532 316.7Q312.64157 315.6375 312.64157 313.21564ZM313.7197 313.21564Q313.7197 315.325 314.2197 316.02814Q314.7197 316.73126 315.43845 316.73126Q316.17282 316.73126 316.6572 316.02814Q317.1572 315.325 317.1572 313.21564Q317.1572 311.09064 316.6572 310.40314Q316.17282 309.7 315.42282 309.7Q314.70407 309.7 314.26657 310.3094Q313.7197 311.09064 313.7197 313.21564ZM325.18845 316.4344L325.18845 317.45L319.50095 317.45Q319.50095 317.075 319.62595 316.71564Q319.8447 316.1375 320.31345 315.575Q320.79782 315.0125 321.70407 314.27814Q323.11032 313.1219 323.5947 312.45Q324.0947 311.77814 324.0947 311.1844Q324.0947 310.5594 323.64157 310.1375Q323.18845 309.7 322.4697 309.7Q321.70407 309.7 321.25095 310.15314Q320.79782 310.60626 320.7822 311.41876L319.70407 311.3094Q319.81345 310.09064 320.5322 309.46564Q321.26657 308.825 322.50095 308.825Q323.73532 308.825 324.45407 309.5125Q325.17282 310.2 325.17282 311.21564Q325.17282 311.73126 324.95407 312.23126Q324.75095 312.71564 324.25095 313.27814Q323.76657 313.825 322.64157 314.77814Q321.68845 315.575 321.4072 315.8719Q321.14157 316.15314 320.9697 316.4344L325.18845 316.4344ZM326.64157 315.2L327.75095 315.10626Q327.87595 315.91876 328.31345 316.325Q328.76657 316.73126 329.4072 316.73126Q330.1572 316.73126 330.68845 316.15314Q331.2197 315.575 331.2197 314.6375Q331.2197 313.73126 330.70407 313.21564Q330.20407 312.6844 329.37595 312.6844Q328.87595 312.6844 328.45407 312.91876Q328.04782 313.15314 327.81345 313.5125L326.82907 313.3875L327.6572 308.98126L331.93845 308.98126L331.93845 309.98126L328.50095 309.98126L328.04782 312.29376Q328.81345 311.7469 329.6572 311.7469Q330.7822 311.7469 331.54782 312.52814Q332.32907 313.3094 332.32907 314.54376Q332.32907 315.7 331.6572 316.5594Q330.82907 317.59064 329.4072 317.59064Q328.23532 317.59064 327.48532 316.9344Q326.75095 316.27814 326.64157 315.2Z" fill-rule="nonzero"/><path fill="#000000" d="M365.4315 313.21564Q365.4315 311.6844 365.744 310.7625Q366.0565 309.825 366.66586 309.325Q367.29086 308.825 368.22836 308.825Q368.91586 308.825 369.4315 309.10626Q369.96274 309.3875 370.3065 309.91876Q370.65024 310.4344 370.83774 311.1844Q371.02524 311.9344 371.02524 313.21564Q371.02524 314.73126 370.71274 315.65314Q370.41586 316.575 369.79086 317.09064Q369.1815 317.59064 368.22836 317.59064Q366.994 317.59064 366.27524 316.7Q365.4315 315.6375 365.4315 313.21564ZM366.5096 313.21564Q366.5096 315.325 367.0096 316.02814Q367.5096 316.73126 368.22836 316.73126Q368.96274 316.73126 369.4471 316.02814Q369.9471 315.325 369.9471 313.21564Q369.9471 311.09064 369.4471 310.40314Q368.96274 309.7 368.21274 309.7Q367.494 309.7 367.0565 310.3094Q366.5096 311.09064 366.5096 313.21564ZM376.40024 317.45L375.35336 317.45L375.35336 310.73126Q374.96274 311.09064 374.33774 311.46564Q373.72836 311.825 373.244 311.9969L373.244 310.98126Q374.119 310.5594 374.77524 309.98126Q375.4471 309.3875 375.72836 308.825L376.40024 308.825L376.40024 317.45ZM378.9315 317.59064L381.41586 308.71564L382.2596 308.71564L379.77524 317.59064L378.9315 317.59064ZM382.4315 313.21564Q382.4315 311.6844 382.744 310.7625Q383.0565 309.825 383.66586 309.325Q384.29086 308.825 385.22836 308.825Q385.91586 308.825 386.4315 309.10626Q386.96274 309.3875 387.3065 309.91876Q387.65024 310.4344 387.83774 311.1844Q388.02524 311.9344 388.02524 313.21564Q388.02524 314.73126 387.71274 315.65314Q387.41586 316.575 386.79086 317.09064Q386.1815 317.59064 385.22836 317.59064Q383.994 317.59064 383.27524 316.7Q382.4315 315.6375 382.4315 313.21564ZM383.5096 313.21564Q383.5096 315.325 384.0096 316.02814Q384.5096 316.73126 385.22836 316.73126Q385.96274 316.73126 386.4471 316.02814Q386.9471 315.325 386.9471 313.21564Q386.9471 311.09064 386.4471 310.40314Q385.96274 309.7 385.21274 309.7Q384.494 309.7 384.0565 310.3094Q383.5096 311.09064 383.5096 313.21564ZM389.494 309.98126L389.494 308.96564L395.0565 308.96564L395.0565 309.79376Q394.244 310.66876 393.4315 312.1219Q392.6346 313.5594 392.1971 315.09064Q391.869 316.16876 391.79086 317.45L390.6971 317.45Q390.71274 316.4344 391.08774 314.9969Q391.47836 313.5594 392.1815 312.23126Q392.90024 310.90314 393.71274 309.98126L389.494 309.98126ZM395.9315 317.59064L398.41586 308.71564L399.2596 308.71564L396.77524 317.59064L395.9315 317.59064ZM404.97836 316.4344L404.97836 317.45L399.29086 317.45Q399.29086 317.075 399.41586 316.71564Q399.6346 316.1375 400.10336 315.575Q400.58774 315.0125 401.494 314.27814Q402.90024 313.1219 403.3846 312.45Q403.8846 311.77814 403.8846 311.1844Q403.8846 310.5594 403.4315 310.1375Q402.97836 309.7 402.2596 309.7Q401.494 309.7 401.04086 310.15314Q400.58774 310.60626 400.5721 311.41876L399.494 311.3094Q399.60336 310.09064 400.3221 309.46564Q401.0565 308.825 402.29086 308.825Q403.52524 308.825 404.244 309.5125Q404.96274 310.2 404.96274 311.21564Q404.96274 311.73126 404.744 312.23126Q404.54086 312.71564 404.04086 313.27814Q403.5565 313.825 402.4315 314.77814Q401.47836 315.575 401.1971 315.8719Q400.9315 316.15314 400.7596 316.4344L404.97836 316.4344ZM406.4315 313.21564Q406.4315 311.6844 406.744 310.7625Q407.0565 309.825 407.66586 309.325Q408.29086 308.825 409.22836 308.825Q409.91586 308.825 410.4315 309.10626Q410.96274 309.3875 411.3065 309.91876Q411.65024 310.4344 411.83774 311.1844Q412.02524 311.9344 412.02524 313.21564Q412.02524 314.73126 411.71274 315.65314Q411.41586 316.575 410.79086 317.09064Q410.1815 317.59064 409.22836 317.59064Q407.994 317.59064 407.27524 316.7Q406.4315 315.6375 406.4315 313.21564ZM407.5096 313.21564Q407.5096 315.325 408.0096 316.02814Q408.5096 316.73126 409.22836 316.73126Q409.96274 316.73126 410.4471 316.02814Q410.9471 315.325 410.9471 313.21564Q410.9471 311.09064 410.4471 310.40314Q409.96274 309.7 409.21274 309.7Q408.494 309.7 408.0565 310.3094Q407.5096 311.09064 407.5096 313.21564ZM418.97836 316.4344L418.97836 317.45L413.29086 317.45Q413.29086 317.075 413.41586 316.71564Q413.6346 316.1375 414.10336 315.575Q414.58774 315.0125 415.494 314.27814Q416.90024 313.1219 417.3846 312.45Q417.8846 311.77814 417.8846 311.1844Q417.8846 310.5594 417.4315 310.1375Q416.97836 309.7 416.2596 309.7Q415.494 309.7 415.04086 310.15314Q414.58774 310.60626 414.5721 311.41876L413.494 311.3094Q413.60336 310.09064 414.3221 309.46564Q415.0565 308.825 416.29086 308.825Q417.52524 308.825 418.244 309.5125Q418.96274 310.2 418.96274 311.21564Q418.96274 311.73126 418.744 312.23126Q418.54086 312.71564 418.04086 313.27814Q417.5565 313.825 416.4315 314.77814Q415.47836 315.575 415.1971 315.8719Q414.9315 316.15314 414.7596 316.4344L418.97836 316.4344ZM420.4315 315.2L421.54086 315.10626Q421.66586 315.91876 422.10336 316.325Q422.5565 316.73126 423.1971 316.73126Q423.9471 316.73126 424.47836 316.15314Q425.0096 315.575 425.0096 314.6375Q425.0096 313.73126 424.494 313.21564Q423.994 312.6844 423.16586 312.6844Q422.66586 312.6844 422.244 312.91876Q421.83774 313.15314 421.60336 313.5125L420.619 313.3875L421.4471 308.98126L425.72836 308.98126L425.72836 309.98126L422.29086 309.98126L421.83774 312.29376Q422.60336 311.7469 423.4471 311.7469Q424.5721 311.7469 425.33774 312.52814Q426.119 313.3094 426.119 314.54376Q426.119 315.7 425.4471 316.5594Q424.619 317.59064 423.1971 317.59064Q422.02524 317.59064 421.27524 316.9344Q420.54086 316.27814 420.4315 315.2Z" fill-rule="nonzero"/><path fill="#000000" d="M460.25204 313.21564Q460.25204 311.6844 460.56454 310.7625Q460.87704 309.825 461.48642 309.325Q462.11142 308.825 463.04892 308.825Q463.73642 308.825 464.25204 309.10626Q464.7833 309.3875 465.12704 309.91876Q465.4708 310.4344 465.6583 311.1844Q465.8458 311.9344 465.8458 313.21564Q465.8458 314.73126 465.5333 315.65314Q465.23642 316.575 464.61142 317.09064Q464.00204 317.59064 463.04892 317.59064Q461.81454 317.59064 461.0958 316.7Q460.25204 315.6375 460.25204 313.21564ZM461.33017 313.21564Q461.33017 315.325 461.83017 316.02814Q462.33017 316.73126 463.04892 316.73126Q463.7833 316.73126 464.26767 316.02814Q464.76767 315.325 464.76767 313.21564Q464.76767 311.09064 464.26767 310.40314Q463.7833 309.7 463.0333 309.7Q462.31454 309.7 461.87704 310.3094Q461.33017 311.09064 461.33017 313.21564ZM471.2208 317.45L470.17392 317.45L470.17392 310.73126Q469.7833 311.09064 469.1583 311.46564Q468.54892 311.825 468.06454 311.9969L468.06454 310.98126Q468.93954 310.5594 469.5958 309.98126Q470.26767 309.3875 470.54892 308.825L471.2208 308.825L471.2208 317.45ZM473.75204 317.59064L476.23642 308.71564L477.08017 308.71564L474.5958 317.59064L473.75204 317.59064ZM481.2208 317.45L480.17392 317.45L480.17392 310.73126Q479.7833 311.09064 479.1583 311.46564Q478.54892 311.825 478.06454 311.9969L478.06454 310.98126Q478.93954 310.5594 479.5958 309.98126Q480.26767 309.3875 480.54892 308.825L481.2208 308.825L481.2208 317.45ZM484.25204 313.21564Q484.25204 311.6844 484.56454 310.7625Q484.87704 309.825 485.48642 309.325Q486.11142 308.825 487.04892 308.825Q487.73642 308.825 488.25204 309.10626Q488.7833 309.3875 489.12704 309.91876Q489.4708 310.4344 489.6583 311.1844Q489.8458 311.9344 489.8458 313.21564Q489.8458 314.73126 489.5333 315.65314Q489.23642 316.575 488.61142 317.09064Q488.00204 317.59064 487.04892 317.59064Q485.81454 317.59064 485.0958 316.7Q484.25204 315.6375 484.25204 313.21564ZM485.33017 313.21564Q485.33017 315.325 485.83017 316.02814Q486.33017 316.73126 487.04892 316.73126Q487.7833 316.73126 488.26767 316.02814Q488.76767 315.325 488.76767 313.21564Q488.76767 311.09064 488.26767 310.40314Q487.7833 309.7 487.0333 309.7Q486.31454 309.7 485.87704 310.3094Q485.33017 311.09064 485.33017 313.21564ZM490.75204 317.59064L493.23642 308.71564L494.08017 308.71564L491.5958 317.59064L490.75204 317.59064ZM499.79892 316.4344L499.79892 317.45L494.11142 317.45Q494.11142 317.075 494.23642 316.71564Q494.45517 316.1375 494.92392 315.575Q495.4083 315.0125 496.31454 314.27814Q497.7208 313.1219 498.20517 312.45Q498.70517 311.77814 498.70517 311.1844Q498.70517 310.5594 498.25204 310.1375Q497.79892 309.7 497.08017 309.7Q496.31454 309.7 495.86142 310.15314Q495.4083 310.60626 495.39267 311.41876L494.31454 311.3094Q494.42392 310.09064 495.14267 309.46564Q495.87704 308.825 497.11142 308.825Q498.3458 308.825 499.06454 309.5125Q499.7833 310.2 499.7833 311.21564Q499.7833 311.73126 499.56454 312.23126Q499.36142 312.71564 498.86142 313.27814Q498.37704 313.825 497.25204 314.77814Q496.29892 315.575 496.01767 315.8719Q495.75204 316.15314 495.58017 316.4344L499.79892 316.4344ZM501.25204 313.21564Q501.25204 311.6844 501.56454 310.7625Q501.87704 309.825 502.48642 309.325Q503.11142 308.825 504.04892 308.825Q504.73642 308.825 505.25204 309.10626Q505.7833 309.3875 506.12704 309.91876Q506.4708 310.4344 506.6583 311.1844Q506.8458 311.9344 506.8458 313.21564Q506.8458 314.73126 506.5333 315.65314Q506.23642 316.575 505.61142 317.09064Q505.00204 317.59064 504.04892 317.59064Q502.81454 317.59064 502.0958 316.7Q501.25204 315.6375 501.25204 313.21564ZM502.33017 313.21564Q502.33017 315.325 502.83017 316.02814Q503.33017 316.73126 504.04892 316.73126Q504.7833 316.73126 505.26767 316.02814Q505.76767 315.325 505.76767 313.21564Q505.76767 311.09064 505.26767 310.40314Q504.7833 309.7 504.0333 309.7Q503.31454 309.7 502.87704 310.3094Q502.33017 311.09064 502.33017 313.21564ZM513.79895 316.4344L513.79895 317.45L508.11142 317.45Q508.11142 317.075 508.23642 316.71564Q508.45517 316.1375 508.92392 315.575Q509.4083 315.0125 510.31454 314.27814Q511.7208 313.1219 512.2052 312.45Q512.7052 311.77814 512.7052 311.1844Q512.7052 310.5594 512.2521 310.1375Q511.79892 309.7 511.08017 309.7Q510.31454 309.7 509.86142 310.15314Q509.4083 310.60626 509.39267 311.41876L508.31454 311.3094Q508.42392 310.09064 509.14267 309.46564Q509.87704 308.825 511.11142 308.825Q512.3458 308.825 513.0646 309.5125Q513.7833 310.2 513.7833 311.21564Q513.7833 311.73126 513.5646 312.23126Q513.36145 312.71564 512.86145 313.27814Q512.3771 313.825 511.25204 314.77814Q510.29892 315.575 510.01767 315.8719Q509.75204 316.15314 509.58017 316.4344L513.79895 316.4344ZM515.2521 315.2L516.36145 315.10626Q516.48645 315.91876 516.92395 316.325Q517.3771 316.73126 518.0177 316.73126Q518.7677 316.73126 519.29895 316.15314Q519.8302 315.575 519.8302 314.6375Q519.8302 313.73126 519.3146 313.21564Q518.8146 312.6844 517.98645 312.6844Q517.48645 312.6844 517.0646 312.91876Q516.6583 313.15314 516.42395 313.5125L515.4396 313.3875L516.2677 308.98126L520.54895 308.98126L520.54895 309.98126L517.11145 309.98126L516.6583 312.29376Q517.42395 311.7469 518.2677 311.7469Q519.3927 311.7469 520.1583 312.52814Q520.9396 313.3094 520.9396 314.54376Q520.9396 315.7 520.2677 316.5594Q519.4396 317.59064 518.0177 317.59064Q516.8458 317.59064 516.0958 316.9344Q515.36145 316.27814 515.2521 315.2Z" fill-rule="nonzero"/></svg>