<svg version="1.1" viewBox="0.0 0.0 600.0 371.0" fill="none" stroke="none" stroke-linecap="square" stroke-miterlimit="10" width="600" height="371" xmlns:xlink="http://www.w3.org/1999/xlink" xmlns="http://www.w3.org/2000/svg"><path fill="#ffffff" d="M0 0L600.0 0L600.0 371.0L0 371.0L0 0Z" fill-rule="nonzero"/><path stroke="#333333" stroke-width="1.0" stroke-linecap="butt" d="M97.5 51.5L97.5 300.5" fill-rule="nonzero"/><path stroke="#cccccc" stroke-width="1.0" stroke-linecap="butt" d="M190.5 51.5L190.5 300.5" fill-rule="nonzero"/><path stroke="#cccccc" stroke-width="1.0" stroke-linecap="butt" d="M283.5 51.5L283.5 300.5" fill-rule="nonzero"/><path stroke="#cccccc" stroke-width="1.0" stroke-linecap="butt" d="M376.5 51.5L376.5 300.5" fill-rule="nonzero"/><path stroke="#cccccc" stroke-width="1.0" stroke-linecap="butt" d="M469.5 51.5L469.5 300.5" fill-rule="nonzero"/><path stroke="#cccccc" stroke-width="1.0" stroke-linecap="butt" d="M562.5 51.5L562.5 300.5" fill-rule="nonzero"/><path stroke="#cccccc" stroke-width="1.0" stroke-linecap="butt" d="M97.5 300.5L581.5 300.5" fill-rule="nonzero"/><path stroke="#cccccc" stroke-width="1.0" stroke-linecap="butt" d="M97.5 250.5L581.5 250.5" fill-rule="nonzero"/><path stroke="#cccccc" stroke-width="1.0" stroke-linecap="butt" d="M97.5 201.5L581.5 201.5" fill-rule="nonzero"/><path stroke="#cccccc" stroke-width="1.0" stroke-linecap="butt" d="M97.5 151.5L581.5 151.5" fill-rule="nonzero"/><path stroke="#cccccc" stroke-width="1.0" stroke-linecap="butt" d="M97.5 101.5L581.5 101.5" fill-rule="nonzero"/><path stroke="#cccccc" stroke-width="1.0" stroke-linecap="butt" d="M97.5 51.5L581.5 51.5" fill-rule="nonzero"/><clipPath id="id_0"><path d="M97.55 51.916668L581.45 51.916668L581.45 300.45L97.55 300.45L97.55 51.916668Z" clip-rule="nonzero"/></clipPath><path stroke="#4285f4" stroke-width="2.0" stroke-linecap="butt" clip-path="url(#id_0)" d="M97.55 264.82687L106.85577 211.80644L116.16154 163.75667L125.46731 183.63933L134.77307 80.08378L144.07884 186.12466L153.38461 97.48111" fill-rule="nonzero"/><path stroke="#ea4335" stroke-width="2.0" stroke-linecap="butt" clip-path="url(#id_0)" d="M97.55 176.18333L106.85577 176.18333L116.16154 176.18333L125.46731 176.18333L134.77307 176.18333L144.07884 176.18333L153.38461 176.18333L162.69038 176.18333L171.99615 176.18333L181.30193 176.18333L190.6077 176.18333L199.91347 176.18333L209.21924 176.18333L218.525 176.18333L227.83076 176.18333L237.13654 176.18333L246.4423 176.18333L255.74808 176.18333L265.05383 176.18333L274.35962 176.18333L283.66537 176.18333L292.97116 176.18333L302.27692 176.18333L311.5827 176.18333L320.88846 176.18333L330.19424 176.18333L339.5 176.18333L348.80576 176.18333L358.11154 176.18333L367.4173 176.18333L376.72308 176.18333L386.02884 176.18333L395.33463 176.18333L404.64038 176.18333L413.94617 176.18333L423.25192 176.18333L432.55768 176.18333L441.86346 176.18333L451.16922 176.18333L460.475 176.18333L469.78076 176.18333L479.08655 176.18333L488.3923 176.18333L497.6981 176.18333L507.00385 176.18333L516.30963 176.18333L525.61536 176.18333L534.92114 176.18333L544.2269 176.18333L553.5327 176.18333L562.83844 176.18333L572.1442 176.18333L581.45 176.18333" fill-rule="nonzero"/><path fill="#000000" fill-opacity="0.0" clip-path="url(#id_0)" d="M100.55 264.82687C100.55 266.48373 99.206856 267.82687 97.55 267.82687C95.89314 267.82687 94.55 266.48373 94.55 264.82687C94.55 263.17004 95.89314 261.82687 97.55 261.82687C99.206856 261.82687 100.55 263.17004 100.55 264.82687Z" fill-rule="nonzero"/><path fill="#000000" fill-opacity="0.0" clip-path="url(#id_0)" d="M109.85577 211.80644C109.85577 213.4633 108.51263 214.80644 106.85577 214.80644C105.19891 214.80644 103.85577 213.4633 103.85577 211.80644C103.85577 210.1496 105.19891 208.80644 106.85577 208.80644C108.51263 208.80644 109.85577 210.1496 109.85577 211.80644Z" fill-rule="nonzero"/><path fill="#000000" fill-opacity="0.0" clip-path="url(#id_0)" d="M119.16154 163.75667C119.16154 165.41353 117.81839 166.75667 116.16154 166.75667C114.504684 166.75667 113.16154 165.41353 113.16154 163.75667C113.16154 162.09981 114.504684 160.75667 116.16154 160.75667C117.81839 160.75667 119.16154 162.09981 119.16154 163.75667Z" fill-rule="nonzero"/><path fill="#000000" fill-opacity="0.0" clip-path="url(#id_0)" d="M128.4673 183.63933C128.4673 185.29619 127.12416 186.63933 125.46731 186.63933C123.810455 186.63933 122.46731 185.29619 122.46731 183.63933C122.46731 181.98248 123.810455 180.63933 125.46731 180.63933C127.12416 180.63933 128.4673 181.98248 128.4673 183.63933Z" fill-rule="nonzero"/><path fill="#000000" fill-opacity="0.0" clip-path="url(#id_0)" d="M137.77307 80.08378C137.77307 81.74063 136.42993 83.08378 134.77307 83.08378C133.11623 83.08378 131.77307 81.74063 131.77307 80.08378C131.77307 78.426926 133.11623 77.08378 134.77307 77.08378C136.42993 77.08378 137.77307 78.426926 137.77307 80.08378Z" fill-rule="nonzero"/><path fill="#000000" fill-opacity="0.0" clip-path="url(#id_0)" d="M147.07884 186.12466C147.07884 187.78152 145.7357 189.12466 144.07884 189.12466C142.422 189.12466 141.07884 187.78152 141.07884 186.12466C141.07884 184.46782 142.422 183.12466 144.07884 183.12466C145.7357 183.12466 147.07884 184.46782 147.07884 186.12466Z" fill-rule="nonzero"/><path fill="#000000" fill-opacity="0.0" clip-path="url(#id_0)" d="M156.38461 97.48111C156.38461 99.13796 155.04147 100.48111 153.38461 100.48111C151.72777 100.48111 150.38461 99.13796 150.38461 97.48111C150.38461 95.82426 151.72777 94.48111 153.38461 94.48111C155.04147 94.48111 156.38461 95.82426 156.38461 97.48111Z" fill-rule="nonzero"/><path fill="#000000" fill-opacity="0.0" clip-path="url(#id_0)" d="M100.55 176.18333C100.55 177.8402 99.206856 179.18333 97.55 179.18333C95.89314 179.18333 94.55 177.8402 94.55 176.18333C94.55 174.52647 95.89314 173.18333 97.55 173.18333C99.206856 173.18333 100.55 174.52647 100.55 176.18333Z" fill-rule="nonzero"/><path fill="#000000" fill-opacity="0.0" clip-path="url(#id_0)" d="M109.85577 176.18333C109.85577 177.8402 108.51263 179.18333 106.85577 179.18333C105.19891 179.18333 103.85577 177.8402 103.85577 176.18333C103.85577 174.52647 105.19891 173.18333 106.85577 173.18333C108.51263 173.18333 109.85577 174.52647 109.85577 176.18333Z" fill-rule="nonzero"/><path fill="#000000" fill-opacity="0.0" clip-path="url(#id_0)" d="M119.16154 176.18333C119.16154 177.8402 117.81839 179.18333 116.16154 179.18333C114.504684 179.18333 113.16154 177.8402 113.16154 176.18333C113.16154 174.52647 114.504684 173.18333 116.16154 173.18333C117.81839 173.18333 119.16154 174.52647 119.16154 176.18333Z" fill-rule="nonzero"/><path fill="#000000" fill-opacity="0.0" clip-path="url(#id_0)" d="M128.4673 176.18333C128.4673 177.8402 127.12416 179.18333 125.46731 179.18333C123.810455 179.18333 122.46731 177.8402 122.46731 176.18333C122.46731 174.52647 123.810455 173.18333 125.46731 173.18333C127.12416 173.18333 128.4673 174.52647 128.4673 176.18333Z" fill-rule="nonzero"/><path fill="#000000" fill-opacity="0.0" clip-path="url(#id_0)" d="M137.77307 176.18333C137.77307 177.8402 136.42993 179.18333 134.77307 179.18333C133.11623 179.18333 131.77307 177.8402 131.77307 176.18333C131.77307 174.52647 133.11623 173.18333 134.77307 173.18333C136.42993 173.18333 137.77307 174.52647 137.77307 176.18333Z" fill-rule="nonzero"/><path fill="#000000" fill-opacity="0.0" clip-path="url(#id_0)" d="M147.07884 176.18333C147.07884 177.8402 145.7357 179.18333 144.07884 179.18333C142.422 179.18333 141.07884 177.8402 141.07884 176.18333C141.07884 174.52647 142.422 173.18333 144.07884 173.18333C145.7357 173.18333 147.07884 174.52647 147.07884 176.18333Z" fill-rule="nonzero"/><path fill="#000000" fill-opacity="0.0" clip-path="url(#id_0)" d="M156.38461 176.18333C156.38461 177.8402 155.04147 179.18333 153.38461 179.18333C151.72777 179.18333 150.38461 177.8402 150.38461 176.18333C150.38461 174.52647 151.72777 173.18333 153.38461 173.18333C155.04147 173.18333 156.38461 174.52647 156.38461 176.18333Z" fill-rule="nonzero"/><path fill="#000000" fill-opacity="0.0" clip-path="url(#id_0)" d="M165.69038 176.18333C165.69038 177.8402 164.34724 179.18333 162.69038 179.18333C161.03352 179.18333 159.69038 177.8402 159.69038 176.18333C159.69038 174.52647 161.03352 173.18333 162.69038 173.18333C164.34724 173.18333 165.69038 174.52647 165.69038 176.18333Z" fill-rule="nonzero"/><path fill="#000000" fill-opacity="0.0" clip-path="url(#id_0)" d="M174.99615 176.18333C174.99615 177.8402 173.65302 179.18333 171.99615 179.18333C170.3393 179.18333 168.99615 177.8402 168.99615 176.18333C168.99615 174.52647 170.3393 173.18333 171.99615 173.18333C173.65302 173.18333 174.99615 174.52647 174.99615 176.18333Z" fill-rule="nonzero"/><path fill="#000000" fill-opacity="0.0" clip-path="url(#id_0)" d="M184.30193 176.18333C184.30193 177.8402 182.95877 179.18333 181.30193 179.18333C179.64507 179.18333 178.30193 177.8402 178.30193 176.18333C178.30193 174.52647 179.64507 173.18333 181.30193 173.18333C182.95877 173.18333 184.30193 174.52647 184.30193 176.18333Z" fill-rule="nonzero"/><path fill="#000000" fill-opacity="0.0" clip-path="url(#id_0)" d="M193.6077 176.18333C193.6077 177.8402 192.26454 179.18333 190.6077 179.18333C188.95084 179.18333 187.6077 177.8402 187.6077 176.18333C187.6077 174.52647 188.95084 173.18333 190.6077 173.18333C192.26454 173.18333 193.6077 174.52647 193.6077 176.18333Z" fill-rule="nonzero"/><path fill="#000000" fill-opacity="0.0" clip-path="url(#id_0)" d="M202.91347 176.18333C202.91347 177.8402 201.57031 179.18333 199.91347 179.18333C198.2566 179.18333 196.91347 177.8402 196.91347 176.18333C196.91347 174.52647 198.2566 173.18333 199.91347 173.18333C201.57031 173.18333 202.91347 174.52647 202.91347 176.18333Z" fill-rule="nonzero"/><path fill="#000000" fill-opacity="0.0" clip-path="url(#id_0)" d="M212.21924 176.18333C212.21924 177.8402 210.87608 179.18333 209.21924 179.18333C207.56238 179.18333 206.21924 177.8402 206.21924 176.18333C206.21924 174.52647 207.56238 173.18333 209.21924 173.18333C210.87608 173.18333 212.21924 174.52647 212.21924 176.18333Z" fill-rule="nonzero"/><path fill="#000000" fill-opacity="0.0" clip-path="url(#id_0)" d="M221.525 176.18333C221.525 177.8402 220.18185 179.18333 218.525 179.18333C216.86815 179.18333 215.525 177.8402 215.525 176.18333C215.525 174.52647 216.86815 173.18333 218.525 173.18333C220.18185 173.18333 221.525 174.52647 221.525 176.18333Z" fill-rule="nonzero"/><path fill="#000000" fill-opacity="0.0" clip-path="url(#id_0)" d="M230.83076 176.18333C230.83076 177.8402 229.48763 179.18333 227.83076 179.18333C226.17392 179.18333 224.83076 177.8402 224.83076 176.18333C224.83076 174.52647 226.17392 173.18333 227.83076 173.18333C229.48763 173.18333 230.83076 174.52647 230.83076 176.18333Z" fill-rule="nonzero"/><path fill="#000000" fill-opacity="0.0" clip-path="url(#id_0)" d="M240.13654 176.18333C240.13654 177.8402 238.7934 179.18333 237.13654 179.18333C235.47969 179.18333 234.13654 177.8402 234.13654 176.18333C234.13654 174.52647 235.47969 173.18333 237.13654 173.18333C238.7934 173.18333 240.13654 174.52647 240.13654 176.18333Z" fill-rule="nonzero"/><path fill="#000000" fill-opacity="0.0" clip-path="url(#id_0)" d="M249.4423 176.18333C249.4423 177.8402 248.09917 179.18333 246.4423 179.18333C244.78545 179.18333 243.4423 177.8402 243.4423 176.18333C243.4423 174.52647 244.78545 173.18333 246.4423 173.18333C248.09917 173.18333 249.4423 174.52647 249.4423 176.18333Z" fill-rule="nonzero"/><path fill="#000000" fill-opacity="0.0" clip-path="url(#id_0)" d="M258.74808 176.18333C258.74808 177.8402 257.40494 179.18333 255.74808 179.18333C254.09122 179.18333 252.74808 177.8402 252.74808 176.18333C252.74808 174.52647 254.09122 173.18333 255.74808 173.18333C257.40494 173.18333 258.74808 174.52647 258.74808 176.18333Z" fill-rule="nonzero"/><path fill="#000000" fill-opacity="0.0" clip-path="url(#id_0)" d="M268.05383 176.18333C268.05383 177.8402 266.7107 179.18333 265.05383 179.18333C263.397 179.18333 262.05383 177.8402 262.05383 176.18333C262.05383 174.52647 263.397 173.18333 265.05383 173.18333C266.7107 173.18333 268.05383 174.52647 268.05383 176.18333Z" fill-rule="nonzero"/><path fill="#000000" fill-opacity="0.0" clip-path="url(#id_0)" d="M277.35962 176.18333C277.35962 177.8402 276.01648 179.18333 274.35962 179.18333C272.70276 179.18333 271.35962 177.8402 271.35962 176.18333C271.35962 174.52647 272.70276 173.18333 274.35962 173.18333C276.01648 173.18333 277.35962 174.52647 277.35962 176.18333Z" fill-rule="nonzero"/><path fill="#000000" fill-opacity="0.0" clip-path="url(#id_0)" d="M286.66537 176.18333C286.66537 177.8402 285.32224 179.18333 283.66537 179.18333C282.00854 179.18333 280.66537 177.8402 280.66537 176.18333C280.66537 174.52647 282.00854 173.18333 283.66537 173.18333C285.32224 173.18333 286.66537 174.52647 286.66537 176.18333Z" fill-rule="nonzero"/><path fill="#000000" fill-opacity="0.0" clip-path="url(#id_0)" d="M295.97116 176.18333C295.97116 177.8402 294.62802 179.18333 292.97116 179.18333C291.3143 179.18333 289.97116 177.8402 289.97116 176.18333C289.97116 174.52647 291.3143 173.18333 292.97116 173.18333C294.62802 173.18333 295.97116 174.52647 295.97116 176.18333Z" fill-rule="nonzero"/><path fill="#000000" fill-opacity="0.0" clip-path="url(#id_0)" d="M305.27692 176.18333C305.27692 177.8402 303.93378 179.18333 302.27692 179.18333C300.62006 179.18333 299.27692 177.8402 299.27692 176.18333C299.27692 174.52647 300.62006 173.18333 302.27692 173.18333C303.93378 173.18333 305.27692 174.52647 305.27692 176.18333Z" fill-rule="nonzero"/><path fill="#000000" fill-opacity="0.0" clip-path="url(#id_0)" d="M314.5827 176.18333C314.5827 177.8402 313.23953 179.18333 311.5827 179.18333C309.92584 179.18333 308.5827 177.8402 308.5827 176.18333C308.5827 174.52647 309.92584 173.18333 311.5827 173.18333C313.23953 173.18333 314.5827 174.52647 314.5827 176.18333Z" fill-rule="nonzero"/><path fill="#000000" fill-opacity="0.0" clip-path="url(#id_0)" d="M323.88846 176.18333C323.88846 177.8402 322.54532 179.18333 320.88846 179.18333C319.2316 179.18333 317.88846 177.8402 317.88846 176.18333C317.88846 174.52647 319.2316 173.18333 320.88846 173.18333C322.54532 173.18333 323.88846 174.52647 323.88846 176.18333Z" fill-rule="nonzero"/><path fill="#000000" fill-opacity="0.0" clip-path="url(#id_0)" d="M333.19424 176.18333C333.19424 177.8402 331.85107 179.18333 330.19424 179.18333C328.53738 179.18333 327.19424 177.8402 327.19424 176.18333C327.19424 174.52647 328.53738 173.18333 330.19424 173.18333C331.85107 173.18333 333.19424 174.52647 333.19424 176.18333Z" fill-rule="nonzero"/><path fill="#000000" fill-opacity="0.0" clip-path="url(#id_0)" d="M342.5 176.18333C342.5 177.8402 341.15686 179.18333 339.5 179.18333C337.84314 179.18333 336.5 177.8402 336.5 176.18333C336.5 174.52647 337.84314 173.18333 339.5 173.18333C341.15686 173.18333 342.5 174.52647 342.5 176.18333Z" fill-rule="nonzero"/><path fill="#000000" fill-opacity="0.0" clip-path="url(#id_0)" d="M351.80576 176.18333C351.80576 177.8402 350.46262 179.18333 348.80576 179.18333C347.14893 179.18333 345.80576 177.8402 345.80576 176.18333C345.80576 174.52647 347.14893 173.18333 348.80576 173.18333C350.46262 173.18333 351.80576 174.52647 351.80576 176.18333Z" fill-rule="nonzero"/><path fill="#000000" fill-opacity="0.0" clip-path="url(#id_0)" d="M361.11154 176.18333C361.11154 177.8402 359.7684 179.18333 358.11154 179.18333C356.45468 179.18333 355.11154 177.8402 355.11154 176.18333C355.11154 174.52647 356.45468 173.18333 358.11154 173.18333C359.7684 173.18333 361.11154 174.52647 361.11154 176.18333Z" fill-rule="nonzero"/><path fill="#000000" fill-opacity="0.0" clip-path="url(#id_0)" d="M370.4173 176.18333C370.4173 177.8402 369.07416 179.18333 367.4173 179.18333C365.76047 179.18333 364.4173 177.8402 364.4173 176.18333C364.4173 174.52647 365.76047 173.18333 367.4173 173.18333C369.07416 173.18333 370.4173 174.52647 370.4173 176.18333Z" fill-rule="nonzero"/><path fill="#000000" fill-opacity="0.0" clip-path="url(#id_0)" d="M379.72308 176.18333C379.72308 177.8402 378.37994 179.18333 376.72308 179.18333C375.06622 179.18333 373.72308 177.8402 373.72308 176.18333C373.72308 174.52647 375.06622 173.18333 376.72308 173.18333C378.37994 173.18333 379.72308 174.52647 379.72308 176.18333Z" fill-rule="nonzero"/><path fill="#000000" fill-opacity="0.0" clip-path="url(#id_0)" d="M389.02884 176.18333C389.02884 177.8402 387.6857 179.18333 386.02884 179.18333C384.37198 179.18333 383.02884 177.8402 383.02884 176.18333C383.02884 174.52647 384.37198 173.18333 386.02884 173.18333C387.6857 173.18333 389.02884 174.52647 389.02884 176.18333Z" fill-rule="nonzero"/><path fill="#000000" fill-opacity="0.0" clip-path="url(#id_0)" d="M398.33463 176.18333C398.33463 177.8402 396.99146 179.18333 395.33463 179.18333C393.67776 179.18333 392.33463 177.8402 392.33463 176.18333C392.33463 174.52647 393.67776 173.18333 395.33463 173.18333C396.99146 173.18333 398.33463 174.52647 398.33463 176.18333Z" fill-rule="nonzero"/><path fill="#000000" fill-opacity="0.0" clip-path="url(#id_0)" d="M407.64038 176.18333C407.64038 177.8402 406.29724 179.18333 404.64038 179.18333C402.98352 179.18333 401.64038 177.8402 401.64038 176.18333C401.64038 174.52647 402.98352 173.18333 404.64038 173.18333C406.29724 173.18333 407.64038 174.52647 407.64038 176.18333Z" fill-rule="nonzero"/><path fill="#000000" fill-opacity="0.0" clip-path="url(#id_0)" d="M416.94617 176.18333C416.94617 177.8402 415.603 179.18333 413.94617 179.18333C412.2893 179.18333 410.94617 177.8402 410.94617 176.18333C410.94617 174.52647 412.2893 173.18333 413.94617 173.18333C415.603 173.18333 416.94617 174.52647 416.94617 176.18333Z" fill-rule="nonzero"/><path fill="#000000" fill-opacity="0.0" clip-path="url(#id_0)" d="M426.25192 176.18333C426.25192 177.8402 424.90878 179.18333 423.25192 179.18333C421.59506 179.18333 420.25192 177.8402 420.25192 176.18333C420.25192 174.52647 421.59506 173.18333 423.25192 173.18333C424.90878 173.18333 426.25192 174.52647 426.25192 176.18333Z" fill-rule="nonzero"/><path fill="#000000" fill-opacity="0.0" clip-path="url(#id_0)" d="M435.55768 176.18333C435.55768 177.8402 434.21454 179.18333 432.55768 179.18333C430.90085 179.18333 429.55768 177.8402 429.55768 176.18333C429.55768 174.52647 430.90085 173.18333 432.55768 173.18333C434.21454 173.18333 435.55768 174.52647 435.55768 176.18333Z" fill-rule="nonzero"/><path fill="#000000" fill-opacity="0.0" clip-path="url(#id_0)" d="M444.86346 176.18333C444.86346 177.8402 443.52032 179.18333 441.86346 179.18333C440.2066 179.18333 438.86346 177.8402 438.86346 176.18333C438.86346 174.52647 440.2066 173.18333 441.86346 173.18333C443.52032 173.18333 444.86346 174.52647 444.86346 176.18333Z" fill-rule="nonzero"/><path fill="#000000" fill-opacity="0.0" clip-path="url(#id_0)" d="M454.16922 176.18333C454.16922 177.8402 452.82608 179.18333 451.16922 179.18333C449.5124 179.18333 448.16922 177.8402 448.16922 176.18333C448.16922 174.52647 449.5124 173.18333 451.16922 173.18333C452.82608 173.18333 454.16922 174.52647 454.16922 176.18333Z" fill-rule="nonzero"/><path fill="#000000" fill-opacity="0.0" clip-path="url(#id_0)" d="M463.475 176.18333C463.475 177.8402 462.13187 179.18333 460.475 179.18333C458.81815 179.18333 457.475 177.8402 457.475 176.18333C457.475 174.52647 458.81815 173.18333 460.475 173.18333C462.13187 173.18333 463.475 174.52647 463.475 176.18333Z" fill-rule="nonzero"/><path fill="#000000" fill-opacity="0.0" clip-path="url(#id_0)" d="M472.78076 176.18333C472.78076 177.8402 471.43762 179.18333 469.78076 179.18333C468.1239 179.18333 466.78076 177.8402 466.78076 176.18333C466.78076 174.52647 468.1239 173.18333 469.78076 173.18333C471.43762 173.18333 472.78076 174.52647 472.78076 176.18333Z" fill-rule="nonzero"/><path fill="#000000" fill-opacity="0.0" clip-path="url(#id_0)" d="M482.08655 176.18333C482.08655 177.8402 480.74338 179.18333 479.08655 179.18333C477.4297 179.18333 476.08655 177.8402 476.08655 176.18333C476.08655 174.52647 477.4297 173.18333 479.08655 173.18333C480.74338 173.18333 482.08655 174.52647 482.08655 176.18333Z" fill-rule="nonzero"/><path fill="#000000" fill-opacity="0.0" clip-path="url(#id_0)" d="M491.3923 176.18333C491.3923 177.8402 490.04916 179.18333 488.3923 179.18333C486.73544 179.18333 485.3923 177.8402 485.3923 176.18333C485.3923 174.52647 486.73544 173.18333 488.3923 173.18333C490.04916 173.18333 491.3923 174.52647 491.3923 176.18333Z" fill-rule="nonzero"/><path fill="#000000" fill-opacity="0.0" clip-path="url(#id_0)" d="M500.6981 176.18333C500.6981 177.8402 499.35492 179.18333 497.6981 179.18333C496.04123 179.18333 494.6981 177.8402 494.6981 176.18333C494.6981 174.52647 496.04123 173.18333 497.6981 173.18333C499.35492 173.18333 500.6981 174.52647 500.6981 176.18333Z" fill-rule="nonzero"/><path fill="#000000" fill-opacity="0.0" clip-path="url(#id_0)" d="M510.00385 176.18333C510.00385 177.8402 508.6607 179.18333 507.00385 179.18333C505.347 179.18333 504.00385 177.8402 504.00385 176.18333C504.00385 174.52647 505.347 173.18333 507.00385 173.18333C508.6607 173.18333 510.00385 174.52647 510.00385 176.18333Z" fill-rule="nonzero"/><path fill="#000000" fill-opacity="0.0" clip-path="url(#id_0)" d="M519.30963 176.18333C519.30963 177.8402 517.9665 179.18333 516.30963 179.18333C514.6528 179.18333 513.30963 177.8402 513.30963 176.18333C513.30963 174.52647 514.6528 173.18333 516.30963 173.18333C517.9665 173.18333 519.30963 174.52647 519.30963 176.18333Z" fill-rule="nonzero"/><path fill="#000000" fill-opacity="0.0" clip-path="url(#id_0)" d="M528.61536 176.18333C528.61536 177.8402 527.2722 179.18333 525.61536 179.18333C523.95856 179.18333 522.61536 177.8402 522.61536 176.18333C522.61536 174.52647 523.95856 173.18333 525.61536 173.18333C527.2722 173.18333 528.61536 174.52647 528.61536 176.18333Z" fill-rule="nonzero"/><path fill="#000000" fill-opacity="0.0" clip-path="url(#id_0)" d="M537.92114 176.18333C537.92114 177.8402 536.578 179.18333 534.92114 179.18333C533.2643 179.18333 531.92114 177.8402 531.92114 176.18333C531.92114 174.52647 533.2643 173.18333 534.92114 173.18333C536.578 173.18333 537.92114 174.52647 537.92114 176.18333Z" fill-rule="nonzero"/><path fill="#000000" fill-opacity="0.0" clip-path="url(#id_0)" d="M547.2269 176.18333C547.2269 177.8402 545.8838 179.18333 544.2269 179.18333C542.57007 179.18333 541.2269 177.8402 541.2269 176.18333C541.2269 174.52647 542.57007 173.18333 544.2269 173.18333C545.8838 173.18333 547.2269 174.52647 547.2269 176.18333Z" fill-rule="nonzero"/><path fill="#000000" fill-opacity="0.0" clip-path="url(#id_0)" d="M556.5327 176.18333C556.5327 177.8402 555.1896 179.18333 553.5327 179.18333C551.87585 179.18333 550.5327 177.8402 550.5327 176.18333C550.5327 174.52647 551.87585 173.18333 553.5327 173.18333C555.1896 173.18333 556.5327 174.52647 556.5327 176.18333Z" fill-rule="nonzero"/><path fill="#000000" fill-opacity="0.0" clip-path="url(#id_0)" d="M565.83844 176.18333C565.83844 177.8402 564.4953 179.18333 562.83844 179.18333C561.1816 179.18333 559.83844 177.8402 559.83844 176.18333C559.83844 174.52647 561.1816 173.18333 562.83844 173.18333C564.4953 173.18333 565.83844 174.52647 565.83844 176.18333Z" fill-rule="nonzero"/><path fill="#000000" fill-opacity="0.0" clip-path="url(#id_0)" d="M575.1442 176.18333C575.1442 177.8402 573.8011 179.18333 572.1442 179.18333C570.48737 179.18333 569.1442 177.8402 569.1442 176.18333C569.1442 174.52647 570.48737 173.18333 572.1442 173.18333C573.8011 173.18333 575.1442 174.52647 575.1442 176.18333Z" fill-rule="nonzero"/><path fill="#000000" fill-opacity="0.0" clip-path="url(#id_0)" d="M584.45 176.18333C584.45 177.8402 583.1069 179.18333 581.45 179.18333C579.79315 179.18333 578.45 177.8402 578.45 176.18333C578.45 174.52647 579.79315 173.18333 581.45 173.18333C583.1069 173.18333 584.45 174.52647 584.45 176.18333Z" fill-rule="nonzero"/><path fill="#000000" d="M326.42188 349.45L324.14062 340.85626L325.3125 340.85626L326.625 346.4969Q326.82812 347.3719 326.98438 348.2469Q327.3125 346.8719 327.375 346.65314L329.0 340.85626L330.375 340.85626L331.60938 345.2Q332.0625 346.825 332.28125 348.2469Q332.4375 347.4344 332.70312 346.3719L334.04688 340.85626L335.1875 340.85626L332.84375 349.45L331.73438 349.45L329.9375 342.90314Q329.70312 342.09064 329.65625 341.90314Q329.53125 342.48126 329.40625 342.90314L327.59375 349.45L326.42188 349.45ZM340.04688 347.45L341.14062 347.575Q340.89062 348.52814 340.1875 349.0594Q339.48438 349.59064 338.40625 349.59064Q337.04688 349.59064 336.23438 348.7469Q335.4375 347.90314 335.4375 346.3875Q335.4375 344.825 336.25 343.96564Q337.0625 343.09064 338.34375 343.09064Q339.59375 343.09064 340.375 343.9344Q341.17188 344.77814 341.17188 346.325Q341.17188 346.41876 341.17188 346.60626L336.53125 346.60626Q336.59375 347.6375 337.10938 348.1844Q337.625 348.71564 338.40625 348.71564Q338.98438 348.71564 339.39062 348.41876Q339.8125 348.10626 340.04688 347.45ZM336.59375 345.7469L340.0625 345.7469Q340.0 344.95 339.67188 344.5594Q339.15625 343.95 338.35938 343.95Q337.625 343.95 337.125 344.4344Q336.64062 344.91876 336.59375 345.7469ZM347.04688 347.45L348.14062 347.575Q347.89062 348.52814 347.1875 349.0594Q346.48438 349.59064 345.40625 349.59064Q344.04688 349.59064 343.23438 348.7469Q342.4375 347.90314 342.4375 346.3875Q342.4375 344.825 343.25 343.96564Q344.0625 343.09064 345.34375 343.09064Q346.59375 343.09064 347.375 343.9344Q348.17188 344.77814 348.17188 346.325Q348.17188 346.41876 348.17188 346.60626L343.53125 346.60626Q343.59375 347.6375 344.10938 348.1844Q344.625 348.71564 345.40625 348.71564Q345.98438 348.71564 346.39062 348.41876Q346.8125 348.10626 347.04688 347.45ZM343.59375 345.7469L347.0625 345.7469Q347.0 344.95 346.67188 344.5594Q346.15625 343.95 345.35938 343.95Q344.625 343.95 344.125 344.4344Q343.64062 344.91876 343.59375 345.7469ZM349.79688 349.45L349.79688 340.85626L350.85938 340.85626L350.85938 345.7625L353.34375 343.23126L354.71875 343.23126L352.32812 345.52814L354.95312 349.45L353.65625 349.45L351.59375 346.2625L350.85938 346.98126L350.85938 349.45L349.79688 349.45Z" fill-rule="nonzero"/><path fill="#000000" d="M29.550013 205.26146L20.956263 205.26146L20.956263 202.29271Q20.956263 201.29271 21.081263 200.76146Q21.253138 200.02708 21.690638 199.51146Q22.268763 198.82396 23.175013 198.49583Q24.065638 198.15208 25.206263 198.15208Q26.190638 198.15208 26.940638 198.38646Q27.690638 198.60521 28.190638 198.96458Q28.690638 199.32396 28.971888 199.76146Q29.253138 200.18333 29.409388 200.77708Q29.550013 201.37083 29.550013 202.15208L29.550013 205.26146ZM28.534388 204.12083L28.534388 202.29271Q28.534388 201.43333 28.378138 200.94896Q28.221888 200.46458 27.925013 200.18333Q27.534388 199.77708 26.846888 199.55833Q26.159388 199.32396 25.190638 199.32396Q23.846888 199.32396 23.128138 199.77708Q22.393763 200.21458 22.143763 200.83958Q21.971888 201.30833 21.971888 202.30833L21.971888 204.12083L28.534388 204.12083ZM29.550013 192.30833L28.628138 192.30833Q29.690638 193.04271 29.690638 194.29271Q29.690638 194.83958 29.487513 195.32396Q29.268763 195.79271 28.956263 196.02708Q28.628138 196.26146 28.159388 196.35521Q27.862513 196.41771 27.175013 196.41771L23.331263 196.41771L23.331263 195.35521L26.784388 195.35521Q27.596888 195.35521 27.893763 195.29271Q28.300013 195.19896 28.550013 194.88646Q28.784388 194.55833 28.784388 194.07396Q28.784388 193.60521 28.550013 193.19896Q28.300013 192.77708 27.878138 192.60521Q27.456263 192.41771 26.659388 192.41771L23.331263 192.41771L23.331263 191.37083L29.550013 191.37083L29.550013 192.30833ZM29.550013 189.40208L23.331263 189.40208L23.331263 188.44896L24.268763 188.44896Q23.612513 188.08958 23.409388 187.79271Q23.190638 187.48021 23.190638 187.10521Q23.190638 186.57396 23.518763 186.02708L24.503138 186.38646Q24.268763 186.77708 24.268763 187.15208Q24.268763 187.51146 24.487513 187.79271Q24.690638 188.05833 25.065638 188.16771Q25.628138 188.35521 26.284388 188.35521L29.550013 188.35521L29.550013 189.40208ZM28.784388 181.32396Q29.284388 181.91771 29.487513 182.46458Q29.690638 182.99583 29.690638 183.62083Q29.690638 184.65208 29.190638 185.19896Q28.690638 185.74583 27.909388 185.74583Q27.456263 185.74583 27.081263 185.54271Q26.690638 185.33958 26.471888 184.99583Q26.237513 184.65208 26.128138 184.23021Q26.034388 183.93333 25.956263 183.29271Q25.815638 182.02708 25.596888 181.41771Q25.378138 181.41771 25.331263 181.41771Q24.675013 181.41771 24.409388 181.71458Q24.065638 182.12083 24.065638 182.91771Q24.065638 183.65208 24.331263 184.01146Q24.581263 184.37083 25.237513 184.54271L25.096888 185.57396Q24.440638 185.43333 24.034388 185.10521Q23.628138 184.77708 23.409388 184.16771Q23.190638 183.55833 23.190638 182.76146Q23.190638 181.96458 23.378138 181.46458Q23.565638 180.96458 23.846888 180.73021Q24.128138 180.49583 24.565638 180.40208Q24.831263 180.35521 25.534388 180.35521L26.940638 180.35521Q28.409388 180.35521 28.800013 180.29271Q29.190638 180.21458 29.550013 180.01146L29.550013 181.12083Q29.221888 181.27708 28.784388 181.32396ZM26.425013 181.41771Q26.659388 181.99583 26.831263 183.13646Q26.925013 183.79271 27.050013 184.05833Q27.159388 184.32396 27.378138 184.48021Q27.596888 184.62083 27.878138 184.62083Q28.300013 184.62083 28.581263 184.30833Q28.862513 183.98021 28.862513 183.37083Q28.862513 182.76146 28.596888 182.29271Q28.331263 181.80833 27.862513 181.58958Q27.503138 181.41771 26.815638 181.41771L26.425013 181.41771ZM28.612513 176.08958L29.534388 175.93333Q29.628138 176.38646 29.628138 176.73021Q29.628138 177.30833 29.456263 177.62083Q29.268763 177.93333 28.971888 178.07396Q28.675013 178.19896 27.721888 178.19896L24.143763 178.19896L24.143763 178.96458L23.331263 178.96458L23.331263 178.19896L21.784388 178.19896L21.159388 177.15208L23.331263 177.15208L23.331263 176.08958L24.143763 176.08958L24.143763 177.15208L27.784388 177.15208Q28.237513 177.15208 28.362513 177.10521Q28.487513 177.04271 28.565638 176.91771Q28.643763 176.79271 28.643763 176.55833Q28.643763 176.37083 28.612513 176.08958ZM22.175013 175.38646L20.956263 175.38646L20.956263 174.32396L22.175013 174.32396L22.175013 175.38646ZM29.550013 175.38646L23.331263 175.38646L23.331263 174.32396L29.550013 174.32396L29.550013 175.38646ZM26.440638 172.77708Q24.706263 172.77708 23.878138 171.82396Q23.190638 171.02708 23.190638 169.87083Q23.190638 168.58958 24.034388 167.77708Q24.862513 166.94896 26.346888 166.94896Q27.550013 166.94896 28.237513 167.30833Q28.925013 167.66771 29.315638 168.37083Q29.690638 169.05833 29.690638 169.87083Q29.690638 171.16771 28.862513 171.98021Q28.018763 172.77708 26.440638 172.77708ZM26.440638 171.69896Q27.628138 171.69896 28.221888 171.18333Q28.815638 170.65208 28.815638 169.87083Q28.815638 169.07396 28.221888 168.55833Q27.628138 168.04271 26.409388 168.04271Q25.253138 168.04271 24.659388 168.57396Q24.065638 169.08958 24.065638 169.87083Q24.065638 170.65208 24.659388 171.18333Q25.237513 171.69896 26.440638 171.69896ZM29.550013 165.38646L23.331263 165.38646L23.331263 164.44896L24.206263 164.44896Q23.190638 163.76146 23.190638 162.46458Q23.190638 161.90208 23.393763 161.43333Q23.596888 160.94896 23.925013 160.71458Q24.253138 160.48021 24.690638 160.38646Q24.987513 160.33958 25.721888 160.33958L29.550013 160.33958L29.550013 161.38646L25.768763 161.38646Q25.112513 161.38646 24.800013 161.51146Q24.487513 161.63646 24.300013 161.94896Q24.096888 162.26146 24.096888 162.68333Q24.096888 163.35521 24.534388 163.85521Q24.956263 164.33958 26.143763 164.33958L29.550013 164.33958L29.550013 165.38646Z" fill-rule="nonzero"/><path fill="#000000" d="M51.05 300.21564Q51.05 298.6844 51.3625 297.7625Q51.675 296.825 52.284374 296.325Q52.909374 295.825 53.846874 295.825Q54.534374 295.825 55.05 296.10626Q55.58125 296.3875 55.925 296.91876Q56.26875 297.4344 56.45625 298.1844Q56.64375 298.9344 56.64375 300.21564Q56.64375 301.73126 56.33125 302.65314Q56.034374 303.575 55.409374 304.09064Q54.8 304.59064 53.846874 304.59064Q52.6125 304.59064 51.89375 303.7Q51.05 302.6375 51.05 300.21564ZM52.128124 300.21564Q52.128124 302.325 52.628124 303.02814Q53.128124 303.73126 53.846874 303.73126Q54.58125 303.73126 55.065624 303.02814Q55.565624 302.325 55.565624 300.21564Q55.565624 298.09064 55.065624 297.40314Q54.58125 296.7 53.83125 296.7Q53.1125 296.7 52.675 297.3094Q52.128124 298.09064 52.128124 300.21564ZM58.628124 299.4344L58.628124 298.23126L59.83125 298.23126L59.83125 299.4344L58.628124 299.4344ZM58.628124 304.45L58.628124 303.2469L59.83125 303.2469L59.83125 304.45L58.628124 304.45ZM61.05 300.21564Q61.05 298.6844 61.3625 297.7625Q61.675 296.825 62.284374 296.325Q62.909374 295.825 63.846874 295.825Q64.53438 295.825 65.05 296.10626Q65.58125 296.3875 65.925 296.91876Q66.26875 297.4344 66.45625 298.1844Q66.64375 298.9344 66.64375 300.21564Q66.64375 301.73126 66.33125 302.65314Q66.03438 303.575 65.40938 304.09064Q64.8 304.59064 63.846874 304.59064Q62.6125 304.59064 61.89375 303.7Q61.05 302.6375 61.05 300.21564ZM62.128124 300.21564Q62.128124 302.325 62.628124 303.02814Q63.128124 303.73126 63.846874 303.73126Q64.58125 303.73126 65.06563 303.02814Q65.56563 302.325 65.56563 300.21564Q65.56563 298.09064 65.06563 297.40314Q64.58125 296.7 63.83125 296.7Q63.1125 296.7 62.675 297.3094Q62.128124 298.09064 62.128124 300.21564ZM68.05 300.21564Q68.05 298.6844 68.3625 297.7625Q68.675 296.825 69.28438 296.325Q69.90938 295.825 70.84688 295.825Q71.53438 295.825 72.05 296.10626Q72.58125 296.3875 72.925 296.91876Q73.26875 297.4344 73.45625 298.1844Q73.64375 298.9344 73.64375 300.21564Q73.64375 301.73126 73.33125 302.65314Q73.03438 303.575 72.40938 304.09064Q71.8 304.59064 70.84688 304.59064Q69.6125 304.59064 68.89375 303.7Q68.05 302.6375 68.05 300.21564ZM69.12813 300.21564Q69.12813 302.325 69.62813 303.02814Q70.12813 303.73126 70.84688 303.73126Q71.58125 303.73126 72.06563 303.02814Q72.56563 302.325 72.56563 300.21564Q72.56563 298.09064 72.06563 297.40314Q71.58125 296.7 70.83125 296.7Q70.1125 296.7 69.675 297.3094Q69.12813 298.09064 69.12813 300.21564ZM75.62813 299.4344L75.62813 298.23126L76.83125 298.23126L76.83125 299.4344L75.62813 299.4344ZM75.62813 304.45L75.62813 303.2469L76.83125 303.2469L76.83125 304.45L75.62813 304.45ZM78.05 300.21564Q78.05 298.6844 78.3625 297.7625Q78.675 296.825 79.28438 296.325Q79.90938 295.825 80.84688 295.825Q81.53438 295.825 82.05 296.10626Q82.58125 296.3875 82.925 296.91876Q83.26875 297.4344 83.45625 298.1844Q83.64375 298.9344 83.64375 300.21564Q83.64375 301.73126 83.33125 302.65314Q83.03438 303.575 82.40938 304.09064Q81.8 304.59064 80.84688 304.59064Q79.6125 304.59064 78.89375 303.7Q78.05 302.6375 78.05 300.21564ZM79.12813 300.21564Q79.12813 302.325 79.62813 303.02814Q80.12813 303.73126 80.84688 303.73126Q81.58125 303.73126 82.06563 303.02814Q82.56563 302.325 82.56563 300.21564Q82.56563 298.09064 82.06563 297.40314Q81.58125 296.7 80.83125 296.7Q80.1125 296.7 79.675 297.3094Q79.12813 298.09064 79.12813 300.21564ZM85.05 300.21564Q85.05 298.6844 85.3625 297.7625Q85.675 296.825 86.28438 296.325Q86.90938 295.825 87.84688 295.825Q88.53438 295.825 89.05 296.10626Q89.58125 296.3875 89.925 296.91876Q90.26875 297.4344 90.45625 298.1844Q90.64375 298.9344 90.64375 300.21564Q90.64375 301.73126 90.33125 302.65314Q90.03438 303.575 89.40938 304.09064Q88.8 304.59064 87.84688 304.59064Q86.6125 304.59064 85.89375 303.7Q85.05 302.6375 85.05 300.21564ZM86.12813 300.21564Q86.12813 302.325 86.62813 303.02814Q87.12813 303.73126 87.84688 303.73126Q88.58125 303.73126 89.06563 303.02814Q89.56563 302.325 89.56563 300.21564Q89.56563 298.09064 89.06563 297.40314Q88.58125 296.7 87.83125 296.7Q87.1125 296.7 86.675 297.3094Q86.12813 298.09064 86.12813 300.21564Z" fill-rule="nonzero"/><path fill="#000000" d="M55.01875 254.74333L53.971874 254.74333L53.971874 248.02458Q53.58125 248.38396 52.95625 248.75896Q52.346874 249.11833 51.8625 249.2902L51.8625 248.27458Q52.7375 247.8527 53.39375 247.27458Q54.065624 246.68083 54.346874 246.11833L55.01875 246.11833L55.01875 254.74333ZM58.628124 249.7277L58.628124 248.52458L59.83125 248.52458L59.83125 249.7277L58.628124 249.7277ZM58.628124 254.74333L58.628124 253.5402L59.83125 253.5402L59.83125 254.74333L58.628124 254.74333ZM61.05 250.50896Q61.05 248.9777 61.3625 248.05583Q61.675 247.11833 62.284374 246.61833Q62.909374 246.11833 63.846874 246.11833Q64.53438 246.11833 65.05 246.39958Q65.58125 246.68083 65.925 247.21208Q66.26875 247.7277 66.45625 248.4777Q66.64375 249.2277 66.64375 250.50896Q66.64375 252.02458 66.33125 252.94646Q66.03438 253.86833 65.40938 254.38396Q64.8 254.88396 63.846874 254.88396Q62.6125 254.88396 61.89375 253.99333Q61.05 252.93083 61.05 250.50896ZM62.128124 250.50896Q62.128124 252.61833 62.628124 253.32146Q63.128124 254.02458 63.846874 254.02458Q64.58125 254.02458 65.06563 253.32146Q65.56563 252.61833 65.56563 250.50896Q65.56563 248.38396 65.06563 247.69646Q64.58125 246.99333 63.83125 246.99333Q63.1125 246.99333 62.675 247.6027Q62.128124 248.38396 62.128124 250.50896ZM68.05 250.50896Q68.05 248.9777 68.3625 248.05583Q68.675 247.11833 69.28438 246.61833Q69.90938 246.11833 70.84688 246.11833Q71.53438 246.11833 72.05 246.39958Q72.58125 246.68083 72.925 247.21208Q73.26875 247.7277 73.45625 248.4777Q73.64375 249.2277 73.64375 250.50896Q73.64375 252.02458 73.33125 252.94646Q73.03438 253.86833 72.40938 254.38396Q71.8 254.88396 70.84688 254.88396Q69.6125 254.88396 68.89375 253.99333Q68.05 252.93083 68.05 250.50896ZM69.12813 250.50896Q69.12813 252.61833 69.62813 253.32146Q70.12813 254.02458 70.84688 254.02458Q71.58125 254.02458 72.06563 253.32146Q72.56563 252.61833 72.56563 250.50896Q72.56563 248.38396 72.06563 247.69646Q71.58125 246.99333 70.83125 246.99333Q70.1125 246.99333 69.675 247.6027Q69.12813 248.38396 69.12813 250.50896ZM75.62813 249.7277L75.62813 248.52458L76.83125 248.52458L76.83125 249.7277L75.62813 249.7277ZM75.62813 254.74333L75.62813 253.5402L76.83125 253.5402L76.83125 254.74333L75.62813 254.74333ZM78.05 250.50896Q78.05 248.9777 78.3625 248.05583Q78.675 247.11833 79.28438 246.61833Q79.90938 246.11833 80.84688 246.11833Q81.53438 246.11833 82.05 246.39958Q82.58125 246.68083 82.925 247.21208Q83.26875 247.7277 83.45625 248.4777Q83.64375 249.2277 83.64375 250.50896Q83.64375 252.02458 83.33125 252.94646Q83.03438 253.86833 82.40938 254.38396Q81.8 254.88396 80.84688 254.88396Q79.6125 254.88396 78.89375 253.99333Q78.05 252.93083 78.05 250.50896ZM79.12813 250.50896Q79.12813 252.61833 79.62813 253.32146Q80.12813 254.02458 80.84688 254.02458Q81.58125 254.02458 82.06563 253.32146Q82.56563 252.61833 82.56563 250.50896Q82.56563 248.38396 82.06563 247.69646Q81.58125 246.99333 80.83125 246.99333Q80.1125 246.99333 79.675 247.6027Q79.12813 248.38396 79.12813 250.50896ZM85.05 250.50896Q85.05 248.9777 85.3625 248.05583Q85.675 247.11833 86.28438 246.61833Q86.90938 246.11833 87.84688 246.11833Q88.53438 246.11833 89.05 246.39958Q89.58125 246.68083 89.925 247.21208Q90.26875 247.7277 90.45625 248.4777Q90.64375 249.2277 90.64375 250.50896Q90.64375 252.02458 90.33125 252.94646Q90.03438 253.86833 89.40938 254.38396Q88.8 254.88396 87.84688 254.88396Q86.6125 254.88396 85.89375 253.99333Q85.05 252.93083 85.05 250.50896ZM86.12813 250.50896Q86.12813 252.61833 86.62813 253.32146Q87.12813 254.02458 87.84688 254.02458Q88.58125 254.02458 89.06563 253.32146Q89.56563 252.61833 89.56563 250.50896Q89.56563 248.38396 89.06563 247.69646Q88.58125 246.99333 87.83125 246.99333Q87.1125 246.99333 86.675 247.6027Q86.12813 248.38396 86.12813 250.50896Z" fill-rule="nonzero"/><path fill="#000000" d="M56.596874 204.02104L56.596874 205.03667L50.909374 205.03667Q50.909374 204.66167 51.034374 204.30229Q51.253124 203.72417 51.721874 203.16167Q52.20625 202.59917 53.1125 201.86479Q54.51875 200.70854 55.003124 200.03667Q55.503124 199.36479 55.503124 198.77104Q55.503124 198.14604 55.05 197.72417Q54.596874 197.28667 53.878124 197.28667Q53.1125 197.28667 52.659374 197.73979Q52.20625 198.19292 52.190624 199.00542L51.1125 198.89604Q51.221874 197.67729 51.940624 197.05229Q52.675 196.41167 53.909374 196.41167Q55.14375 196.41167 55.8625 197.09917Q56.58125 197.78667 56.58125 198.80229Q56.58125 199.31792 56.3625 199.81792Q56.159374 200.30229 55.659374 200.86479Q55.175 201.41167 54.05 202.36479Q53.096874 203.16167 52.815624 203.45854Q52.55 203.73979 52.378124 204.02104L56.596874 204.02104ZM58.628124 200.02104L58.628124 198.81792L59.83125 198.81792L59.83125 200.02104L58.628124 200.02104ZM58.628124 205.03667L58.628124 203.83354L59.83125 203.83354L59.83125 205.03667L58.628124 205.03667ZM61.05 200.80229Q61.05 199.27104 61.3625 198.34917Q61.675 197.41167 62.284374 196.91167Q62.909374 196.41167 63.846874 196.41167Q64.53438 196.41167 65.05 196.69292Q65.58125 196.97417 65.925 197.50542Q66.26875 198.02104 66.45625 198.77104Q66.64375 199.52104 66.64375 200.80229Q66.64375 202.31792 66.33125 203.23979Q66.03438 204.16167 65.40938 204.67729Q64.8 205.17729 63.846874 205.17729Q62.6125 205.17729 61.89375 204.28667Q61.05 203.22417 61.05 200.80229ZM62.128124 200.80229Q62.128124 202.91167 62.628124 203.61479Q63.128124 204.31792 63.846874 204.31792Q64.58125 204.31792 65.06563 203.61479Q65.56563 202.91167 65.56563 200.80229Q65.56563 198.67729 65.06563 197.98979Q64.58125 197.28667 63.83125 197.28667Q63.1125 197.28667 62.675 197.89604Q62.128124 198.67729 62.128124 200.80229ZM68.05 200.80229Q68.05 199.27104 68.3625 198.34917Q68.675 197.41167 69.28438 196.91167Q69.90938 196.41167 70.84688 196.41167Q71.53438 196.41167 72.05 196.69292Q72.58125 196.97417 72.925 197.50542Q73.26875 198.02104 73.45625 198.77104Q73.64375 199.52104 73.64375 200.80229Q73.64375 202.31792 73.33125 203.23979Q73.03438 204.16167 72.40938 204.67729Q71.8 205.17729 70.84688 205.17729Q69.6125 205.17729 68.89375 204.28667Q68.05 203.22417 68.05 200.80229ZM69.12813 200.80229Q69.12813 202.91167 69.62813 203.61479Q70.12813 204.31792 70.84688 204.31792Q71.58125 204.31792 72.06563 203.61479Q72.56563 202.91167 72.56563 200.80229Q72.56563 198.67729 72.06563 197.98979Q71.58125 197.28667 70.83125 197.28667Q70.1125 197.28667 69.675 197.89604Q69.12813 198.67729 69.12813 200.80229ZM75.62813 200.02104L75.62813 198.81792L76.83125 198.81792L76.83125 200.02104L75.62813 200.02104ZM75.62813 205.03667L75.62813 203.83354L76.83125 203.83354L76.83125 205.03667L75.62813 205.03667ZM78.05 200.80229Q78.05 199.27104 78.3625 198.34917Q78.675 197.41167 79.28438 196.91167Q79.90938 196.41167 80.84688 196.41167Q81.53438 196.41167 82.05 196.69292Q82.58125 196.97417 82.925 197.50542Q83.26875 198.02104 83.45625 198.77104Q83.64375 199.52104 83.64375 200.80229Q83.64375 202.31792 83.33125 203.23979Q83.03438 204.16167 82.40938 204.67729Q81.8 205.17729 80.84688 205.17729Q79.6125 205.17729 78.89375 204.28667Q78.05 203.22417 78.05 200.80229ZM79.12813 200.80229Q79.12813 202.91167 79.62813 203.61479Q80.12813 204.31792 80.84688 204.31792Q81.58125 204.31792 82.06563 203.61479Q82.56563 202.91167 82.56563 200.80229Q82.56563 198.67729 82.06563 197.98979Q81.58125 197.28667 80.83125 197.28667Q80.1125 197.28667 79.675 197.89604Q79.12813 198.67729 79.12813 200.80229ZM85.05 200.80229Q85.05 199.27104 85.3625 198.34917Q85.675 197.41167 86.28438 196.91167Q86.90938 196.41167 87.84688 196.41167Q88.53438 196.41167 89.05 196.69292Q89.58125 196.97417 89.925 197.50542Q90.26875 198.02104 90.45625 198.77104Q90.64375 199.52104 90.64375 200.80229Q90.64375 202.31792 90.33125 203.23979Q90.03438 204.16167 89.40938 204.67729Q88.8 205.17729 87.84688 205.17729Q86.6125 205.17729 85.89375 204.28667Q85.05 203.22417 85.05 200.80229ZM86.12813 200.80229Q86.12813 202.91167 86.62813 203.61479Q87.12813 204.31792 87.84688 204.31792Q88.58125 204.31792 89.06563 203.61479Q89.56563 202.91167 89.56563 200.80229Q89.56563 198.67729 89.06563 197.98979Q88.58125 197.28667 87.83125 197.28667Q87.1125 197.28667 86.675 197.89604Q86.12813 198.67729 86.12813 200.80229Z" fill-rule="nonzero"/><path fill="#000000" d="M51.05 153.06438L52.1125 152.92375Q52.284374 153.81438 52.721874 154.22063Q53.159374 154.61125 53.784374 154.61125Q54.534374 154.61125 55.05 154.09563Q55.565624 153.58 55.565624 152.81438Q55.565624 152.09563 55.08125 151.62688Q54.6125 151.1425 53.878124 151.1425Q53.58125 151.1425 53.128124 151.2675L53.253124 150.33Q53.3625 150.34563 53.425 150.34563Q54.096874 150.34563 54.628124 150.00188Q55.175 149.6425 55.175 148.90813Q55.175 148.33 54.784374 147.955Q54.39375 147.56438 53.76875 147.56438Q53.159374 147.56438 52.7375 147.955Q52.33125 148.34563 52.221874 149.11125L51.159374 148.92375Q51.346874 147.87688 52.034374 147.29875Q52.721874 146.705 53.7375 146.705Q54.440624 146.705 55.034374 147.0175Q55.628124 147.31438 55.940624 147.83Q56.253124 148.34563 56.253124 148.93938Q56.253124 149.48625 55.95625 149.955Q55.659374 150.40813 55.08125 150.67375Q55.83125 150.84563 56.253124 151.40813Q56.675 151.955 56.675 152.79875Q56.675 153.92375 55.846874 154.705Q55.034374 155.48625 53.784374 155.48625Q52.659374 155.48625 51.909374 154.81438Q51.159374 154.12688 51.05 153.06438ZM58.628124 150.31438L58.628124 149.11125L59.83125 149.11125L59.83125 150.31438L58.628124 150.31438ZM58.628124 155.33L58.628124 154.12688L59.83125 154.12688L59.83125 155.33L58.628124 155.33ZM61.05 151.09563Q61.05 149.56438 61.3625 148.6425Q61.675 147.705 62.284374 147.205Q62.909374 146.705 63.846874 146.705Q64.53438 146.705 65.05 146.98625Q65.58125 147.2675 65.925 147.79875Q66.26875 148.31438 66.45625 149.06438Q66.64375 149.81438 66.64375 151.09563Q66.64375 152.61125 66.33125 153.53313Q66.03438 154.455 65.40938 154.97063Q64.8 155.47063 63.846874 155.47063Q62.6125 155.47063 61.89375 154.58Q61.05 153.5175 61.05 151.09563ZM62.128124 151.09563Q62.128124 153.205 62.628124 153.90813Q63.128124 154.61125 63.846874 154.61125Q64.58125 154.61125 65.06563 153.90813Q65.56563 153.205 65.56563 151.09563Q65.56563 148.97063 65.06563 148.28313Q64.58125 147.58 63.83125 147.58Q63.1125 147.58 62.675 148.18938Q62.128124 148.97063 62.128124 151.09563ZM68.05 151.09563Q68.05 149.56438 68.3625 148.6425Q68.675 147.705 69.28438 147.205Q69.90938 146.705 70.84688 146.705Q71.53438 146.705 72.05 146.98625Q72.58125 147.2675 72.925 147.79875Q73.26875 148.31438 73.45625 149.06438Q73.64375 149.81438 73.64375 151.09563Q73.64375 152.61125 73.33125 153.53313Q73.03438 154.455 72.40938 154.97063Q71.8 155.47063 70.84688 155.47063Q69.6125 155.47063 68.89375 154.58Q68.05 153.5175 68.05 151.09563ZM69.12813 151.09563Q69.12813 153.205 69.62813 153.90813Q70.12813 154.61125 70.84688 154.61125Q71.58125 154.61125 72.06563 153.90813Q72.56563 153.205 72.56563 151.09563Q72.56563 148.97063 72.06563 148.28313Q71.58125 147.58 70.83125 147.58Q70.1125 147.58 69.675 148.18938Q69.12813 148.97063 69.12813 151.09563ZM75.62813 150.31438L75.62813 149.11125L76.83125 149.11125L76.83125 150.31438L75.62813 150.31438ZM75.62813 155.33L75.62813 154.12688L76.83125 154.12688L76.83125 155.33L75.62813 155.33ZM78.05 151.09563Q78.05 149.56438 78.3625 148.6425Q78.675 147.705 79.28438 147.205Q79.90938 146.705 80.84688 146.705Q81.53438 146.705 82.05 146.98625Q82.58125 147.2675 82.925 147.79875Q83.26875 148.31438 83.45625 149.06438Q83.64375 149.81438 83.64375 151.09563Q83.64375 152.61125 83.33125 153.53313Q83.03438 154.455 82.40938 154.97063Q81.8 155.47063 80.84688 155.47063Q79.6125 155.47063 78.89375 154.58Q78.05 153.5175 78.05 151.09563ZM79.12813 151.09563Q79.12813 153.205 79.62813 153.90813Q80.12813 154.61125 80.84688 154.61125Q81.58125 154.61125 82.06563 153.90813Q82.56563 153.205 82.56563 151.09563Q82.56563 148.97063 82.06563 148.28313Q81.58125 147.58 80.83125 147.58Q80.1125 147.58 79.675 148.18938Q79.12813 148.97063 79.12813 151.09563ZM85.05 151.09563Q85.05 149.56438 85.3625 148.6425Q85.675 147.705 86.28438 147.205Q86.90938 146.705 87.84688 146.705Q88.53438 146.705 89.05 146.98625Q89.58125 147.2675 89.925 147.79875Q90.26875 148.31438 90.45625 149.06438Q90.64375 149.81438 90.64375 151.09563Q90.64375 152.61125 90.33125 153.53313Q90.03438 154.455 89.40938 154.97063Q88.8 155.47063 87.84688 155.47063Q86.6125 155.47063 85.89375 154.58Q85.05 153.5175 85.05 151.09563ZM86.12813 151.09563Q86.12813 153.205 86.62813 153.90813Q87.12813 154.61125 87.84688 154.61125Q88.58125 154.61125 89.06563 153.90813Q89.56563 153.205 89.56563 151.09563Q89.56563 148.97063 89.06563 148.28313Q88.58125 147.58 87.83125 147.58Q87.1125 147.58 86.675 148.18938Q86.12813 148.97063 86.12813 151.09563Z" fill-rule="nonzero"/><path fill="#000000" d="M54.425 105.62334L54.425 103.56084L50.70625 103.56084L50.70625 102.59209L54.628124 97.02959L55.4875 97.02959L55.4875 102.59209L56.64375 102.59209L56.64375 103.56084L55.4875 103.56084L55.4875 105.62334L54.425 105.62334ZM54.425 102.59209L54.425 98.73271L51.7375 102.59209L54.425 102.59209ZM58.628124 100.60771L58.628124 99.40459L59.83125 99.40459L59.83125 100.60771L58.628124 100.60771ZM58.628124 105.62334L58.628124 104.42021L59.83125 104.42021L59.83125 105.62334L58.628124 105.62334ZM61.05 101.38896Q61.05 99.85771 61.3625 98.93584Q61.675 97.99834 62.284374 97.49834Q62.909374 96.99834 63.846874 96.99834Q64.53438 96.99834 65.05 97.27959Q65.58125 97.56084 65.925 98.09209Q66.26875 98.60771 66.45625 99.35771Q66.64375 100.10771 66.64375 101.38896Q66.64375 102.90459 66.33125 103.82646Q66.03438 104.74834 65.40938 105.26396Q64.8 105.76396 63.846874 105.76396Q62.6125 105.76396 61.89375 104.87334Q61.05 103.81084 61.05 101.38896ZM62.128124 101.38896Q62.128124 103.49834 62.628124 104.20146Q63.128124 104.90459 63.846874 104.90459Q64.58125 104.90459 65.06563 104.20146Q65.56563 103.49834 65.56563 101.38896Q65.56563 99.26396 65.06563 98.57646Q64.58125 97.87334 63.83125 97.87334Q63.1125 97.87334 62.675 98.48271Q62.128124 99.26396 62.128124 101.38896ZM68.05 101.38896Q68.05 99.85771 68.3625 98.93584Q68.675 97.99834 69.28438 97.49834Q69.90938 96.99834 70.84688 96.99834Q71.53438 96.99834 72.05 97.27959Q72.58125 97.56084 72.925 98.09209Q73.26875 98.60771 73.45625 99.35771Q73.64375 100.10771 73.64375 101.38896Q73.64375 102.90459 73.33125 103.82646Q73.03438 104.74834 72.40938 105.26396Q71.8 105.76396 70.84688 105.76396Q69.6125 105.76396 68.89375 104.87334Q68.05 103.81084 68.05 101.38896ZM69.12813 101.38896Q69.12813 103.49834 69.62813 104.20146Q70.12813 104.90459 70.84688 104.90459Q71.58125 104.90459 72.06563 104.20146Q72.56563 103.49834 72.56563 101.38896Q72.56563 99.26396 72.06563 98.57646Q71.58125 97.87334 70.83125 97.87334Q70.1125 97.87334 69.675 98.48271Q69.12813 99.26396 69.12813 101.38896ZM75.62813 100.60771L75.62813 99.40459L76.83125 99.40459L76.83125 100.60771L75.62813 100.60771ZM75.62813 105.62334L75.62813 104.42021L76.83125 104.42021L76.83125 105.62334L75.62813 105.62334ZM78.05 101.38896Q78.05 99.85771 78.3625 98.93584Q78.675 97.99834 79.28438 97.49834Q79.90938 96.99834 80.84688 96.99834Q81.53438 96.99834 82.05 97.27959Q82.58125 97.56084 82.925 98.09209Q83.26875 98.60771 83.45625 99.35771Q83.64375 100.10771 83.64375 101.38896Q83.64375 102.90459 83.33125 103.82646Q83.03438 104.74834 82.40938 105.26396Q81.8 105.76396 80.84688 105.76396Q79.6125 105.76396 78.89375 104.87334Q78.05 103.81084 78.05 101.38896ZM79.12813 101.38896Q79.12813 103.49834 79.62813 104.20146Q80.12813 104.90459 80.84688 104.90459Q81.58125 104.90459 82.06563 104.20146Q82.56563 103.49834 82.56563 101.38896Q82.56563 99.26396 82.06563 98.57646Q81.58125 97.87334 80.83125 97.87334Q80.1125 97.87334 79.675 98.48271Q79.12813 99.26396 79.12813 101.38896ZM85.05 101.38896Q85.05 99.85771 85.3625 98.93584Q85.675 97.99834 86.28438 97.49834Q86.90938 96.99834 87.84688 96.99834Q88.53438 96.99834 89.05 97.27959Q89.58125 97.56084 89.925 98.09209Q90.26875 98.60771 90.45625 99.35771Q90.64375 100.10771 90.64375 101.38896Q90.64375 102.90459 90.33125 103.82646Q90.03438 104.74834 89.40938 105.26396Q88.8 105.76396 87.84688 105.76396Q86.6125 105.76396 85.89375 104.87334Q85.05 103.81084 85.05 101.38896ZM86.12813 101.38896Q86.12813 103.49834 86.62813 104.20146Q87.12813 104.90459 87.84688 104.90459Q88.58125 104.90459 89.06563 104.20146Q89.56563 103.49834 89.56563 101.38896Q89.56563 99.26396 89.06563 98.57646Q88.58125 97.87334 87.83125 97.87334Q87.1125 97.87334 86.675 98.48271Q86.12813 99.26396 86.12813 101.38896Z" fill-rule="nonzero"/><path fill="#000000" d="M51.05 53.666668L52.159374 53.572918Q52.284374 54.385418 52.721874 54.791668Q53.175 55.197918 53.815624 55.197918Q54.565624 55.197918 55.096874 54.619793Q55.628124 54.041668 55.628124 53.104168Q55.628124 52.197918 55.1125 51.682293Q54.6125 51.151043 53.784374 51.151043Q53.284374 51.151043 52.8625 51.385418Q52.45625 51.619793 52.221874 51.979168L51.2375 51.854168L52.065624 47.447918L56.346874 47.447918L56.346874 48.447918L52.909374 48.447918L52.45625 50.760418Q53.221874 50.213543 54.065624 50.213543Q55.190624 50.213543 55.95625 50.994793Q56.7375 51.776043 56.7375 53.010418Q56.7375 54.166668 56.065624 55.026043Q55.2375 56.057293 53.815624 56.057293Q52.64375 56.057293 51.89375 55.401043Q51.159374 54.744793 51.05 53.666668ZM58.628124 50.901043L58.628124 49.697918L59.83125 49.697918L59.83125 50.901043L58.628124 50.901043ZM58.628124 55.916668L58.628124 54.713543L59.83125 54.713543L59.83125 55.916668L58.628124 55.916668ZM61.05 51.682293Q61.05 50.151043 61.3625 49.229168Q61.675 48.291668 62.284374 47.791668Q62.909374 47.291668 63.846874 47.291668Q64.53438 47.291668 65.05 47.572918Q65.58125 47.854168 65.925 48.385418Q66.26875 48.901043 66.45625 49.651043Q66.64375 50.401043 66.64375 51.682293Q66.64375 53.197918 66.33125 54.119793Q66.03438 55.041668 65.40938 55.557293Q64.8 56.057293 63.846874 56.057293Q62.6125 56.057293 61.89375 55.166668Q61.05 54.104168 61.05 51.682293ZM62.128124 51.682293Q62.128124 53.791668 62.628124 54.494793Q63.128124 55.197918 63.846874 55.197918Q64.58125 55.197918 65.06563 54.494793Q65.56563 53.791668 65.56563 51.682293Q65.56563 49.557293 65.06563 48.869793Q64.58125 48.166668 63.83125 48.166668Q63.1125 48.166668 62.675 48.776043Q62.128124 49.557293 62.128124 51.682293ZM68.05 51.682293Q68.05 50.151043 68.3625 49.229168Q68.675 48.291668 69.28438 47.791668Q69.90938 47.291668 70.84688 47.291668Q71.53438 47.291668 72.05 47.572918Q72.58125 47.854168 72.925 48.385418Q73.26875 48.901043 73.45625 49.651043Q73.64375 50.401043 73.64375 51.682293Q73.64375 53.197918 73.33125 54.119793Q73.03438 55.041668 72.40938 55.557293Q71.8 56.057293 70.84688 56.057293Q69.6125 56.057293 68.89375 55.166668Q68.05 54.104168 68.05 51.682293ZM69.12813 51.682293Q69.12813 53.791668 69.62813 54.494793Q70.12813 55.197918 70.84688 55.197918Q71.58125 55.197918 72.06563 54.494793Q72.56563 53.791668 72.56563 51.682293Q72.56563 49.557293 72.06563 48.869793Q71.58125 48.166668 70.83125 48.166668Q70.1125 48.166668 69.675 48.776043Q69.12813 49.557293 69.12813 51.682293ZM75.62813 50.901043L75.62813 49.697918L76.83125 49.697918L76.83125 50.901043L75.62813 50.901043ZM75.62813 55.916668L75.62813 54.713543L76.83125 54.713543L76.83125 55.916668L75.62813 55.916668ZM78.05 51.682293Q78.05 50.151043 78.3625 49.229168Q78.675 48.291668 79.28438 47.791668Q79.90938 47.291668 80.84688 47.291668Q81.53438 47.291668 82.05 47.572918Q82.58125 47.854168 82.925 48.385418Q83.26875 48.901043 83.45625 49.651043Q83.64375 50.401043 83.64375 51.682293Q83.64375 53.197918 83.33125 54.119793Q83.03438 55.041668 82.40938 55.557293Q81.8 56.057293 80.84688 56.057293Q79.6125 56.057293 78.89375 55.166668Q78.05 54.104168 78.05 51.682293ZM79.12813 51.682293Q79.12813 53.791668 79.62813 54.494793Q80.12813 55.197918 80.84688 55.197918Q81.58125 55.197918 82.06563 54.494793Q82.56563 53.791668 82.56563 51.682293Q82.56563 49.557293 82.06563 48.869793Q81.58125 48.166668 80.83125 48.166668Q80.1125 48.166668 79.675 48.776043Q79.12813 49.557293 79.12813 51.682293ZM85.05 51.682293Q85.05 50.151043 85.3625 49.229168Q85.675 48.291668 86.28438 47.791668Q86.90938 47.291668 87.84688 47.291668Q88.53438 47.291668 89.05 47.572918Q89.58125 47.854168 89.925 48.385418Q90.26875 48.901043 90.45625 49.651043Q90.64375 50.401043 90.64375 51.682293Q90.64375 53.197918 90.33125 54.119793Q90.03438 55.041668 89.40938 55.557293Q88.8 56.057293 87.84688 56.057293Q86.6125 56.057293 85.89375 55.166668Q85.05 54.104168 85.05 51.682293ZM86.12813 51.682293Q86.12813 53.791668 86.62813 54.494793Q87.12813 55.197918 87.84688 55.197918Q88.58125 55.197918 89.06563 54.494793Q89.56563 53.791668 89.56563 51.682293Q89.56563 49.557293 89.06563 48.869793Q88.58125 48.166668 87.83125 48.166668Q87.1125 48.166668 86.675 48.776043Q86.12813 49.557293 86.12813 51.682293Z" fill-rule="nonzero"/><path fill="#000000" d="M94.55 313.21564Q94.55 311.6844 94.8625 310.7625Q95.175 309.825 95.78438 309.325Q96.40938 308.825 97.34688 308.825Q98.03438 308.825 98.55 309.10626Q99.08125 309.3875 99.425 309.91876Q99.76875 310.4344 99.95625 311.1844Q100.14375 311.9344 100.14375 313.21564Q100.14375 314.73126 99.83125 315.65314Q99.53438 316.575 98.90938 317.09064Q98.3 317.59064 97.34688 317.59064Q96.1125 317.59064 95.39375 316.7Q94.55 315.6375 94.55 313.21564ZM95.62813 313.21564Q95.62813 315.325 96.12813 316.02814Q96.62813 316.73126 97.34688 316.73126Q98.08125 316.73126 98.56563 316.02814Q99.06563 315.325 99.06563 313.21564Q99.06563 311.09064 98.56563 310.40314Q98.08125 309.7 97.33125 309.7Q96.6125 309.7 96.175 310.3094Q95.62813 311.09064 95.62813 313.21564Z" fill-rule="nonzero"/><path fill="#000000" d="M188.07645 317.45L187.02957 317.45L187.02957 310.73126Q186.63895 311.09064 186.01395 311.46564Q185.40457 311.825 184.9202 311.9969L184.9202 310.98126Q185.7952 310.5594 186.45145 309.98126Q187.12332 309.3875 187.40457 308.825L188.07645 308.825L188.07645 317.45ZM191.1077 313.21564Q191.1077 311.6844 191.4202 310.7625Q191.7327 309.825 192.34207 309.325Q192.96707 308.825 193.90457 308.825Q194.59207 308.825 195.1077 309.10626Q195.63895 309.3875 195.9827 309.91876Q196.32645 310.4344 196.51395 311.1844Q196.70145 311.9344 196.70145 313.21564Q196.70145 314.73126 196.38895 315.65314Q196.09207 316.575 195.46707 317.09064Q194.8577 317.59064 193.90457 317.59064Q192.6702 317.59064 191.95145 316.7Q191.1077 315.6375 191.1077 313.21564ZM192.18582 313.21564Q192.18582 315.325 192.68582 316.02814Q193.18582 316.73126 193.90457 316.73126Q194.63895 316.73126 195.12332 316.02814Q195.62332 315.325 195.62332 313.21564Q195.62332 311.09064 195.12332 310.40314Q194.63895 309.7 193.88895 309.7Q193.1702 309.7 192.7327 310.3094Q192.18582 311.09064 192.18582 313.21564Z" fill-rule="nonzero"/><path fill="#000000" d="M282.71225 316.4344L282.71225 317.45L277.02475 317.45Q277.02475 317.075 277.14975 316.71564Q277.3685 316.1375 277.83725 315.575Q278.32162 315.0125 279.22787 314.27814Q280.63412 313.1219 281.1185 312.45Q281.6185 311.77814 281.6185 311.1844Q281.6185 310.5594 281.16537 310.1375Q280.71225 309.7 279.9935 309.7Q279.22787 309.7 278.77475 310.15314Q278.32162 310.60626 278.306 311.41876L277.22787 311.3094Q277.33725 310.09064 278.056 309.46564Q278.79037 308.825 280.02475 308.825Q281.25912 308.825 281.97787 309.5125Q282.69662 310.2 282.69662 311.21564Q282.69662 311.73126 282.47787 312.23126Q282.27475 312.71564 281.77475 313.27814Q281.29037 313.825 280.16537 314.77814Q279.21225 315.575 278.931 315.8719Q278.66537 316.15314 278.4935 316.4344L282.71225 316.4344ZM284.16537 313.21564Q284.16537 311.6844 284.47787 310.7625Q284.79037 309.825 285.39975 309.325Q286.02475 308.825 286.96225 308.825Q287.64975 308.825 288.16537 309.10626Q288.69662 309.3875 289.04037 309.91876Q289.38412 310.4344 289.57162 311.1844Q289.75912 311.9344 289.75912 313.21564Q289.75912 314.73126 289.44662 315.65314Q289.14975 316.575 288.52475 317.09064Q287.91537 317.59064 286.96225 317.59064Q285.72787 317.59064 285.00912 316.7Q284.16537 315.6375 284.16537 313.21564ZM285.2435 313.21564Q285.2435 315.325 285.7435 316.02814Q286.2435 316.73126 286.96225 316.73126Q287.69662 316.73126 288.181 316.02814Q288.681 315.325 288.681 313.21564Q288.681 311.09064 288.181 310.40314Q287.69662 309.7 286.94662 309.7Q286.22787 309.7 285.79037 310.3094Q285.2435 311.09064 285.2435 313.21564Z" fill-rule="nonzero"/><path fill="#000000" d="M370.22308 315.1844L371.28558 315.04376Q371.45746 315.9344 371.89496 316.34064Q372.33246 316.73126 372.95746 316.73126Q373.70746 316.73126 374.22308 316.21564Q374.7387 315.7 374.7387 314.9344Q374.7387 314.21564 374.25433 313.7469Q373.78558 313.2625 373.0512 313.2625Q372.75433 313.2625 372.3012 313.3875L372.4262 312.45Q372.53558 312.46564 372.59808 312.46564Q373.26996 312.46564 373.8012 312.1219Q374.34808 311.7625 374.34808 311.02814Q374.34808 310.45 373.95746 310.075Q373.56683 309.6844 372.94183 309.6844Q372.33246 309.6844 371.91058 310.075Q371.50433 310.46564 371.39496 311.23126L370.33246 311.04376Q370.51996 309.9969 371.20746 309.41876Q371.89496 308.825 372.91058 308.825Q373.6137 308.825 374.20746 309.1375Q374.8012 309.4344 375.1137 309.95Q375.4262 310.46564 375.4262 311.0594Q375.4262 311.60626 375.12933 312.075Q374.83246 312.52814 374.25433 312.79376Q375.00433 312.96564 375.4262 313.52814Q375.84808 314.075 375.84808 314.91876Q375.84808 316.04376 375.01996 316.825Q374.20746 317.60626 372.95746 317.60626Q371.83246 317.60626 371.08246 316.9344Q370.33246 316.2469 370.22308 315.1844ZM377.22308 313.21564Q377.22308 311.6844 377.53558 310.7625Q377.84808 309.825 378.45746 309.325Q379.08246 308.825 380.01996 308.825Q380.70746 308.825 381.22308 309.10626Q381.75433 309.3875 382.09808 309.91876Q382.44183 310.4344 382.62933 311.1844Q382.81683 311.9344 382.81683 313.21564Q382.81683 314.73126 382.50433 315.65314Q382.20746 316.575 381.58246 317.09064Q380.97308 317.59064 380.01996 317.59064Q378.78558 317.59064 378.06683 316.7Q377.22308 315.6375 377.22308 313.21564ZM378.3012 313.21564Q378.3012 315.325 378.8012 316.02814Q379.3012 316.73126 380.01996 316.73126Q380.75433 316.73126 381.2387 316.02814Q381.7387 315.325 381.7387 313.21564Q381.7387 311.09064 381.2387 310.40314Q380.75433 309.7 380.00433 309.7Q379.28558 309.7 378.84808 310.3094Q378.3012 311.09064 378.3012 313.21564Z" fill-rule="nonzero"/><path fill="#000000" d="M466.65576 317.45L466.65576 315.3875L462.937 315.3875L462.937 314.41876L466.8589 308.85626L467.71826 308.85626L467.71826 314.41876L468.8745 314.41876L468.8745 315.3875L467.71826 315.3875L467.71826 317.45L466.65576 317.45ZM466.65576 314.41876L466.65576 310.5594L463.96826 314.41876L466.65576 314.41876ZM470.28076 313.21564Q470.28076 311.6844 470.59326 310.7625Q470.90576 309.825 471.51514 309.325Q472.14014 308.825 473.07764 308.825Q473.76514 308.825 474.28076 309.10626Q474.812 309.3875 475.15576 309.91876Q475.4995 310.4344 475.687 311.1844Q475.8745 311.9344 475.8745 313.21564Q475.8745 314.73126 475.562 315.65314Q475.26514 316.575 474.64014 317.09064Q474.03076 317.59064 473.07764 317.59064Q471.84326 317.59064 471.1245 316.7Q470.28076 315.6375 470.28076 313.21564ZM471.3589 313.21564Q471.3589 315.325 471.8589 316.02814Q472.3589 316.73126 473.07764 316.73126Q473.812 316.73126 474.2964 316.02814Q474.7964 315.325 474.7964 313.21564Q474.7964 311.09064 474.2964 310.40314Q473.812 309.7 473.062 309.7Q472.34326 309.7 471.90576 310.3094Q471.3589 311.09064 471.3589 313.21564Z" fill-rule="nonzero"/><path fill="#000000" d="M556.33844 315.2L557.4478 315.10626Q557.5728 315.91876 558.0103 316.325Q558.46344 316.73126 559.10406 316.73126Q559.85406 316.73126 560.3853 316.15314Q560.91656 315.575 560.91656 314.6375Q560.91656 313.73126 560.40094 313.21564Q559.90094 312.6844 559.0728 312.6844Q558.5728 312.6844 558.15094 312.91876Q557.7447 313.15314 557.5103 313.5125L556.52594 313.3875L557.35406 308.98126L561.6353 308.98126L561.6353 309.98126L558.1978 309.98126L557.7447 312.29376Q558.5103 311.7469 559.35406 311.7469Q560.47906 311.7469 561.2447 312.52814Q562.02594 313.3094 562.02594 314.54376Q562.02594 315.7 561.35406 316.5594Q560.52594 317.59064 559.10406 317.59064Q557.9322 317.59064 557.1822 316.9344Q556.4478 316.27814 556.33844 315.2ZM563.33844 313.21564Q563.33844 311.6844 563.65094 310.7625Q563.96344 309.825 564.5728 309.325Q565.1978 308.825 566.1353 308.825Q566.8228 308.825 567.33844 309.10626Q567.8697 309.3875 568.21344 309.91876Q568.5572 310.4344 568.7447 311.1844Q568.9322 311.9344 568.9322 313.21564Q568.9322 314.73126 568.6197 315.65314Q568.3228 316.575 567.6978 317.09064Q567.08844 317.59064 566.1353 317.59064Q564.90094 317.59064 564.1822 316.7Q563.33844 315.6375 563.33844 313.21564ZM564.41656 313.21564Q564.41656 315.325 564.91656 316.02814Q565.41656 316.73126 566.1353 316.73126Q566.8697 316.73126 567.35406 316.02814Q567.85406 315.325 567.85406 313.21564Q567.85406 311.09064 567.35406 310.40314Q566.8697 309.7 566.1197 309.7Q565.40094 309.7 564.96344 310.3094Q564.41656 311.09064 564.41656 313.21564Z" fill-rule="nonzero"/><path stroke="#4285f4" stroke-width="4.0" stroke-linecap="butt" d="M231.0 25.55L243.0 25.55" fill-rule="nonzero"/><path fill="#1a1a1a" d="M251.95312 29.55L251.95312 20.95625L258.15625 20.95625L258.15625 21.971874L253.09375 21.971874L253.09375 24.596874L257.84375 24.596874L257.84375 25.6125L253.09375 25.6125L253.09375 28.534374L258.35938 28.534374L258.35938 29.55L251.95312 29.55ZM259.09375 29.55L261.35938 26.315624L259.26562 23.33125L260.57812 23.33125L261.53125 24.784374Q261.79688 25.20625 261.96875 25.4875Q262.21875 25.096874 262.4375 24.8L263.48438 23.33125L264.75 23.33125L262.59375 26.253124L264.90625 29.55L263.625 29.55L262.34375 27.6125L262.0 27.096874L260.35938 29.55L259.09375 29.55ZM269.04688 27.55L270.14062 27.675Q269.89062 28.628124 269.1875 29.159374Q268.48438 29.690624 267.40625 29.690624Q266.04688 29.690624 265.23438 28.846874Q264.4375 28.003124 264.4375 26.4875Q264.4375 24.925 265.25 24.065624Q266.0625 23.190624 267.34375 23.190624Q268.59375 23.190624 269.375 24.034374Q270.17188 24.878124 270.17188 26.425Q270.17188 26.51875 270.17188 26.70625L265.53125 26.70625Q265.59375 27.7375 266.10938 28.284374Q266.625 28.815624 267.40625 28.815624Q267.98438 28.815624 268.39062 28.51875Q268.8125 28.20625 269.04688 27.55ZM265.59375 25.846874L269.0625 25.846874Q269.0 25.05 268.67188 24.659374Q268.15625 24.05 267.35938 24.05Q266.625 24.05 266.125 24.534374Q265.64062 25.01875 265.59375 25.846874ZM271.78125 29.55L271.78125 23.33125L272.73438 23.33125L272.73438 24.26875Q273.09375 23.6125 273.39062 23.409374Q273.70312 23.190624 274.07812 23.190624Q274.60938 23.190624 275.15625 23.51875L274.79688 24.503124Q274.40625 24.26875 274.03125 24.26875Q273.67188 24.26875 273.39062 24.4875Q273.125 24.690624 273.01562 25.065624Q272.82812 25.628124 272.82812 26.284374L272.82812 29.55L271.78125 29.55ZM279.85938 27.26875L280.89062 27.409374Q280.71875 28.471874 280.01562 29.08125Q279.3125 29.690624 278.29688 29.690624Q277.01562 29.690624 276.23438 28.8625Q275.46875 28.01875 275.46875 26.45625Q275.46875 25.45625 275.79688 24.70625Q276.14062 23.940624 276.8125 23.565624Q277.5 23.190624 278.3125 23.190624Q279.3125 23.190624 279.95312 23.70625Q280.60938 24.20625 280.79688 25.159374L279.76562 25.315624Q279.625 24.690624 279.25 24.378124Q278.875 24.05 278.34375 24.05Q277.54688 24.05 277.04688 24.628124Q276.54688 25.190624 276.54688 26.425Q276.54688 27.690624 277.03125 28.253124Q277.51562 28.815624 278.28125 28.815624Q278.90625 28.815624 279.3125 28.440624Q279.73438 28.065624 279.85938 27.26875ZM281.79688 22.175L281.79688 20.95625L282.85938 20.95625L282.85938 22.175L281.79688 22.175ZM281.79688 29.55L281.79688 23.33125L282.85938 23.33125L282.85938 29.55L281.79688 29.55ZM284.375 27.690624L285.40625 27.534374Q285.5 28.159374 285.89062 28.4875Q286.29688 28.815624 287.03125 28.815624Q287.75 28.815624 288.09375 28.534374Q288.45312 28.2375 288.45312 27.83125Q288.45312 27.471874 288.14062 27.26875Q287.92188 27.128124 287.0625 26.909374Q285.90625 26.6125 285.45312 26.409374Q285.01562 26.190624 284.78125 25.815624Q284.54688 25.440624 284.54688 24.971874Q284.54688 24.565624 284.73438 24.20625Q284.92188 23.846874 285.25 23.6125Q285.5 23.440624 285.92188 23.315624Q286.34375 23.190624 286.84375 23.190624Q287.5625 23.190624 288.10938 23.409374Q288.67188 23.6125 288.9375 23.971874Q289.20312 24.33125 289.29688 24.925L288.26562 25.065624Q288.20312 24.596874 287.85938 24.33125Q287.53125 24.05 286.90625 24.05Q286.1875 24.05 285.875 24.3Q285.5625 24.534374 285.5625 24.8625Q285.5625 25.065624 285.6875 25.221874Q285.82812 25.39375 286.09375 25.503124Q286.25 25.565624 287.03125 25.76875Q288.15625 26.08125 288.59375 26.26875Q289.03125 26.45625 289.28125 26.815624Q289.53125 27.175 289.53125 27.721874Q289.53125 28.253124 289.21875 28.721874Q288.92188 29.175 288.34375 29.440624Q287.76562 29.690624 287.03125 29.690624Q285.8125 29.690624 285.17188 29.190624Q284.54688 28.675 284.375 27.690624ZM296.04688 27.55L297.14062 27.675Q296.89062 28.628124 296.1875 29.159374Q295.48438 29.690624 294.40625 29.690624Q293.04688 29.690624 292.23438 28.846874Q291.4375 28.003124 291.4375 26.4875Q291.4375 24.925 292.25 24.065624Q293.0625 23.190624 294.34375 23.190624Q295.59375 23.190624 296.375 24.034374Q297.17188 24.878124 297.17188 26.425Q297.17188 26.51875 297.17188 26.70625L292.53125 26.70625Q292.59375 27.7375 293.10938 28.284374Q293.625 28.815624 294.40625 28.815624Q294.98438 28.815624 295.39062 28.51875Q295.8125 28.20625 296.04688 27.55ZM292.59375 25.846874L296.0625 25.846874Q296.0 25.05 295.67188 24.659374Q295.15625 24.05 294.35938 24.05Q293.625 24.05 293.125 24.534374Q292.64062 25.01875 292.59375 25.846874Z" fill-rule="nonzero"/><path stroke="#ea4335" stroke-width="4.0" stroke-linecap="butt" d="M314.0 25.55L326.0 25.55" fill-rule="nonzero"/><path fill="#1a1a1a" d="M337.10938 29.55L337.10938 21.971874L334.28125 21.971874L334.28125 20.95625L341.09375 20.95625L341.09375 21.971874L338.25 21.971874L338.25 29.55L337.10938 29.55ZM345.85938 28.784374Q345.26562 29.284374 344.71875 29.4875Q344.1875 29.690624 343.5625 29.690624Q342.53125 29.690624 341.98438 29.190624Q341.4375 28.690624 341.4375 27.909374Q341.4375 27.45625 341.64062 27.08125Q341.84375 26.690624 342.1875 26.471874Q342.53125 26.2375 342.95312 26.128124Q343.25 26.034374 343.89062 25.95625Q345.15625 25.815624 345.76562 25.596874Q345.76562 25.378124 345.76562 25.33125Q345.76562 24.675 345.46875 24.409374Q345.0625 24.065624 344.26562 24.065624Q343.53125 24.065624 343.17188 24.33125Q342.8125 24.58125 342.64062 25.2375L341.60938 25.096874Q341.75 24.440624 342.07812 24.034374Q342.40625 23.628124 343.01562 23.409374Q343.625 23.190624 344.42188 23.190624Q345.21875 23.190624 345.71875 23.378124Q346.21875 23.565624 346.45312 23.846874Q346.6875 24.128124 346.78125 24.565624Q346.82812 24.83125 346.82812 25.534374L346.82812 26.940624Q346.82812 28.409374 346.89062 28.8Q346.96875 29.190624 347.17188 29.55L346.0625 29.55Q345.90625 29.221874 345.85938 28.784374ZM345.76562 26.425Q345.1875 26.659374 344.04688 26.83125Q343.39062 26.925 343.125 27.05Q342.85938 27.159374 342.70312 27.378124Q342.5625 27.596874 342.5625 27.878124Q342.5625 28.3 342.875 28.58125Q343.20312 28.8625 343.8125 28.8625Q344.42188 28.8625 344.89062 28.596874Q345.375 28.33125 345.59375 27.8625Q345.76562 27.503124 345.76562 26.815624L345.76562 26.425ZM348.78125 29.55L348.78125 23.33125L349.73438 23.33125L349.73438 24.26875Q350.09375 23.6125 350.39062 23.409374Q350.70312 23.190624 351.07812 23.190624Q351.60938 23.190624 352.15625 23.51875L351.79688 24.503124Q351.40625 24.26875 351.03125 24.26875Q350.67188 24.26875 350.39062 24.4875Q350.125 24.690624 350.01562 25.065624Q349.82812 25.628124 349.82812 26.284374L349.82812 29.55L348.78125 29.55ZM352.59375 30.065624L353.625 30.221874Q353.6875 30.690624 353.98438 30.909374Q354.375 31.20625 355.04688 31.20625Q355.78125 31.20625 356.17188 30.909374Q356.57812 30.6125 356.71875 30.096874Q356.8125 29.76875 356.79688 28.7375Q356.10938 29.55 355.07812 29.55Q353.79688 29.55 353.09375 28.628124Q352.39062 27.690624 352.39062 26.409374Q352.39062 25.51875 352.70312 24.76875Q353.03125 24.003124 353.64062 23.596874Q354.25 23.190624 355.07812 23.190624Q356.1875 23.190624 356.90625 24.08125L356.90625 23.33125L357.875 23.33125L357.875 28.70625Q357.875 30.159374 357.57812 30.76875Q357.28125 31.378124 356.64062 31.721874Q356.0 32.08125 355.0625 32.08125Q353.95312 32.08125 353.26562 31.58125Q352.57812 31.08125 352.59375 30.065624ZM353.46875 26.33125Q353.46875 27.55 353.95312 28.1125Q354.4375 28.675 355.17188 28.675Q355.90625 28.675 356.39062 28.1125Q356.89062 27.55 356.89062 26.3625Q356.89062 25.221874 356.375 24.64375Q355.875 24.065624 355.15625 24.065624Q354.45312 24.065624 353.95312 24.64375Q353.46875 25.20625 353.46875 26.33125ZM364.04688 27.55L365.14062 27.675Q364.89062 28.628124 364.1875 29.159374Q363.48438 29.690624 362.40625 29.690624Q361.04688 29.690624 360.23438 28.846874Q359.4375 28.003124 359.4375 26.4875Q359.4375 24.925 360.25 24.065624Q361.0625 23.190624 362.34375 23.190624Q363.59375 23.190624 364.375 24.034374Q365.17188 24.878124 365.17188 26.425Q365.17188 26.51875 365.17188 26.70625L360.53125 26.70625Q360.59375 27.7375 361.10938 28.284374Q361.625 28.815624 362.40625 28.815624Q362.98438 28.815624 363.39062 28.51875Q363.8125 28.20625 364.04688 27.55ZM360.59375 25.846874L364.0625 25.846874Q364.0 25.05 363.67188 24.659374Q363.15625 24.05 362.35938 24.05Q361.625 24.05 361.125 24.534374Q360.64062 25.01875 360.59375 25.846874ZM369.09375 28.6125L369.25 29.534374Q368.79688 29.628124 368.45312 29.628124Q367.875 29.628124 367.5625 29.45625Q367.25 29.26875 367.10938 28.971874Q366.98438 28.675 366.98438 27.721874L366.98438 24.14375L366.21875 24.14375L366.21875 23.33125L366.98438 23.33125L366.98438 21.784374L368.03125 21.159374L368.03125 23.33125L369.09375 23.33125L369.09375 24.14375L368.03125 24.14375L368.03125 27.784374Q368.03125 28.2375 368.07812 28.3625Q368.14062 28.4875 368.26562 28.565624Q368.39062 28.64375 368.625 28.64375Q368.8125 28.64375 369.09375 28.6125Z" fill-rule="nonzero"/></svg>