<svg version="1.1" viewBox="0.0 0.0 600.0 371.0" fill="none" stroke="none" stroke-linecap="square" stroke-miterlimit="10" width="600" height="371" xmlns:xlink="http://www.w3.org/1999/xlink" xmlns="http://www.w3.org/2000/svg"><path fill="#ffffff" d="M0 0L600.0 0L600.0 371.0L0 371.0L0 0Z" fill-rule="nonzero"/><path stroke="#333333" stroke-width="1.0" stroke-linecap="butt" d="M77.5 25.5L77.5 300.5" fill-rule="nonzero"/><path stroke="#cccccc" stroke-width="1.0" stroke-linecap="butt" d="M174.5 25.5L174.5 300.5" fill-rule="nonzero"/><path stroke="#cccccc" stroke-width="1.0" stroke-linecap="butt" d="M271.5 25.5L271.5 300.5" fill-rule="nonzero"/><path stroke="#cccccc" stroke-width="1.0" stroke-linecap="butt" d="M368.5 25.5L368.5 300.5" fill-rule="nonzero"/><path stroke="#cccccc" stroke-width="1.0" stroke-linecap="butt" d="M465.5 25.5L465.5 300.5" fill-rule="nonzero"/><path stroke="#cccccc" stroke-width="1.0" stroke-linecap="butt" d="M562.5 25.5L562.5 300.5" fill-rule="nonzero"/><path stroke="#333333" stroke-width="1.0" stroke-linecap="butt" d="M77.5 300.5L581.5 300.5" fill-rule="nonzero"/><path stroke="#cccccc" stroke-width="1.0" stroke-linecap="butt" d="M77.5 231.5L581.5 231.5" fill-rule="nonzero"/><path stroke="#cccccc" stroke-width="1.0" stroke-linecap="butt" d="M77.5 163.5L581.5 163.5" fill-rule="nonzero"/><path stroke="#cccccc" stroke-width="1.0" stroke-linecap="butt" d="M77.5 94.5L581.5 94.5" fill-rule="nonzero"/><path stroke="#cccccc" stroke-width="1.0" stroke-linecap="butt" d="M77.5 25.5L581.5 25.5" fill-rule="nonzero"/><clipPath id="id_0"><path d="M77.55 25.55L581.45 25.55L581.45 300.45L77.55 300.45L77.55 25.55Z" clip-rule="nonzero"/></clipPath><path stroke="#4285f4" stroke-width="2.0" stroke-linecap="butt" clip-path="url(#id_0)" d="M77.55 90.83875C77.55 90.83875 84.010254 92.55688 87.24039 90.83875C90.47051 89.12063 93.70064 83.39354 96.93077 80.53C100.1609 77.66646 103.39103 73.08479 106.621155 73.6575C109.85128 74.23021 113.08141 81.10271 116.31154 83.96625C119.541664 86.82979 122.7718 89.69334 126.00192 90.83875C129.23206 91.98417 135.6923 90.83875 135.6923 90.83875" fill-rule="nonzero"/><path stroke="#4285f4" stroke-width="2.0" stroke-linecap="butt" stroke-opacity="0.4" clip-path="url(#id_0)" d="M0 84.43171C0 84.43171 2.6666667 84.46699 4.0 84.48462C5.3333335 84.50226 6.6666665 84.51989 8.0 84.53751C9.333333 84.555145 10.666667 84.57278 12.0 84.5904C13.333333 84.608025 14.666667 84.62565 16.0 84.64327C17.333334 84.6609 18.666666 84.67851 20.0 84.69613C21.333334 84.713745 22.666666 84.73136 24.0 84.74898C25.333334 84.76659 26.666666 84.7842 28.0 84.80181C29.333334 84.81942 30.666666 84.83702 32.0 84.85463C33.333332 84.87223 34.666668 84.88983 36.0 84.90743C37.333332 84.92503 38.666668 84.942635 40.0 84.96023C41.333332 84.97782 42.666668 84.995415 44.0 85.01301C45.333332 85.0306 46.666668 85.04819 48.0 85.06578C49.333332 85.08337 50.666668 85.10095 52.0 85.11853C53.333332 85.136116 54.666668 85.153694 56.0 85.17127C57.333332 85.18885 58.666668 85.20643 60.0 85.22401C61.333332 85.24158 62.666668 85.25915 64.0 85.27672C65.333336 85.29429 66.666664 85.31186 68.0 85.32942C69.333336 85.346985 70.666664 85.36455 72.0 85.38211C73.333336 85.39967 74.666664 85.41724 76.0 85.43479C77.333336 85.45235 78.666664 85.4699 80.0 85.48746C81.333336 85.505005 82.666664 85.52256 84.0 85.54011C85.333336 85.557655 86.666664 85.5752 88.0 85.59274C89.333336 85.61029 90.666664 85.62783 92.0 85.64537C93.333336 85.66291 94.666664 85.68045 96.0 85.69798C97.333336 85.71552 98.666664 85.733055 100.0 85.75059C101.333336 85.76811 102.666664 85.785645 104.0 85.80317C105.333336 85.820694 106.666664 85.83822 108.0 85.85574C109.333336 85.87327 110.666664 85.890785 112.0 85.90831C113.333336 85.92583 114.666664 85.943344 116.0 85.96085C117.333336 85.97837 118.666664 85.99588 120.0 86.01339C121.333336 86.0309 122.666664 86.04841 124.0 86.06591C125.333336 86.08342 126.666664 86.10092 128.0 86.11842C129.33333 86.135925 130.66667 86.15343 132.0 86.17092C133.33333 86.188416 134.66667 86.20591 136.0 86.223404C137.33333 86.2409 138.66667 86.258385 140.0 86.27588C141.33333 86.293365 142.66667 86.31085 144.0 86.32833C145.33333 86.34582 146.66667 86.3633 148.0 86.38078C149.33333 86.39826 150.66667 86.41574 152.0 86.43321C153.33333 86.45069 154.66667 86.46816 156.0 86.485634C157.33333 86.503105 158.66667 86.52058 160.0 86.53804C161.33333 86.555504 162.66667 86.57297 164.0 86.59043C165.33333 86.607895 166.66667 86.62536 168.0 86.642815C169.33333 86.66027 170.66667 86.67773 172.0 86.69518C173.33333 86.71264 174.66667 86.73009 176.0 86.74754C177.33333 86.76499 178.66667 86.78244 180.0 86.79988C181.33333 86.81733 182.66667 86.83477 184.0 86.85221C185.33333 86.86965 186.66667 86.88709 188.0 86.90453C189.33333 86.92197 190.66667 86.9394 192.0 86.95683C193.33333 86.974266 194.66667 86.9917 196.0 87.009125C197.33333 87.02656 198.66667 87.04398 200.0 87.0614C201.33333 87.07883 202.66667 87.09625 204.0 87.11367C205.33333 87.13109 206.66667 87.148506 208.0 87.165924C209.33333 87.18334 210.66667 87.20075 212.0 87.21816C213.33333 87.23557 214.66667 87.25298 216.0 87.27039C217.33333 87.287796 218.66667 87.30521 220.0 87.32261C221.33333 87.34001 222.66667 87.357414 224.0 87.37481C225.33333 87.39221 226.66667 87.40961 228.0 87.427C229.33333 87.4444 230.66667 87.461784 232.0 87.47917C233.33333 87.49657 234.66667 87.513954 236.0 87.53134C237.33333 87.54872 238.66667 87.56611 240.0 87.58349C241.33333 87.60087 242.66667 87.61825 244.0 87.63563C245.33333 87.65301 246.66667 87.67038 248.0 87.68775C249.33333 87.705124 250.66667 87.722496 252.0 87.73987C253.33333 87.75723 254.66667 87.774605 256.0 87.79197C257.33334 87.80933 258.66666 87.82669 260.0 87.844055C261.33334 87.86141 262.66666 87.87877 264.0 87.896126C265.33334 87.91348 266.66666 87.93084 268.0 87.94819C269.33334 87.96554 270.66666 87.98289 272.0 88.00024C273.33334 88.017586 274.66666 88.03493 276.0 88.05228C277.33334 88.06962 278.66666 88.08696 280.0 88.1043C281.33334 88.121635 282.66666 88.13898 284.0 88.15631C285.33334 88.173645 286.66666 88.19098 288.0 88.208305C289.33334 88.22564 290.66666 88.242966 292.0 88.26029C293.33334 88.27762 294.66666 88.294945 296.0 88.31226C297.33334 88.32958 298.66666 88.34691 300.0 88.36423C301.33334 88.38154 302.66666 88.39886 304.0 88.41617C305.33334 88.43349 306.66666 88.4508 308.0 88.4681C309.33334 88.48541 310.66666 88.50272 312.0 88.52003C313.33334 88.53733 314.66666 88.554634 316.0 88.57194C317.33334 88.58923 318.66666 88.60654 320.0 88.62383C321.33334 88.64113 322.66666 88.658424 324.0 88.67571C325.33334 88.69301 326.66666 88.7103 328.0 88.727585C329.33334 88.74487 330.66666 88.76216 332.0 88.77944C333.33334 88.79673 334.66666 88.81401 336.0 88.83129C337.33334 88.84857 338.66666 88.865845 340.0 88.88312C341.33334 88.9004 342.66666 88.91767 344.0 88.934944C345.33334 88.95221 346.66666 88.96948 348.0 88.98675C349.33334 89.00401 350.66666 89.02128 352.0 89.03854C353.33334 89.05581 354.66666 89.07307 356.0 89.090324C357.33334 89.10758 358.66666 89.12484 360.0 89.14209C361.33334 89.15935 362.66666 89.1766 364.0 89.19385C365.33334 89.2111 366.66666 89.22835 368.0 89.24559C369.33334 89.26284 370.66666 89.28008 372.0 89.297325C373.33334 89.31457 374.66666 89.3318 376.0 89.349045C377.33334 89.36628 378.66666 89.383514 380.0 89.40075C381.33334 89.417984 382.66666 89.43521 384.0 89.45244C385.33334 89.46967 386.66666 89.4869 388.0 89.50412C389.33334 89.52135 390.66666 89.53857 392.0 89.55579C393.33334 89.57301 394.66666 89.590225 396.0 89.607445C397.33334 89.624664 398.66666 89.64188 400.0 89.65909C401.33334 89.6763 402.66666 89.69351 404.0 89.71072C405.33334 89.72793 406.66666 89.74513 408.0 89.76234C409.33334 89.77954 410.66666 89.79674 412.0 89.81394C413.33334 89.83114 414.66666 89.848335 416.0 89.86553C417.33334 89.88273 418.66666 89.89992 420.0 89.91711C421.33334 89.9343 422.66666 89.95149 424.0 89.96867C425.33334 89.98586 426.66666 90.00305 428.0 90.02023C429.33334 90.037415 430.66666 90.054596 432.0 90.07177C433.33334 90.08895 434.66666 90.106125 436.0 90.1233C437.33334 90.14047 438.66666 90.157646 440.0 90.17482C441.33334 90.191986 442.66666 90.20915 444.0 90.22632C445.33334 90.243484 446.66666 90.26065 448.0 90.27781C449.33334 90.294975 450.66666 90.31213 452.0 90.32929C453.33334 90.34645 454.66666 90.3636 456.0 90.38075C457.33334 90.39791 458.66666 90.41506 460.0 90.432205C461.33334 90.449356 462.66666 90.46651 464.0 90.48365C465.33334 90.50079 466.66666 90.51794 468.0 90.53508C469.33334 90.552216 470.66666 90.56936 472.0 90.586494C473.33334 90.60363 474.66666 90.620766 476.0 90.63789C477.33334 90.65503 478.66666 90.67216 480.0 90.689285C481.33334 90.70641 482.66666 90.72354 484.0 90.74066C485.33334 90.75779 486.66666 90.77491 488.0 90.79203C489.33334 90.80914 490.66666 90.82626 492.0 90.843376C493.33334 90.8605 494.66666 90.87761 496.0 90.89472C497.33334 90.91183 498.66666 90.92894 500.0 90.946045C501.33334 90.96315 502.66666 90.980255 504.0 90.99736C505.33334 91.014465 506.66666 91.03156 508.0 91.04866C509.33334 91.06576 510.66666 91.082855 512.0 91.09995C513.3333 91.11705 514.6667 91.13414 516.0 91.15123C517.3333 91.16832 518.6667 91.18541 520.0 91.20249C521.3333 91.21958 522.6667 91.236664 524.0 91.253746C525.3333 91.27083 526.6667 91.28791 528.0 91.304985C529.3333 91.32206 530.6667 91.339134 532.0 91.35621C533.3333 91.37328 534.6667 91.39036 536.0 91.407425C537.3333 91.42449 538.6667 91.44156 540.0 91.458626C541.3333 91.47569 542.6667 91.49275 544.0 91.50982C545.3333 91.52688 546.6667 91.54394 548.0 91.56099C549.3333 91.57805 550.6667 91.5951 552.0 91.61216C553.3333 91.62921 554.6667 91.64626 556.0 91.66331C557.3333 91.68036 558.6667 91.6974 560.0 91.71445C561.3333 91.73149 562.6667 91.748535 564.0 91.76557C565.3333 91.782616 566.6667 91.79965 568.0 91.81669C569.3333 91.833725 570.6667 91.85075 572.0 91.86779C573.3333 91.88482 574.6667 91.90185 576.0 91.91888C577.3333 91.935905 580.0 91.969955 580.0 91.969955" fill-rule="nonzero"/><path fill="#000000" fill-opacity="0.0" clip-path="url(#id_0)" d="M80.55 90.83875C80.55 92.495605 79.206856 93.83875 77.55 93.83875C75.89314 93.83875 74.55 92.495605 74.55 90.83875C74.55 89.18189 75.89314 87.83875 77.55 87.83875C79.206856 87.83875 80.55 89.18189 80.55 90.83875Z" fill-rule="nonzero"/><path fill="#000000" fill-opacity="0.0" clip-path="url(#id_0)" d="M90.24039 90.83875C90.24039 92.495605 88.89724 93.83875 87.24039 93.83875C85.58353 93.83875 84.24039 92.495605 84.24039 90.83875C84.24039 89.18189 85.58353 87.83875 87.24039 87.83875C88.89724 87.83875 90.24039 89.18189 90.24039 90.83875Z" fill-rule="nonzero"/><path fill="#000000" fill-opacity="0.0" clip-path="url(#id_0)" d="M99.93077 80.53C99.93077 82.18685 98.58762 83.53 96.93077 83.53C95.27392 83.53 93.93077 82.18685 93.93077 80.53C93.93077 78.873146 95.27392 77.53 96.93077 77.53C98.58762 77.53 99.93077 78.873146 99.93077 80.53Z" fill-rule="nonzero"/><path fill="#000000" fill-opacity="0.0" clip-path="url(#id_0)" d="M109.621155 73.6575C109.621155 75.314354 108.27801 76.6575 106.621155 76.6575C104.9643 76.6575 103.621155 75.314354 103.621155 73.6575C103.621155 72.00065 104.9643 70.6575 106.621155 70.6575C108.27801 70.6575 109.621155 72.00065 109.621155 73.6575Z" fill-rule="nonzero"/><path fill="#000000" fill-opacity="0.0" clip-path="url(#id_0)" d="M119.31154 83.96625C119.31154 85.62311 117.96839 86.96625 116.31154 86.96625C114.654686 86.96625 113.31154 85.62311 113.31154 83.96625C113.31154 82.309395 114.654686 80.96625 116.31154 80.96625C117.96839 80.96625 119.31154 82.309395 119.31154 83.96625Z" fill-rule="nonzero"/><path fill="#000000" fill-opacity="0.0" clip-path="url(#id_0)" d="M129.00192 90.83875C129.00192 92.495605 127.658775 93.83875 126.00192 93.83875C124.34507 93.83875 123.00192 92.495605 123.00192 90.83875C123.00192 89.18189 124.34507 87.83875 126.00192 87.83875C127.658775 87.83875 129.00192 89.18189 129.00192 90.83875Z" fill-rule="nonzero"/><path fill="#000000" fill-opacity="0.0" clip-path="url(#id_0)" d="M138.6923 90.83875C138.6923 92.495605 137.34917 93.83875 135.6923 93.83875C134.03545 93.83875 132.6923 92.495605 132.6923 90.83875C132.6923 89.18189 134.03545 87.83875 135.6923 87.83875C137.34917 87.83875 138.6923 89.18189 138.6923 90.83875Z" fill-rule="nonzero"/><path fill="#000000" d="M316.42188 349.45L314.14062 340.85626L315.3125 340.85626L316.625 346.4969Q316.82812 347.3719 316.98438 348.2469Q317.3125 346.8719 317.375 346.65314L319.0 340.85626L320.375 340.85626L321.60938 345.2Q322.0625 346.825 322.28125 348.2469Q322.4375 347.4344 322.70312 346.3719L324.04688 340.85626L325.1875 340.85626L322.84375 349.45L321.73438 349.45L319.9375 342.90314Q319.70312 342.09064 319.65625 341.90314Q319.53125 342.48126 319.40625 342.90314L317.59375 349.45L316.42188 349.45ZM330.04688 347.45L331.14062 347.575Q330.89062 348.52814 330.1875 349.0594Q329.48438 349.59064 328.40625 349.59064Q327.04688 349.59064 326.23438 348.7469Q325.4375 347.90314 325.4375 346.3875Q325.4375 344.825 326.25 343.96564Q327.0625 343.09064 328.34375 343.09064Q329.59375 343.09064 330.375 343.9344Q331.17188 344.77814 331.17188 346.325Q331.17188 346.41876 331.17188 346.60626L326.53125 346.60626Q326.59375 347.6375 327.10938 348.1844Q327.625 348.71564 328.40625 348.71564Q328.98438 348.71564 329.39062 348.41876Q329.8125 348.10626 330.04688 347.45ZM326.59375 345.7469L330.0625 345.7469Q330.0 344.95 329.67188 344.5594Q329.15625 343.95 328.35938 343.95Q327.625 343.95 327.125 344.4344Q326.64062 344.91876 326.59375 345.7469ZM337.04688 347.45L338.14062 347.575Q337.89062 348.52814 337.1875 349.0594Q336.48438 349.59064 335.40625 349.59064Q334.04688 349.59064 333.23438 348.7469Q332.4375 347.90314 332.4375 346.3875Q332.4375 344.825 333.25 343.96564Q334.0625 343.09064 335.34375 343.09064Q336.59375 343.09064 337.375 343.9344Q338.17188 344.77814 338.17188 346.325Q338.17188 346.41876 338.17188 346.60626L333.53125 346.60626Q333.59375 347.6375 334.10938 348.1844Q334.625 348.71564 335.40625 348.71564Q335.98438 348.71564 336.39062 348.41876Q336.8125 348.10626 337.04688 347.45ZM333.59375 345.7469L337.0625 345.7469Q337.0 344.95 336.67188 344.5594Q336.15625 343.95 335.35938 343.95Q334.625 343.95 334.125 344.4344Q333.64062 344.91876 333.59375 345.7469ZM339.79688 349.45L339.79688 340.85626L340.85938 340.85626L340.85938 345.7625L343.34375 343.23126L344.71875 343.23126L342.32812 345.52814L344.95312 349.45L343.65625 349.45L341.59375 346.2625L340.85938 346.98126L340.85938 349.45L339.79688 349.45Z" fill-rule="nonzero"/><path fill="#000000" d="M29.550013 239.0625L20.956263 239.0625L20.956263 235.25Q20.956263 234.09375 21.190638 233.5Q21.425013 232.90625 22.018763 232.54688Q22.596888 232.1875 23.300013 232.1875Q24.221888 232.1875 24.846888 232.78125Q25.471888 233.375 25.643763 234.60938Q25.862513 234.15625 26.065638 233.92188Q26.518763 233.42188 27.206263 232.98438L29.550013 231.48438L29.550013 232.92188L27.768763 234.04688Q26.987513 234.54688 26.581263 234.875Q26.175013 235.1875 26.018763 235.45312Q25.846888 235.70312 25.768763 235.96875Q25.737513 236.15625 25.737513 236.59375L25.737513 237.92188L29.550013 237.92188L29.550013 239.0625ZM24.753138 237.92188L24.753138 235.46875Q24.753138 234.70312 24.596888 234.26562Q24.425013 233.8125 24.081263 233.59375Q23.721888 233.35938 23.300013 233.35938Q22.690638 233.35938 22.300013 233.8125Q21.909388 234.25 21.909388 235.20312L21.909388 237.92188L24.753138 237.92188ZM27.550013 225.95312L27.675013 224.85938Q28.628138 225.10938 29.159388 225.8125Q29.690638 226.51562 29.690638 227.59375Q29.690638 228.95312 28.846888 229.76562Q28.003138 230.5625 26.487513 230.5625Q24.925013 230.5625 24.065638 229.75Q23.190638 228.9375 23.190638 227.65625Q23.190638 226.40625 24.034388 225.625Q24.878138 224.82812 26.425013 224.82812Q26.518763 224.82812 26.706263 224.82812L26.706263 229.46875Q27.737513 229.40625 28.284388 228.89062Q28.815638 228.375 28.815638 227.59375Q28.815638 227.01562 28.518763 226.60938Q28.206263 226.1875 27.550013 225.95312ZM25.846888 229.40625L25.846888 225.9375Q25.050013 226.0 24.659388 226.32812Q24.050013 226.84375 24.050013 227.64062Q24.050013 228.375 24.534388 228.875Q25.018763 229.35938 25.846888 229.40625ZM27.690638 223.625L27.534388 222.59375Q28.159388 222.5 28.487513 222.10938Q28.815638 221.70312 28.815638 220.96875Q28.815638 220.25 28.534388 219.90625Q28.237513 219.54688 27.831263 219.54688Q27.471888 219.54688 27.268763 219.85938Q27.128138 220.07812 26.909388 220.9375Q26.612513 222.09375 26.409388 222.54688Q26.190638 222.98438 25.815638 223.21875Q25.440638 223.45312 24.971888 223.45312Q24.565638 223.45312 24.206263 223.26562Q23.846888 223.07812 23.612513 222.75Q23.440638 222.5 23.315638 222.07812Q23.190638 221.65625 23.190638 221.15625Q23.190638 220.4375 23.409388 219.89062Q23.612513 219.32812 23.971888 219.0625Q24.331263 218.79688 24.925013 218.70312L25.065638 219.73438Q24.596888 219.79688 24.331263 220.14062Q24.050013 220.46875 24.050013 221.09375Q24.050013 221.8125 24.300013 222.125Q24.534388 222.4375 24.862513 222.4375Q25.065638 222.4375 25.221888 222.3125Q25.393763 222.17188 25.503138 221.90625Q25.565638 221.75 25.768763 220.96875Q26.081263 219.84375 26.268763 219.40625Q26.456263 218.96875 26.815638 218.71875Q27.175013 218.46875 27.721888 218.46875Q28.253138 218.46875 28.721888 218.78125Q29.175013 219.07812 29.440638 219.65625Q29.690638 220.23438 29.690638 220.96875Q29.690638 222.1875 29.190638 222.82812Q28.675013 223.45312 27.690638 223.625ZM28.612513 213.90625L29.534388 213.75Q29.628138 214.20312 29.628138 214.54688Q29.628138 215.125 29.456263 215.4375Q29.268763 215.75 28.971888 215.89062Q28.675013 216.01562 27.721888 216.01562L24.143763 216.01562L24.143763 216.78125L23.331263 216.78125L23.331263 216.01562L21.784388 216.01562L21.159388 214.96875L23.331263 214.96875L23.331263 213.90625L24.143763 213.90625L24.143763 214.96875L27.784388 214.96875Q28.237513 214.96875 28.362513 214.92188Q28.487513 214.85938 28.565638 214.73438Q28.643763 214.60938 28.643763 214.375Q28.643763 214.1875 28.612513 213.90625ZM22.175013 213.20312L20.956263 213.20312L20.956263 212.14062L22.175013 212.14062L22.175013 213.20312ZM29.550013 213.20312L23.331263 213.20312L23.331263 212.14062L29.550013 212.14062L29.550013 213.20312ZM29.550013 210.20312L23.331263 210.20312L23.331263 209.26562L24.206263 209.26562Q23.190638 208.57812 23.190638 207.28125Q23.190638 206.71875 23.393763 206.25Q23.596888 205.76562 23.925013 205.53125Q24.253138 205.29688 24.690638 205.20312Q24.987513 205.15625 25.721888 205.15625L29.550013 205.15625L29.550013 206.20312L25.768763 206.20312Q25.112513 206.20312 24.800013 206.32812Q24.487513 206.45312 24.300013 206.76562Q24.096888 207.07812 24.096888 207.5Q24.096888 208.17188 24.534388 208.67188Q24.956263 209.15625 26.143763 209.15625L29.550013 209.15625L29.550013 210.20312ZM30.065638 203.40625L30.221888 202.375Q30.690638 202.3125 30.909388 202.01562Q31.206263 201.625 31.206263 200.95312Q31.206263 200.21875 30.909388 199.82812Q30.612513 199.42188 30.096888 199.28125Q29.768763 199.1875 28.737513 199.20312Q29.550013 199.89062 29.550013 200.92188Q29.550013 202.20312 28.628138 202.90625Q27.690638 203.60938 26.409388 203.60938Q25.518763 203.60938 24.768763 203.29688Q24.003138 202.96875 23.596888 202.35938Q23.190638 201.75 23.190638 200.92188Q23.190638 199.8125 24.081263 199.09375L23.331263 199.09375L23.331263 198.125L28.706263 198.125Q30.159388 198.125 30.768763 198.42188Q31.378138 198.71875 31.721888 199.35938Q32.08126 200.0 32.08126 200.9375Q32.08126 202.04688 31.581263 202.73438Q31.081263 203.42188 30.065638 203.40625ZM26.331263 202.53125Q27.550013 202.53125 28.112513 202.04688Q28.675013 201.5625 28.675013 200.82812Q28.675013 200.09375 28.112513 199.60938Q27.550013 199.10938 26.362513 199.10938Q25.221888 199.10938 24.643763 199.625Q24.065638 200.125 24.065638 200.84375Q24.065638 201.54688 24.643763 202.04688Q25.206263 202.53125 26.331263 202.53125ZM29.550013 193.03125L20.956263 193.03125L20.956263 191.90625L24.487513 191.90625L24.487513 187.4375L20.956263 187.4375L20.956263 186.29688L29.550013 186.29688L29.550013 187.4375L25.503138 187.4375L25.503138 191.90625L29.550013 191.90625L29.550013 193.03125ZM27.550013 179.95312L27.675013 178.85938Q28.628138 179.10938 29.159388 179.8125Q29.690638 180.51562 29.690638 181.59375Q29.690638 182.95312 28.846888 183.76562Q28.003138 184.5625 26.487513 184.5625Q24.925013 184.5625 24.065638 183.75Q23.190638 182.9375 23.190638 181.65625Q23.190638 180.40625 24.034388 179.625Q24.878138 178.82812 26.425013 178.82812Q26.518763 178.82812 26.706263 178.82812L26.706263 183.46875Q27.737513 183.40625 28.284388 182.89062Q28.815638 182.375 28.815638 181.59375Q28.815638 181.01562 28.518763 180.60938Q28.206263 180.1875 27.550013 179.95312ZM25.846888 183.40625L25.846888 179.9375Q25.050013 180.0 24.659388 180.32812Q24.050013 180.84375 24.050013 181.64062Q24.050013 182.375 24.534388 182.875Q25.018763 183.35938 25.846888 183.40625ZM28.784388 173.14062Q29.284388 173.73438 29.487513 174.28125Q29.690638 174.8125 29.690638 175.4375Q29.690638 176.46875 29.190638 177.01562Q28.690638 177.5625 27.909388 177.5625Q27.456263 177.5625 27.081263 177.35938Q26.690638 177.15625 26.471888 176.8125Q26.237513 176.46875 26.128138 176.04688Q26.034388 175.75 25.956263 175.10938Q25.815638 173.84375 25.596888 173.23438Q25.378138 173.23438 25.331263 173.23438Q24.675013 173.23438 24.409388 173.53125Q24.065638 173.9375 24.065638 174.73438Q24.065638 175.46875 24.331263 175.82812Q24.581263 176.1875 25.237513 176.35938L25.096888 177.39062Q24.440638 177.25 24.034388 176.92188Q23.628138 176.59375 23.409388 175.98438Q23.190638 175.375 23.190638 174.57812Q23.190638 173.78125 23.378138 173.28125Q23.565638 172.78125 23.846888 172.54688Q24.128138 172.3125 24.565638 172.21875Q24.831263 172.17188 25.534388 172.17188L26.940638 172.17188Q28.409388 172.17188 28.800013 172.10938Q29.190638 172.03125 29.550013 171.82812L29.550013 172.9375Q29.221888 173.09375 28.784388 173.14062ZM26.425013 173.23438Q26.659388 173.8125 26.831263 174.95312Q26.925013 175.60938 27.050013 175.875Q27.159388 176.14062 27.378138 176.29688Q27.596888 176.4375 27.878138 176.4375Q28.300013 176.4375 28.581263 176.125Q28.862513 175.79688 28.862513 175.1875Q28.862513 174.57812 28.596888 174.10938Q28.331263 173.625 27.862513 173.40625Q27.503138 173.23438 26.815638 173.23438L26.425013 173.23438ZM29.550013 170.21875L23.331263 170.21875L23.331263 169.26562L24.268763 169.26562Q23.612513 168.90625 23.409388 168.60938Q23.190638 168.29688 23.190638 167.92188Q23.190638 167.39062 23.518763 166.84375L24.503138 167.20312Q24.268763 167.59375 24.268763 167.96875Q24.268763 168.32812 24.487513 168.60938Q24.690638 168.875 25.065638 168.98438Q25.628138 169.17188 26.284388 169.17188L29.550013 169.17188L29.550013 170.21875ZM28.612513 163.90625L29.534388 163.75Q29.628138 164.20312 29.628138 164.54688Q29.628138 165.125 29.456263 165.4375Q29.268763 165.75 28.971888 165.89062Q28.675013 166.01562 27.721888 166.01562L24.143763 166.01562L24.143763 166.78125L23.331263 166.78125L23.331263 166.01562L21.784388 166.01562L21.159388 164.96875L23.331263 164.96875L23.331263 163.90625L24.143763 163.90625L24.143763 164.96875L27.784388 164.96875Q28.237513 164.96875 28.362513 164.92188Q28.487513 164.85938 28.565638 164.73438Q28.643763 164.60938 28.643763 164.375Q28.643763 164.1875 28.612513 163.90625ZM29.550013 160.0625L20.956263 160.0625L20.956263 156.25Q20.956263 155.09375 21.190638 154.5Q21.425013 153.90625 22.018763 153.54688Q22.596888 153.1875 23.300013 153.1875Q24.221888 153.1875 24.846888 153.78125Q25.471888 154.375 25.643763 155.60938Q25.862513 155.15625 26.065638 154.92188Q26.518763 154.42188 27.206263 153.98438L29.550013 152.48438L29.550013 153.92188L27.768763 155.04688Q26.987513 155.54688 26.581263 155.875Q26.175013 156.1875 26.018763 156.45312Q25.846888 156.70312 25.768763 156.96875Q25.737513 157.15625 25.737513 157.59375L25.737513 158.92188L29.550013 158.92188L29.550013 160.0625ZM24.753138 158.92188L24.753138 156.46875Q24.753138 155.70312 24.596888 155.26562Q24.425013 154.8125 24.081263 154.59375Q23.721888 154.35938 23.300013 154.35938Q22.690638 154.35938 22.300013 154.8125Q21.909388 155.25 21.909388 156.20312L21.909388 158.92188L24.753138 158.92188ZM28.784388 147.14062Q29.284388 147.73438 29.487513 148.28125Q29.690638 148.8125 29.690638 149.4375Q29.690638 150.46875 29.190638 151.01562Q28.690638 151.5625 27.909388 151.5625Q27.456263 151.5625 27.081263 151.35938Q26.690638 151.15625 26.471888 150.8125Q26.237513 150.46875 26.128138 150.04688Q26.034388 149.75 25.956263 149.10938Q25.815638 147.84375 25.596888 147.23438Q25.378138 147.23438 25.331263 147.23438Q24.675013 147.23438 24.409388 147.53125Q24.065638 147.9375 24.065638 148.73438Q24.065638 149.46875 24.331263 149.82812Q24.581263 150.1875 25.237513 150.35938L25.096888 151.39062Q24.440638 151.25 24.034388 150.92188Q23.628138 150.59375 23.409388 149.98438Q23.190638 149.375 23.190638 148.57812Q23.190638 147.78125 23.378138 147.28125Q23.565638 146.78125 23.846888 146.54688Q24.128138 146.3125 24.565638 146.21875Q24.831263 146.17188 25.534388 146.17188L26.940638 146.17188Q28.409388 146.17188 28.800013 146.10938Q29.190638 146.03125 29.550013 145.82812L29.550013 146.9375Q29.221888 147.09375 28.784388 147.14062ZM26.425013 147.23438Q26.659388 147.8125 26.831263 148.95312Q26.925013 149.60938 27.050013 149.875Q27.159388 150.14062 27.378138 150.29688Q27.596888 150.4375 27.878138 150.4375Q28.300013 150.4375 28.581263 150.125Q28.862513 149.79688 28.862513 149.1875Q28.862513 148.57812 28.596888 148.10938Q28.331263 147.625 27.862513 147.40625Q27.503138 147.23438 26.815638 147.23438L26.425013 147.23438ZM28.612513 141.90625L29.534388 141.75Q29.628138 142.20312 29.628138 142.54688Q29.628138 143.125 29.456263 143.4375Q29.268763 143.75 28.971888 143.89062Q28.675013 144.01562 27.721888 144.01562L24.143763 144.01562L24.143763 144.78125L23.331263 144.78125L23.331263 144.01562L21.784388 144.01562L21.159388 142.96875L23.331263 142.96875L23.331263 141.90625L24.143763 141.90625L24.143763 142.96875L27.784388 142.96875Q28.237513 142.96875 28.362513 142.92188Q28.487513 142.85938 28.565638 142.73438Q28.643763 142.60938 28.643763 142.375Q28.643763 142.1875 28.612513 141.90625ZM27.550013 136.95312L27.675013 135.85938Q28.628138 136.10938 29.159388 136.8125Q29.690638 137.51562 29.690638 138.59375Q29.690638 139.95312 28.846888 140.76562Q28.003138 141.5625 26.487513 141.5625Q24.925013 141.5625 24.065638 140.75Q23.190638 139.9375 23.190638 138.65625Q23.190638 137.40625 24.034388 136.625Q24.878138 135.82812 26.425013 135.82812Q26.518763 135.82812 26.706263 135.82812L26.706263 140.46875Q27.737513 140.40625 28.284388 139.89062Q28.815638 139.375 28.815638 138.59375Q28.815638 138.01562 28.518763 137.60938Q28.206263 137.1875 27.550013 136.95312ZM25.846888 140.40625L25.846888 136.9375Q25.050013 137.0 24.659388 137.32812Q24.050013 137.84375 24.050013 138.64062Q24.050013 139.375 24.534388 139.875Q25.018763 140.35938 25.846888 140.40625ZM32.08126 129.1875Q30.971888 130.0625 29.503138 130.67188Q28.018763 131.26562 26.440638 131.26562Q25.050013 131.26562 23.768763 130.82812Q22.284388 130.29688 20.815638 129.1875L20.815638 128.4375Q22.034388 129.14062 22.550013 129.375Q23.362513 129.73438 24.237513 129.9375Q25.331263 130.1875 26.440638 130.1875Q29.268763 130.1875 32.08126 128.4375L32.08126 129.1875ZM29.550013 126.234375L29.550013 127.21875L20.956263 127.21875L20.956263 126.15625L24.018763 126.15625Q23.190638 125.484375 23.190638 124.453125Q23.190638 123.875 23.425013 123.375Q23.643763 122.859375 24.065638 122.53125Q24.487513 122.1875 25.081263 122.0Q25.675013 121.8125 26.346888 121.8125Q27.940638 121.8125 28.815638 122.609375Q29.690638 123.40625 29.690638 124.5Q29.690638 125.609375 28.768763 126.234375L29.550013 126.234375ZM26.393763 126.25Q27.503138 126.25 28.003138 125.9375Q28.815638 125.4375 28.815638 124.59375Q28.815638 123.90625 28.221888 123.40625Q27.628138 122.890625 26.425013 122.890625Q25.206263 122.890625 24.628138 123.375Q24.050013 123.859375 24.050013 124.546875Q24.050013 125.234375 24.659388 125.75Q25.253138 126.25 26.393763 126.25ZM31.940638 120.203125L23.331263 120.203125L23.331263 119.25L24.128138 119.25Q23.659388 118.90625 23.425013 118.484375Q23.190638 118.046875 23.190638 117.4375Q23.190638 116.640625 23.596888 116.03125Q24.003138 115.421875 24.753138 115.125Q25.503138 114.8125 26.393763 114.8125Q27.346888 114.8125 28.112513 115.15625Q28.878138 115.484375 29.284388 116.140625Q29.690638 116.796875 29.690638 117.515625Q29.690638 118.046875 29.471888 118.46875Q29.237513 118.890625 28.909388 119.15625L31.940638 119.15625L31.940638 120.203125ZM26.471888 119.25Q27.675013 119.25 28.253138 118.765625Q28.815638 118.28125 28.815638 117.59375Q28.815638 116.890625 28.221888 116.390625Q27.628138 115.890625 26.378138 115.890625Q25.190638 115.890625 24.612513 116.375Q24.018763 116.859375 24.018763 117.546875Q24.018763 118.21875 24.643763 118.734375Q25.268763 119.25 26.471888 119.25ZM29.550013 113.203125L23.331263 113.203125L23.331263 112.265625L24.206263 112.265625Q23.737513 111.96875 23.471888 111.484375Q23.190638 111.0 23.190638 110.375Q23.190638 109.6875 23.471888 109.25Q23.753138 108.796875 24.268763 108.625Q23.190638 107.875 23.190638 106.703125Q23.190638 105.765625 23.706263 105.28125Q24.206263 104.78125 25.284388 104.78125L29.550013 104.78125L29.550013 105.828125L25.628138 105.828125Q25.003138 105.828125 24.721888 105.9375Q24.440638 106.03125 24.268763 106.296875Q24.096888 106.5625 24.096888 106.9375Q24.096888 107.59375 24.534388 108.03125Q24.971888 108.453125 25.940638 108.453125L29.550013 108.453125L29.550013 109.515625L25.503138 109.515625Q24.800013 109.515625 24.456263 109.78125Q24.096888 110.03125 24.096888 110.609375Q24.096888 111.0625 24.331263 111.4375Q24.565638 111.8125 25.018763 111.984375Q25.471888 112.15625 26.315638 112.15625L29.550013 112.15625L29.550013 113.203125ZM32.08126 101.515625L32.08126 102.265625Q29.268763 100.515625 26.440638 100.515625Q25.346888 100.515625 24.253138 100.765625Q23.378138 100.96875 22.565638 101.328125Q22.050013 101.5625 20.815638 102.265625L20.815638 101.515625Q22.284388 100.421875 23.768763 99.890625Q25.050013 99.4375 26.440638 99.4375Q28.018763 99.4375 29.503138 100.046875Q30.971888 100.65625 32.08126 101.515625Z" fill-rule="nonzero"/><path fill="#000000" d="M65.05 300.21564Q65.05 298.6844 65.3625 297.7625Q65.675 296.825 66.28438 296.325Q66.90938 295.825 67.84688 295.825Q68.53438 295.825 69.05 296.10626Q69.58125 296.3875 69.925 296.91876Q70.26875 297.4344 70.45625 298.1844Q70.64375 298.9344 70.64375 300.21564Q70.64375 301.73126 70.33125 302.65314Q70.03438 303.575 69.40938 304.09064Q68.8 304.59064 67.84688 304.59064Q66.6125 304.59064 65.89375 303.7Q65.05 302.6375 65.05 300.21564ZM66.12813 300.21564Q66.12813 302.325 66.62813 303.02814Q67.12813 303.73126 67.84688 303.73126Q68.58125 303.73126 69.06563 303.02814Q69.56563 302.325 69.56563 300.21564Q69.56563 298.09064 69.06563 297.40314Q68.58125 296.7 67.83125 296.7Q67.1125 296.7 66.675 297.3094Q66.12813 298.09064 66.12813 300.21564Z" fill-rule="nonzero"/><path fill="#000000" d="M63.596874 234.70938L63.596874 235.725L57.909374 235.725Q57.909374 235.35 58.034374 234.99063Q58.253124 234.4125 58.721874 233.85Q59.20625 233.2875 60.1125 232.55313Q61.51875 231.39688 62.003124 230.725Q62.503124 230.05313 62.503124 229.45938Q62.503124 228.83438 62.05 228.4125Q61.596874 227.975 60.878124 227.975Q60.1125 227.975 59.659374 228.42813Q59.20625 228.88126 59.190624 229.69376L58.1125 229.58438Q58.221874 228.36563 58.940624 227.74063Q59.675 227.1 60.909374 227.1Q62.14375 227.1 62.8625 227.7875Q63.58125 228.475 63.58125 229.49063Q63.58125 230.00626 63.3625 230.50626Q63.159374 230.99063 62.659374 231.55313Q62.175 232.1 61.05 233.05313Q60.096874 233.85 59.815624 234.14688Q59.55 234.42813 59.378124 234.70938L63.596874 234.70938ZM65.05 231.49063Q65.05 229.95938 65.3625 229.0375Q65.675 228.1 66.28438 227.6Q66.90938 227.1 67.84688 227.1Q68.53438 227.1 69.05 227.38126Q69.58125 227.6625 69.925 228.19376Q70.26875 228.70938 70.45625 229.45938Q70.64375 230.20938 70.64375 231.49063Q70.64375 233.00626 70.33125 233.92813Q70.03438 234.85 69.40938 235.36563Q68.8 235.86563 67.84688 235.86563Q66.6125 235.86563 65.89375 234.975Q65.05 233.9125 65.05 231.49063ZM66.12813 231.49063Q66.12813 233.6 66.62813 234.30313Q67.12813 235.00626 67.84688 235.00626Q68.58125 235.00626 69.06563 234.30313Q69.56563 233.6 69.56563 231.49063Q69.56563 229.36563 69.06563 228.67813Q68.58125 227.975 67.83125 227.975Q67.1125 227.975 66.675 228.58438Q66.12813 229.36563 66.12813 231.49063Z" fill-rule="nonzero"/><path fill="#000000" d="M61.425 167.0L61.425 164.9375L57.70625 164.9375L57.70625 163.96875L61.628124 158.40625L62.4875 158.40625L62.4875 163.96875L63.64375 163.96875L63.64375 164.9375L62.4875 164.9375L62.4875 167.0L61.425 167.0ZM61.425 163.96875L61.425 160.10938L58.7375 163.96875L61.425 163.96875ZM65.05 162.76562Q65.05 161.23438 65.3625 160.3125Q65.675 159.375 66.28438 158.875Q66.90938 158.375 67.84688 158.375Q68.53438 158.375 69.05 158.65625Q69.58125 158.9375 69.925 159.46875Q70.26875 159.98438 70.45625 160.73438Q70.64375 161.48438 70.64375 162.76562Q70.64375 164.28125 70.33125 165.20312Q70.03438 166.125 69.40938 166.64062Q68.8 167.14062 67.84688 167.14062Q66.6125 167.14062 65.89375 166.25Q65.05 165.1875 65.05 162.76562ZM66.12813 162.76562Q66.12813 164.875 66.62813 165.57812Q67.12813 166.28125 67.84688 166.28125Q68.58125 166.28125 69.06563 165.57812Q69.56563 164.875 69.56563 162.76562Q69.56563 160.64062 69.06563 159.95312Q68.58125 159.25 67.83125 159.25Q67.1125 159.25 66.675 159.85938Q66.12813 160.64062 66.12813 162.76562Z" fill-rule="nonzero"/><path fill="#000000" d="M63.51875 91.79063L62.471874 91.86875Q62.33125 91.24375 62.08125 90.9625Q61.64375 90.50938 61.01875 90.50938Q60.51875 90.50938 60.128124 90.79063Q59.64375 91.16563 59.346874 91.86875Q59.065624 92.55625 59.05 93.8375Q59.425 93.25938 59.971874 92.97813Q60.534374 92.69688 61.14375 92.69688Q62.190624 92.69688 62.925 93.47813Q63.675 94.25938 63.675 95.47813Q63.675 96.29063 63.315624 96.99375Q62.971874 97.68125 62.3625 98.05625Q61.753124 98.41563 60.9875 98.41563Q59.659374 98.41563 58.83125 97.44688Q58.003124 96.47813 58.003124 94.25938Q58.003124 91.75938 58.925 90.63438Q59.721874 89.65 61.08125 89.65Q62.096874 89.65 62.7375 90.22813Q63.39375 90.79063 63.51875 91.79063ZM59.221874 95.49375Q59.221874 96.04063 59.440624 96.54063Q59.675 97.025 60.08125 97.29063Q60.503124 97.55625 60.971874 97.55625Q61.628124 97.55625 62.1125 97.025Q62.596874 96.47813 62.596874 95.55625Q62.596874 94.66563 62.1125 94.15Q61.64375 93.63438 60.925 93.63438Q60.20625 93.63438 59.70625 94.15Q59.221874 94.66563 59.221874 95.49375ZM65.05 94.04063Q65.05 92.50938 65.3625 91.5875Q65.675 90.65 66.28438 90.15Q66.90938 89.65 67.84688 89.65Q68.53438 89.65 69.05 89.93125Q69.58125 90.2125 69.925 90.74375Q70.26875 91.25938 70.45625 92.00938Q70.64375 92.75938 70.64375 94.04063Q70.64375 95.55625 70.33125 96.47813Q70.03438 97.4 69.40938 97.91563Q68.8 98.41563 67.84688 98.41563Q66.6125 98.41563 65.89375 97.525Q65.05 96.4625 65.05 94.04063ZM66.12813 94.04063Q66.12813 96.15 66.62813 96.85313Q67.12813 97.55625 67.84688 97.55625Q68.58125 97.55625 69.06563 96.85313Q69.56563 96.15 69.56563 94.04063Q69.56563 91.91563 69.06563 91.22813Q68.58125 90.525 67.83125 90.525Q67.1125 90.525 66.675 91.13438Q66.12813 91.91563 66.12813 94.04063Z" fill-rule="nonzero"/><path fill="#000000" d="M59.675 24.89375Q59.01875 24.64375 58.690624 24.20625Q58.378124 23.753124 58.378124 23.14375Q58.378124 22.20625 59.05 21.565624Q59.7375 20.925 60.846874 20.925Q61.971874 20.925 62.659374 21.58125Q63.346874 22.2375 63.346874 23.175Q63.346874 23.76875 63.034374 24.20625Q62.721874 24.64375 62.08125 24.89375Q62.878124 25.14375 63.284374 25.721874Q63.690624 26.3 63.690624 27.096874Q63.690624 28.190624 62.909374 28.940624Q62.14375 29.690624 60.8625 29.690624Q59.596874 29.690624 58.815624 28.940624Q58.034374 28.190624 58.034374 27.065624Q58.034374 26.221874 58.45625 25.659374Q58.89375 25.096874 59.675 24.89375ZM59.45625 23.096874Q59.45625 23.70625 59.846874 24.096874Q60.253124 24.4875 60.878124 24.4875Q61.4875 24.4875 61.878124 24.1125Q62.26875 23.721874 62.26875 23.159374Q62.26875 22.58125 61.8625 22.190624Q61.45625 21.784374 60.8625 21.784374Q60.253124 21.784374 59.846874 22.175Q59.45625 22.565624 59.45625 23.096874ZM59.128124 27.065624Q59.128124 27.51875 59.33125 27.940624Q59.55 28.3625 59.971874 28.596874Q60.39375 28.83125 60.878124 28.83125Q61.628124 28.83125 62.1125 28.346874Q62.6125 27.8625 62.6125 27.1125Q62.6125 26.346874 62.1125 25.846874Q61.6125 25.346874 60.846874 25.346874Q60.096874 25.346874 59.6125 25.846874Q59.128124 26.33125 59.128124 27.065624ZM65.05 25.315624Q65.05 23.784374 65.3625 22.8625Q65.675 21.925 66.28438 21.425Q66.90938 20.925 67.84688 20.925Q68.53438 20.925 69.05 21.20625Q69.58125 21.4875 69.925 22.01875Q70.26875 22.534374 70.45625 23.284374Q70.64375 24.034374 70.64375 25.315624Q70.64375 26.83125 70.33125 27.753124Q70.03438 28.675 69.40938 29.190624Q68.8 29.690624 67.84688 29.690624Q66.6125 29.690624 65.89375 28.8Q65.05 27.7375 65.05 25.315624ZM66.12813 25.315624Q66.12813 27.425 66.62813 28.128124Q67.12813 28.83125 67.84688 28.83125Q68.58125 28.83125 69.06563 28.128124Q69.56563 27.425 69.56563 25.315624Q69.56563 23.190624 69.06563 22.503124Q68.58125 21.8 67.83125 21.8Q67.1125 21.8 66.675 22.409374Q66.12813 23.190624 66.12813 25.315624Z" fill-rule="nonzero"/><path fill="#000000" d="M74.55 313.21564Q74.55 311.6844 74.8625 310.7625Q75.175 309.825 75.78438 309.325Q76.40938 308.825 77.34688 308.825Q78.03438 308.825 78.55 309.10626Q79.08125 309.3875 79.425 309.91876Q79.76875 310.4344 79.95625 311.1844Q80.14375 311.9344 80.14375 313.21564Q80.14375 314.73126 79.83125 315.65314Q79.53438 316.575 78.90938 317.09064Q78.3 317.59064 77.34688 317.59064Q76.1125 317.59064 75.39375 316.7Q74.55 315.6375 74.55 313.21564ZM75.62813 313.21564Q75.62813 315.325 76.12813 316.02814Q76.62813 316.73126 77.34688 316.73126Q78.08125 316.73126 78.56563 316.02814Q79.06563 315.325 79.06563 313.21564Q79.06563 311.09064 78.56563 310.40314Q78.08125 309.7 77.33125 309.7Q76.6125 309.7 76.175 310.3094Q75.62813 311.09064 75.62813 313.21564Z" fill-rule="nonzero"/><path fill="#000000" d="M171.92259 317.45L170.87572 317.45L170.87572 310.73126Q170.48509 311.09064 169.86009 311.46564Q169.25072 311.825 168.76634 311.9969L168.76634 310.98126Q169.64134 310.5594 170.29759 309.98126Q170.96947 309.3875 171.25072 308.825L171.92259 308.825L171.92259 317.45ZM174.95384 313.21564Q174.95384 311.6844 175.26634 310.7625Q175.57884 309.825 176.18822 309.325Q176.81322 308.825 177.75072 308.825Q178.43822 308.825 178.95384 309.10626Q179.48509 309.3875 179.82884 309.91876Q180.17259 310.4344 180.36009 311.1844Q180.54759 311.9344 180.54759 313.21564Q180.54759 314.73126 180.23509 315.65314Q179.93822 316.575 179.31322 317.09064Q178.70384 317.59064 177.75072 317.59064Q176.51634 317.59064 175.79759 316.7Q174.95384 315.6375 174.95384 313.21564ZM176.03197 313.21564Q176.03197 315.325 176.53197 316.02814Q177.03197 316.73126 177.75072 316.73126Q178.48509 316.73126 178.96947 316.02814Q179.46947 315.325 179.46947 313.21564Q179.46947 311.09064 178.96947 310.40314Q178.48509 309.7 177.73509 309.7Q177.01634 309.7 176.57884 310.3094Q176.03197 311.09064 176.03197 313.21564Z" fill-rule="nonzero"/><path fill="#000000" d="M270.40457 316.4344L270.40457 317.45L264.71707 317.45Q264.71707 317.075 264.84207 316.71564Q265.06082 316.1375 265.52957 315.575Q266.01395 315.0125 266.9202 314.27814Q268.32645 313.1219 268.81082 312.45Q269.31082 311.77814 269.31082 311.1844Q269.31082 310.5594 268.8577 310.1375Q268.40457 309.7 267.68582 309.7Q266.9202 309.7 266.46707 310.15314Q266.01395 310.60626 265.99832 311.41876L264.9202 311.3094Q265.02957 310.09064 265.74832 309.46564Q266.4827 308.825 267.71707 308.825Q268.95145 308.825 269.6702 309.5125Q270.38895 310.2 270.38895 311.21564Q270.38895 311.73126 270.1702 312.23126Q269.96707 312.71564 269.46707 313.27814Q268.9827 313.825 267.8577 314.77814Q266.90457 315.575 266.62332 315.8719Q266.3577 316.15314 266.18582 316.4344L270.40457 316.4344ZM271.8577 313.21564Q271.8577 311.6844 272.1702 310.7625Q272.4827 309.825 273.09207 309.325Q273.71707 308.825 274.65457 308.825Q275.34207 308.825 275.8577 309.10626Q276.38895 309.3875 276.7327 309.91876Q277.07645 310.4344 277.26395 311.1844Q277.45145 311.9344 277.45145 313.21564Q277.45145 314.73126 277.13895 315.65314Q276.84207 316.575 276.21707 317.09064Q275.6077 317.59064 274.65457 317.59064Q273.4202 317.59064 272.70145 316.7Q271.8577 315.6375 271.8577 313.21564ZM272.93582 313.21564Q272.93582 315.325 273.43582 316.02814Q273.93582 316.73126 274.65457 316.73126Q275.38895 316.73126 275.87332 316.02814Q276.37332 315.325 276.37332 313.21564Q276.37332 311.09064 275.87332 310.40314Q275.38895 309.7 274.63895 309.7Q273.9202 309.7 273.4827 310.3094Q272.93582 311.09064 272.93582 313.21564Z" fill-rule="nonzero"/><path fill="#000000" d="M361.76154 315.1844L362.82404 315.04376Q362.9959 315.9344 363.4334 316.34064Q363.8709 316.73126 364.4959 316.73126Q365.2459 316.73126 365.76154 316.21564Q366.27716 315.7 366.27716 314.9344Q366.27716 314.21564 365.7928 313.7469Q365.32404 313.2625 364.58966 313.2625Q364.2928 313.2625 363.83966 313.3875L363.96466 312.45Q364.07404 312.46564 364.13654 312.46564Q364.8084 312.46564 365.33966 312.1219Q365.88654 311.7625 365.88654 311.02814Q365.88654 310.45 365.4959 310.075Q365.1053 309.6844 364.4803 309.6844Q363.8709 309.6844 363.44904 310.075Q363.0428 310.46564 362.9334 311.23126L361.8709 311.04376Q362.0584 309.9969 362.7459 309.41876Q363.4334 308.825 364.44904 308.825Q365.15216 308.825 365.7459 309.1375Q366.33966 309.4344 366.65216 309.95Q366.96466 310.46564 366.96466 311.0594Q366.96466 311.60626 366.6678 312.075Q366.3709 312.52814 365.7928 312.79376Q366.5428 312.96564 366.96466 313.52814Q367.38654 314.075 367.38654 314.91876Q367.38654 316.04376 366.5584 316.825Q365.7459 317.60626 364.4959 317.60626Q363.3709 317.60626 362.6209 316.9344Q361.8709 316.2469 361.76154 315.1844ZM368.76154 313.21564Q368.76154 311.6844 369.07404 310.7625Q369.38654 309.825 369.9959 309.325Q370.6209 308.825 371.5584 308.825Q372.2459 308.825 372.76154 309.10626Q373.2928 309.3875 373.63654 309.91876Q373.9803 310.4344 374.1678 311.1844Q374.3553 311.9344 374.3553 313.21564Q374.3553 314.73126 374.0428 315.65314Q373.7459 316.575 373.1209 317.09064Q372.51154 317.59064 371.5584 317.59064Q370.32404 317.59064 369.6053 316.7Q368.76154 315.6375 368.76154 313.21564ZM369.83966 313.21564Q369.83966 315.325 370.33966 316.02814Q370.83966 316.73126 371.5584 316.73126Q372.2928 316.73126 372.77716 316.02814Q373.27716 315.325 373.27716 313.21564Q373.27716 311.09064 372.77716 310.40314Q372.2928 309.7 371.5428 309.7Q370.82404 309.7 370.38654 310.3094Q369.83966 311.09064 369.83966 313.21564Z" fill-rule="nonzero"/><path fill="#000000" d="M462.04037 317.45L462.04037 315.3875L458.32162 315.3875L458.32162 314.41876L462.2435 308.85626L463.10287 308.85626L463.10287 314.41876L464.25912 314.41876L464.25912 315.3875L463.10287 315.3875L463.10287 317.45L462.04037 317.45ZM462.04037 314.41876L462.04037 310.5594L459.35287 314.41876L462.04037 314.41876ZM465.66537 313.21564Q465.66537 311.6844 465.97787 310.7625Q466.29037 309.825 466.89975 309.325Q467.52475 308.825 468.46225 308.825Q469.14975 308.825 469.66537 309.10626Q470.19662 309.3875 470.54037 309.91876Q470.88412 310.4344 471.07162 311.1844Q471.25912 311.9344 471.25912 313.21564Q471.25912 314.73126 470.94662 315.65314Q470.64975 316.575 470.02475 317.09064Q469.41537 317.59064 468.46225 317.59064Q467.22787 317.59064 466.50912 316.7Q465.66537 315.6375 465.66537 313.21564ZM466.7435 313.21564Q466.7435 315.325 467.2435 316.02814Q467.7435 316.73126 468.46225 316.73126Q469.19662 316.73126 469.681 316.02814Q470.181 315.325 470.181 313.21564Q470.181 311.09064 469.681 310.40314Q469.19662 309.7 468.44662 309.7Q467.72787 309.7 467.29037 310.3094Q466.7435 311.09064 466.7435 313.21564Z" fill-rule="nonzero"/><path fill="#000000" d="M555.5692 315.2L556.6786 315.10626Q556.8036 315.91876 557.2411 316.325Q557.6942 316.73126 558.33484 316.73126Q559.08484 316.73126 559.6161 316.15314Q560.14734 315.575 560.14734 314.6375Q560.14734 313.73126 559.6317 313.21564Q559.1317 312.6844 558.3036 312.6844Q557.8036 312.6844 557.3817 312.91876Q556.97546 313.15314 556.7411 313.5125L555.7567 313.3875L556.58484 308.98126L560.8661 308.98126L560.8661 309.98126L557.4286 309.98126L556.97546 312.29376Q557.7411 311.7469 558.58484 311.7469Q559.70984 311.7469 560.47546 312.52814Q561.2567 313.3094 561.2567 314.54376Q561.2567 315.7 560.58484 316.5594Q559.7567 317.59064 558.33484 317.59064Q557.16296 317.59064 556.41296 316.9344Q555.6786 316.27814 555.5692 315.2ZM562.5692 313.21564Q562.5692 311.6844 562.8817 310.7625Q563.1942 309.825 563.8036 309.325Q564.4286 308.825 565.3661 308.825Q566.0536 308.825 566.5692 309.10626Q567.10046 309.3875 567.4442 309.91876Q567.78796 310.4344 567.97546 311.1844Q568.16296 311.9344 568.16296 313.21564Q568.16296 314.73126 567.85046 315.65314Q567.5536 316.575 566.9286 317.09064Q566.3192 317.59064 565.3661 317.59064Q564.1317 317.59064 563.41296 316.7Q562.5692 315.6375 562.5692 313.21564ZM563.64734 313.21564Q563.64734 315.325 564.14734 316.02814Q564.64734 316.73126 565.3661 316.73126Q566.10046 316.73126 566.58484 316.02814Q567.08484 315.325 567.08484 313.21564Q567.08484 311.09064 566.58484 310.40314Q566.10046 309.7 565.35046 309.7Q564.6317 309.7 564.1942 310.3094Q563.64734 311.09064 563.64734 313.21564Z" fill-rule="nonzero"/></svg>